<svg version="1.1" id="Layer_1" xmlns="http://www.w3.org/2000/svg" x="0" y="0" viewBox="0 0 307.2 194.1" xml:space="preserve"><path d="M280.9 194.1l-10.3-2.5c-1.1-.3-27.7-6.9-44.6-19.6-8.3-6.4-15.2-14.5-20-23.9a252.6 252.6 0 01-40.7 3h-.4c-14.4 0-27.6-.9-37.5-1.8-25.6-2.1-49.9-7.7-70.4-16.2-21.6-8.9-38-20.7-47.4-34.1C.5 86.1-2.2 72 1.8 57.3 7.5 35.6 26 19.9 56.5 10.4 78.7 3.5 106.7 0 139.9 0h.6c25 0 61.9 1.2 94.3 10.5 16.9 4.9 31.1 11.6 42.3 19.9 13 9.7 22.2 21.8 27.6 36.1 3.7 10 3.1 22.3-1.6 33.8-4.6 11.3-12.7 20.7-22.1 25.7-3 1.7-6.1 3.1-9.4 4.3-1.1.4-2.4.9-4.3 1.6-6.2 2.4-13 4.7-20.2 6.8l-3 .9c-.9 6.1.1 12.4 2.8 18 5.1 10.9 25.7 29.2 25.9 29.4l8.1 7.1z"/></svg>