<svg xmlns="http://www.w3.org/2000/svg" width="33.374" height="33.396"><defs><clipPath id="a"><path fill="none" d="M0 0h33.374v33.396H0z"/></clipPath></defs><g clip-path="url(#a)"><path d="M33.342 7.815a10.223 10.223 0 00-.165-1.793 7.3 7.3 0 00-.677-2.08 7.223 7.223 0 00-1.389-1.853A6.889 6.889 0 0028.078.358a12.156 12.156 0 00-3.206-.342.033.033 0 01-.006-.016H8.5v.016A17.474 17.474 0 006.664.1 8.754 8.754 0 004.7.539a6.913 6.913 0 00-2.6 1.71A6.89 6.89 0 00.353 5.293a12.259 12.259 0 00-.342 3.18L0 24.9a15.771 15.771 0 00.151 2.224 7.7 7.7 0 00.684 2.247A7.188 7.188 0 002.842 31.8a6.519 6.519 0 002.008 1.089 10.871 10.871 0 003.3.485c.7 0 1.4.022 2.1.019 2.514-.011 5.027 0 7.541 0V22.245h-3.75v-4.484h3.751v-3.212s-.271-5.337 4.988-5.762h3.983v4.06h-2.9a1.839 1.839 0 00-1.433 1.393v3.442h4.138l-.464 4.293h-3.748v11.416q1.579-.008 3.159-.027a12 12 0 002-.213 6.78 6.78 0 003.353-1.633 6.953 6.953 0 002.215-3.694 13.467 13.467 0 00.289-2.922v-.2c0-.076-.03-16.673-.033-16.892"/></g></svg>