<svg xmlns="http://www.w3.org/2000/svg" width="32.132" height="28.319"><defs><clipPath id="a"><path fill="none" d="M0 0h32.132v28.319H0z"/></clipPath></defs><path d="M12.279 10.383l4.813-9.237 2.646 9.771 5.9 2.4-4.088 3.339-1.826 7.043-3.938-3.328-6.089 4.274 1.717-8.606-9.33-4.055z" fill="#f2d853"/><g clip-path="url(#a)" fill="#1a1818"><path d="M.022 10.228l1.213-.158A24.364 24.364 0 014.859 10c.6.01 1.193.059 1.79.074 1.275.033 2.551.061 3.826.077.384 0 .768-.052 1.152-.054.243 0 .343-.132.437-.326.778-1.6 1.567-3.2 2.345-4.8q.845-1.738 1.671-3.486c.169-.359.3-.736.443-1.108.1-.263.24-.389.482-.382a.432.432 0 01.424.345c.329 1.008.7 2 1 3.022a205.34 205.34 0 011.494 5.494 10.5 10.5 0 01.183 1.455 3.358 3.358 0 010 .346A91.97 91.97 0 0032.132 9.2c-.22.2-.4.376-.591.537a69.446 69.446 0 01-6.248 4.552c-.9.593-1.781 1.208-2.68 1.8a.414.414 0 00-.209.489c.191 1.2.321 2.42.536 3.62.2 1.122.463 2.234.738 3.341a15.973 15.973 0 01.351 2.154.51.51 0 01-.3.553 76.949 76.949 0 01-8.1-5.528 2.393 2.393 0 01-.158.213 8.289 8.289 0 01-.71.745c-2.076 1.742-4.133 3.508-6.324 5.106a15.734 15.734 0 01-2.231 1.382c-.1.052-.217.088-.39.157.069-.2.108-.345.171-.482.342-.748.7-1.49 1.034-2.242.307-.691.58-1.4.891-2.086.5-1.1 1.022-2.19 1.518-3.292.458-1.017.894-2.043 1.335-3.067.057-.132.091-.274.147-.447a4.352 4.352 0 01-1.693-.558c-.41-.184-.866-.275-1.259-.486-1.31-.7-2.621-1.406-3.894-2.172-.977-.588-1.906-1.258-2.841-1.914A3.429 3.429 0 01.114 10.4c-.02-.038-.075-.057-.114-.085l.022-.091M17.114 1.59L17 1.565c-.158.256-.337.5-.47.77q-1.88 3.785-3.743 7.577a1.011 1.011 0 01-.77.549 20.154 20.154 0 01-3.726.275c-1.648.033-3.3-.022-4.947-.062-.688-.017-1.374-.093-2.062-.14-.124-.008-.25 0-.471 0 .2.145.322.243.453.321 1.576.935 3.155 1.864 4.73 2.8a27.085 27.085 0 004.262 2.052 2.583 2.583 0 01.568.283.511.511 0 00.588.049c-.034.23-.056.413-.09.594a8.081 8.081 0 01-.384 1.864c-.315.717-.571 1.46-.9 2.171-.838 1.832-1.709 3.654-2.567 5.481a1.545 1.545 0 00-.054.188c.121-.082.2-.13.27-.182 1.822-1.294 3.53-2.729 5.238-4.166q.808-.68 1.624-1.349a2.539 2.539 0 011.306-.6l-.069.336a48.411 48.411 0 007.356 4.663c-.053-.237-.115-.465-.155-.7-.2-1.189-.4-2.38-.606-3.569-.119-.693-.221-1.39-.376-2.075a9.6 9.6 0 00-.454-2.032 3.007 3.007 0 01-.094-.961 4.832 4.832 0 001.462-.73c.162-.092.318-.192.478-.288 2.183-1.321 4.375-2.627 6.466-4.094.077-.054.145-.122.285-.242-.309.015-.522.011-.731.039-1.115.152-2.23.307-3.343.472a45.173 45.173 0 01-4.7.462c-.531.022-1.064 0-1.6-.017-.073 0-.144-.087-.216-.134l.181-.25c-.042-.092-.109-.222-.159-.357-.166-.447-.36-.887-.482-1.346-.265-1-.475-2.015-.737-3.015-.4-1.54-.83-3.073-1.246-4.609"/><path d="M19.225 17.217c-.373 0-.511-.265-.684-.538a2.571 2.571 0 01-2.733.57 1.1 1.1 0 01-.811-.654c.233.113.395.211.569.274a2.211 2.211 0 001.207.093 8.962 8.962 0 001.686-.519c-.01-.384-.01-.385.335-.475.122-.032.245-.057.329-.076a5.536 5.536 0 00.192.688.533.533 0 01-.09.639m-5.149-6.404a3.464 3.464 0 01-1.043.692c-.381.147-.751.321-1.132.468a.254.254 0 01-.228-.056.165.165 0 01.068-.264 6.716 6.716 0 011.751-.9 4.285 4.285 0 01.567-.048l.017.106m3.468-.01a2.608 2.608 0 011.849.378 1.149 1.149 0 01-1.02-.019c-.263-.086-.613.011-.829-.359m.714 1.948c.377 0 .515.227.339.567a1.342 1.342 0 01-.081.137c-.187.278-.361.269-.526-.028a1.241 1.241 0 01-.077-.182c-.128-.356-.033-.492.345-.494m-5.389-.245c.225-.006.367.09.376.254.012.209-.21.559-.356.562s-.36-.264-.374-.5c-.013-.213.093-.307.354-.314"/></g></svg>