<svg xmlns="http://www.w3.org/2000/svg" width="33.616" height="33.616"><defs><clipPath id="a"><path fill="none" d="M0 0h33.616v33.616H0z"/></clipPath></defs><g clip-path="url(#a)"><path d="M29.509 0a4.109 4.109 0 014.107 4.107v25.4a4.109 4.109 0 01-4.107 4.107H4.107A4.109 4.109 0 010 29.509V4.107A4.109 4.109 0 014.107 0zm-12.7 5.318c-3.121 0-3.512.013-4.737.069a8.431 8.431 0 00-2.789.534 5.875 5.875 0 00-3.36 3.36 8.438 8.438 0 00-.534 2.789c-.056 1.225-.069 1.617-.069 4.737s.013 3.512.069 4.737a8.437 8.437 0 00.534 2.789 5.875 5.875 0 003.36 3.36 8.436 8.436 0 002.789.534c1.225.056 1.617.069 4.737.069s3.512-.013 4.737-.069a8.436 8.436 0 002.789-.534 5.875 5.875 0 003.36-3.36 8.436 8.436 0 00.534-2.789c.056-1.225.069-1.617.069-4.737s-.013-3.512-.069-4.737a8.436 8.436 0 00-.534-2.789 5.875 5.875 0 00-3.36-3.36 8.431 8.431 0 00-2.789-.534c-1.225-.056-1.617-.069-4.737-.069m0 2.07c3.068 0 3.431.012 4.643.067a6.361 6.361 0 012.134.4 3.8 3.8 0 012.181 2.181 6.357 6.357 0 01.4 2.133c.055 1.212.067 1.575.067 4.643s-.012 3.431-.067 4.643a6.358 6.358 0 01-.4 2.134 3.805 3.805 0 01-2.181 2.181 6.359 6.359 0 01-2.134.4c-1.211.055-1.575.067-4.643.067s-3.431-.012-4.643-.067a6.359 6.359 0 01-2.133-.4 3.805 3.805 0 01-2.181-2.181 6.359 6.359 0 01-.4-2.134c-.055-1.212-.067-1.575-.067-4.643s.012-3.431.067-4.643a6.358 6.358 0 01.4-2.133 3.8 3.8 0 012.181-2.181 6.361 6.361 0 012.133-.4c1.212-.055 1.575-.067 4.643-.067m0 3.519a5.9 5.9 0 105.9 5.9 5.9 5.9 0 00-5.9-5.9m0 9.73a3.83 3.83 0 113.83-3.83 3.83 3.83 0 01-3.83 3.83m7.512-9.963a1.379 1.379 0 11-1.38-1.374 1.379 1.379 0 011.379 1.379" fill-rule="evenodd"/></g></svg>