<svg xmlns="http://www.w3.org/2000/svg" width="326" height="159.058"><defs><clipPath id="a"><path fill="none" d="M0 0h326v159.058H0z"/></clipPath></defs><g clip-path="url(#a)"><path d="M0 143.792a13.016 13.016 0 00.357-1.986 142.311 142.311 0 011.984-21.312C4.2 108.611 6.178 96.748 7.94 84.85c1.093-7.384 1.948-14.807 2.775-22.227.474-4.253.8-8.532.955-12.808.086-2.344-.414-4.7-.479-7.06-.094-3.409-.042-6.822-.035-10.233 0-2.744.07-5.488.033-8.231-.013-.974.031-1.033.986-.967a26.709 26.709 0 003.434-.045c1.259-.075 2.513-.233 3.934-.37-1.282-1.983-.66-3.717.523-5.351a3.9 3.9 0 014.1-1.434 3.153 3.153 0 012.105 3.224c.015.924 0 1.849 0 2.983l6.086-.56c-.411-1.5.312-2.6 1.052-3.689a4.419 4.419 0 012.446-1.852 2.572 2.572 0 013.52 2.312c.064.808.011 1.624.011 2.6l5.841-.45a4.084 4.084 0 01.962-3.626 5.714 5.714 0 013.2-1.921c1.946-.48 3.25.53 3.224 2.539-.01.756-.14 1.511-.231 2.414l4.693-.314a4.815 4.815 0 00-.29-.505c-1.259-1.573-1.368-2.494-.45-3.865a4.406 4.406 0 014.588-1.914 3.426 3.426 0 012.714 3.324c.019.761-.094 1.524-.157 2.432l3.821-.315a22.009 22.009 0 01.011-2.23 3.488 3.488 0 014.6-3.145 2.478 2.478 0 011.875 2.6c.011.707-.073 1.415-.124 2.28l4.8-.307a5.012 5.012 0 012.8-4.878A5.333 5.333 0 0183.6 12.6a2.194 2.194 0 012.405 2.181 24.113 24.113 0 01-.1 2.582c1.217.483 2.5-.273 3.854-.012.123-.4.217-.755.341-1.1a4.553 4.553 0 013.2-3.064 1.91 1.91 0 012.645 1.826c.042.49.007.987.007 1.708l4.723-.28c.251-1.065.4-1.982.689-2.856a3.6 3.6 0 011.87-2.212 2.472 2.472 0 013.7 1.932 20.871 20.871 0 01.016 2.488 44.131 44.131 0 005.76-.35 5.092 5.092 0 011.973-5c1.886-1.659 4.059-.964 4.63 1.486a23.691 23.691 0 01.3 2.966l6.979-.562a4.172 4.172 0 01.364-4.415 2.941 2.941 0 013.039-1.556 2.8 2.8 0 012.283 2.527 18.691 18.691 0 01.03 2.992l6.55-.434c.428-1.139.808-2.214 1.239-3.269a5.781 5.781 0 01.782-1.441 1.824 1.824 0 012.647-.246 5.047 5.047 0 011.695 3.126c.071.372.071.758.118 1.31l5.188-.326c.493-1.25.881-2.384 1.383-3.464a3.063 3.063 0 012.048-1.792 2.911 2.911 0 013.6 2.694 18.3 18.3 0 01.012 2.04l7.443-.451c-.173-.578-.3-.98-.413-1.385a4.224 4.224 0 01.649-3.622 2.665 2.665 0 014.25-.32 4.69 4.69 0 011.315 3.127c.009.494 0 .988 0 1.7a81.959 81.959 0 008.319-.458c-.184-.462-.329-.844-.486-1.222a3.194 3.194 0 01.782-3.907A5.468 5.468 0 01182.983 4a2 2 0 012.352 2.142c.008 1.361-.188 2.721-.306 4.242l7.382-.372c.782-1.316 1.432-2.574 2.241-3.722a3.628 3.628 0 012.916-1.647 1.714 1.714 0 012 1.714A11.155 11.155 0 01199.577 8c-.021.489-.093.974-.16 1.627l8.144-.309c-.151-.6-.3-1.039-.373-1.493a4.211 4.211 0 011.356-4.2 3.778 3.778 0 014.342-.4c1.559.8 2.005 2.048 1.446 4.1-.142.522-.353 1.026-.607 1.752l9.169-.378a6.617 6.617 0 012.413-6.362 3.47 3.47 0 012.708-1.009c.923.095 1.247.406 1.33 1.352a7.552 7.552 0 01-.692 3.858c-.267.585-.489 1.191-.829 2.029 1.235-.062 2.249-.131 3.265-.157.989-.025 1.979-.005 3.051-.005a9.152 9.152 0 01.416-1.243c.66-1.317 1.292-2.655 2.067-3.9a3.884 3.884 0 011.495-1.247c1.858-.974 3.311-.143 3.444 1.947a9.27 9.27 0 01-.132 1.97c-.1.647-.3 1.277-.512 2.163l8.775-.388a18.464 18.464 0 01.472-2.931 9.789 9.789 0 011.42-2.94c1.466-1.9 3.907-1.527 4.917.659a7.144 7.144 0 01.237 4.738l5.213-.472c.287-1.35.456-2.55.808-3.694a4.138 4.138 0 012.551-2.85 2.48 2.48 0 013.491 1.5A27.368 27.368 0 01269.426 6l.99-.11.951-1.507.311.12v1.188l4.513-.648C274.9 6.361 273.178 6.65 271.7 7.5c0 1.632-.13 3.284.025 4.908.442 4.641.973 9.273 1.515 13.9a239.686 239.686 0 007.108 36.032 204.3 204.3 0 0010.487 29.36 126.166 126.166 0 0021.218 32.709 65.17 65.17 0 008.573 8.219 14.541 14.541 0 002.1 1.118c.362 1.617 2.475 1.817 3.273 3.423a17.432 17.432 0 01-2.647-1.371 7.011 7.011 0 00-5.724-1.137c-8.8 1.375-17.669 1.206-26.536.951a49.972 49.972 0 00-2.479.01 2.7 2.7 0 00-.6.2c.076 1.825.1 3.677.247 5.52a41.908 41.908 0 00.647 4.73c.233 1.173.781 2.284 1.006 3.457a27.45 27.45 0 01.244 3.37l1.354.376c-.113.163-.179.365-.272.378-1.4.2-2.81.39-4.219.539-4.209.444-8.415.947-12.634 1.277-3.945.309-7.905.575-11.861.6q-42.08.3-84.162.483c-10.912.044-21.826-.1-32.739-.119-5.842-.007-11.684.059-17.526.143q-6.607.1-13.212.33-8.331.282-16.66.664c-6.043.287-12.081.675-18.124.96-3.683.174-7.371.273-11.058.343-5.067.1-10.135.147-15.2.186-1.1.009-2.194-.11-3.29-.183-2.249-.15-4.5-.4-6.747-.447-5.73-.117-11.462-.2-17.193-.167a5.219 5.219 0 01-3.54-1.435 158.513 158.513 0 01-6.641-5.918 15.961 15.961 0 00-6.7-3.694c-2.848-.83-5.666-1.764-8.484-2.695A6.135 6.135 0 010 143.792m29.9.187a6.862 6.862 0 01-1.16.558c-1.855.5-3.714 1-5.585 1.437-2.592.608-5.2 1.163-7.922 1.769.221.283.29.438.41.515A85.946 85.946 0 0126.3 156.3a1.507 1.507 0 00.861.417c2.406.033 4.813.019 7.179.019-.947-4.147-1.895-8.317-2.866-12.482-.033-.141-.3-.229-.45-.342a2.944 2.944 0 00.185-.942c-.246-1.7-.519-3.4-.846-5.084-.046-.239-.441-.409-.675-.612.578-.287.477-.771.392-1.272-1.271-7.523-2.482-15.056-3.816-22.568-2.025-11.408-4.161-22.8-6.2-34.2-1.319-7.403-2.514-14.827-3.83-22.234-.814-4.579-1.748-9.137-2.628-13.7a.752.752 0 00-.321.6c-.192 4.94-.357 9.881-.577 14.819-.1 2.248-.229 4.5-.483 6.734-.683 5.994-1.367 11.989-2.189 17.964-.867 6.307-1.909 12.589-2.847 18.883-1.075 7.219-2.155 14.436-3.166 21.663-.684 4.888-1.262 9.79-1.864 14.689-.164 1.336-.242 2.682-.368 4.117a6.389 6.389 0 00.962-.006c4.76-.864 9.532-1.666 14.271-2.632 4.254-.867 8.47-1.917 12.693-2.879a6.337 6.337 0 01-1.166.528q-9.954 2.3-19.919 4.546c-1.691.379-3.408.635-5.34.988a6.055 6.055 0 00.648.405c2.858 1.146 5.7 2.343 8.591 3.391a4.941 4.941 0 002.565.1c3.066-.638 6.1-1.42 9.159-2.1 1.872-.419 3.763-.756 5.645-1.129m3.417-37.141c.153.2.395.387.448.614 1.545 6.625 3.121 13.244 4.582 19.888a106.6 106.6 0 012.1 11.328 54.232 54.232 0 002.024 8.176 17.113 17.113 0 001.893.1c1.587-.093 3.168-.267 4.755-.363 3.509-.214 7.02-.4 10.531-.6q3.623-.2 7.246-.372c4.338-.211 8.675-.425 13.014-.617 3.077-.136 6.156-.23 9.233-.359 4.889-.2 9.778-.432 14.667-.634 3.243-.134 6.487-.231 9.73-.359 5.222-.206 10.442-.447 15.664-.628 4.181-.145 8.364-.235 12.547-.327q8.505-.188 17.01-.34c3.138-.059 6.278-.085 9.416-.153 2.145-.046 4.29-.126 6.435-.212 5.057-.2 10.113-.427 15.17-.626 3.354-.132 6.708-.228 10.062-.354 5.5-.207 10.995-.472 16.494-.626 4.349-.122 8.7-.113 13.052-.169.064 0 .126-.085.265-.184l-1.146-.114a23.984 23.984 0 013.952-.208c8.537.059 17.075.168 25.612.167 4.4 0 8.8-.188 13.2-.3 1.755-.046 3.509-.123 5.263-.187a8.679 8.679 0 01-1.283.268q-6.338.375-12.679.709c-2.362.121-4.731.137-7.09.3s-4.7.6-7.056.664c-5.563.153-11.131.139-16.7.223-5.892.089-11.785.177-17.676.332-6.769.179-13.536.423-20.3.656-6 .206-12 .482-18 .642-7.821.208-15.644.333-23.467.491-4.793.1-9.586.173-14.378.286q-11.233.263-22.465.567-5.7.152-11.392.353c-5.941.2-11.881.428-17.822.634-3.741.13-7.484.223-11.224.368-4.947.191-9.894.41-14.84.629-2.968.131-5.933.3-8.9.42-2.75.108-5.5.155-8.252.251-.683.024-1.219-.146-1.4-.859a73.082 73.082 0 01-1.828-7.68 120.43 120.43 0 00-2.515-13.07 3.075 3.075 0 00-.07 1.092c.247 1.627.542 3.247.782 4.876a30.658 30.658 0 01.742 6.032 35.207 35.207 0 00.541 5.344c.1 1.09.333 2.167.463 3.256a2.209 2.209 0 01-.193.751c-1.52-8.475-2.61-16.95-4.131-25.347-1.517-8.374-3.468-16.669-5.229-25a.922.922 0 00-.252.843c.4 3.01 1.547 5.938.993 9.056a1.878 1.878 0 00.094.648c.794 3.985 1.638 7.96 2.375 11.955 1.334 7.236 2.939 14.43 3.5 21.79a5.637 5.637 0 01.14 1.785c-.412 1.48.029 2.824.548 4.4-.393-.238-.727-.323-.772-.489a11.215 11.215 0 01-.366-1.937c-.246-2.617-.31-5.259-.716-7.849-1.047-6.674-2.229-13.326-3.379-19.983-1.055-6.113-2.207-12.21-3.181-18.335a43.592 43.592 0 00-2.058-9.115c-2.46-6.31-4.7-12.69-6.578-19.2-.542-1.883-1.122-3.755-1.684-5.632l-.071.031 17.16 92.29c2.09.088 4.121.251 6.152.243q10.99-.039 21.981-.183c3.411-.046 6.825-.146 10.231-.341 6.806-.389 13.606-.887 20.411-1.29 6.2-.368 12.409-.719 18.617-.987q9.816-.423 19.639-.665 9.665-.247 19.335-.331c19.564-.139 39.129-.215 58.693-.352 7.99-.056 15.979-.207 23.968-.307 9.532-.12 19.065-.257 28.6-.332 3.358-.026 6.719.082 10.076.18 4.291.124 8.58.3 12.871.446.965.032 1.933 0 3.035 0-.128-.394-.136-.644-.265-.779a7.458 7.458 0 01-1.819-4.339c-.539-3.856-1.04-7.718-1.593-11.844-2.449-.888-5.24-.441-8.081-.548.1.712.163 1.3.268 1.891.286 1.611.1 1.875-1.548 2.114a1.509 1.509 0 001-1.961c-.126-.639-.257-1.277-.4-1.975a12.08 12.08 0 00-1.327-.2c-2.09-.081-4.181-.136-6.272-.2l-21.458-.659c-7.373-.224-14.747-.459-22.121-.659q-9.909-.271-19.821-.475c-5.673-.125-11.346-.271-17.019-.32-7.331-.062-14.662-.089-21.993-.035-8.916.065-17.833.14-26.745.379-6.871.184-13.741.552-20.6.978-7.406.46-14.806 1.035-22.2 1.648-9.153.758-18.3 1.606-27.448 2.418a11.1 11.1 0 01-3.246.248 12.628 12.628 0 01-3.035-1.622c-.577-.322-1.154-.645-1.738-.954-4.63-2.451-8.464-5.944-12.143-9.574-2.382-2.35-4.428-5.039-6.633-7.569a1.858 1.858 0 00-.475-.267l-.441 1.879 1.642.624a2.974 2.974 0 01-2.113 2.033c-1.629.663-1.664.658-2.372-1.09a9.927 9.927 0 001.538-4.376l-1.6 1.023c-.637-1.679.82-2.128 1.392-2.845l-7.575-12.5-.323.537a6.722 6.722 0 00-1.748-4.427l2.024 8.311.229-.049-.139-.918zm284.953 26.236c.029-.205.06-.278.039-.3a2.452 2.452 0 00-.361-.335c-7-4.908-12.44-11.293-17.228-18.29-7.616-11.128-13.092-23.3-17.454-36-7.59-22.086-11.447-44.881-12.674-68.158-.033-.631-.05-1.263-.079-2.028-1.125.339-2.142.289-2.661 1.4a36.868 36.868 0 01-5.321 7.526c-.376.46-.843.7-1.265.389a3.854 3.854 0 01-1.184-1.461c-.1-.222.262-.9.553-1.014a28.512 28.512 0 013.077-.815 22.553 22.553 0 003.059-4.953l-2.706.623-.227 1.84-1.047-1.6c-2.368.226-4.66.469-6.958.647a2.047 2.047 0 00-1.5.839c-1.406 1.621-2.879 3.185-4.33 4.766-.353.384-.775.624-.9 1.274-.153.783-.964.8-1.484.123a1.538 1.538 0 01.064-2.226c.671-.786 1.107-.849 2.284-.284 1.058-1.4 2.455-2.56 3.3-4.127-1.88 0-3.636-.04-5.389.01-2.474.069-4.945.234-7.419.3a1.753 1.753 0 00-1.572.947c-.975 1.463-2.044 2.864-3.1 4.27-.36.478-.751.973-1.471.917-.063 0-.136.113-.2.168l.528.971c-1.274 1.062-1.686 1.051-2.441-.009a1.585 1.585 0 01.538-2.613 2.232 2.232 0 012.625.153l3.02-4.737c-1.182 0-1.994-.013-2.8 0-.715.015-1.429.073-2.144.1-2.256.068-4.511.148-6.767.18a1.8 1.8 0 00-1.525.782 22.3 22.3 0 00-2.31 2.783c-.586 1.088-2 1.3-2.358 2.561a1.153 1.153 0 01-.972.065 5.238 5.238 0 01-.9-1.234c.554-.357.944-.81 1.362-.838a3.193 3.193 0 002.383-1.553c.579-.757 1.152-1.518 1.763-2.325a2.277 2.277 0 00-.523-.2c-3.741.1-7.483.179-11.223.33a2.118 2.118 0 00-1.235.658 52.21 52.21 0 00-3.019 3.275 14.146 14.146 0 00-1.163 2l2.566.206a11.248 11.248 0 01-.927 1.27 1.471 1.471 0 01-2.578-.312 2.079 2.079 0 01.438-3.037 17.388 17.388 0 003.5-4.02l-11.787.4-6.194 7.591.8 1.28a11.4 11.4 0 01-1.885.361 1.726 1.726 0 01-1.618-1.4c-.175-.858.466-1.15 1.037-1.48a1.348 1.348 0 01.611-.239 3.078 3.078 0 002.484-1.636c.856-1.147 1.729-2.28 2.572-3.436a6.326 6.326 0 00.474-.976l-12.6.557c-1.813 2.119-3.391 3.947-4.948 5.794-.73.866-1.816 1.318-2.4 2.41-.442.826-1.633.681-2.292-.06a1.4 1.4 0 01.163-2.28c.844-.7 1.376-.657 2.2.13a2.851 2.851 0 00.658.332 24.678 24.678 0 004.955-6.1c-1.223 0-2.259-.041-3.289.008q-4.2.2-8.4.481a1.508 1.508 0 00-.987.421 193.719 193.719 0 00-4.054 5.2 1.213 1.213 0 00-.15.812c.123.951-.476 1.957-1.233 1.914-.934-.054-1.064-.788-1.2-1.487 2.267-1.761 3.774-4.062 5.47-6.534a11.376 11.376 0 00-1.417-.145c-3.02.147-6.038.32-9.058.471-.757.038-1.109.509-1.516 1.084-1.237 1.745-2.568 3.424-3.858 5.133a.915.915 0 00-.093.256l1.044.672a18.468 18.468 0 01-1.745.862c-.84.305-1.329-.2-1.753-.852a1.221 1.221 0 01.3-1.754 4.725 4.725 0 011.488-.552c.339-.11.83-.077 1.009-.3a13.271 13.271 0 002.65-4.337c-3.48.221-6.813.414-10.14.678a1.371 1.371 0 00-.916.767c-.862 2.206-2.833 3.72-3.665 5.94-.074.2-.392.3-.538.405l.424 1.093c-1.643.778-1.975.6-2.81-1.534.364-.236.753-.7 1.149-.7.94-.014 1.369-.614 1.813-1.237a41.101 41.101 0 001.652-2.468c.384-.63.685-1.311 1.086-2.1-.577-.032-.906-.084-1.23-.063-3.346.212-6.691.446-10.038.648a1.378 1.378 0 00-1.173.742c-.87 1.336-1.823 2.617-2.684 3.958a5.482 5.482 0 00-.437 1.367l-1.031.065c.029.337.053.594.071.85.05.714-.489.971-.917.689a3.021 3.021 0 01-1.108-1.5c-.206-.631.424-1.123.934-1.124 1.367 0 1.877-1.009 2.48-1.89a6.325 6.325 0 001.482-2.954c-3.535.265-6.924.548-10.318.751a1.932 1.932 0 00-1.592.926 25.539 25.539 0 01-2.375 2.74c-1.272 1.277-2.617 2.481-4 3.779l2.048.868a12.932 12.932 0 01-2.131.728 1.748 1.748 0 01-1.92-1.789c.012-.937.679-1.45 1.835-1.39a6.934 6.934 0 01.843.151 34 34 0 004.659-5.458c-.214-.155-.3-.27-.377-.265-3.29.2-6.581.391-9.866.658-.318.025-.659.5-.882.83a51.425 51.425 0 00-1.911 3.081 20.107 20.107 0 00-.848 1.966l-.776.261.828 1.213a8.562 8.562 0 01-1.528.361 1.32 1.32 0 01-1.347-1.219 1.451 1.451 0 01.632-1.175c2.049-1.123 2.776-3.166 3.893-5.191-1.232.149-2.347-.122-3.186.791-1.011-.675-2.673-.67-6.363.012a32.923 32.923 0 01-3.167 5.338 21.019 21.019 0 00-1.672 2.884c-.731.167-1.2-.339-1.416-1.092-.23-.8.387-1.178.956-1.539.409-.259.967-.427 1.2-.8.887-1.421 1.669-2.907 2.577-4.523a6.061 6.061 0 00-1.19-.225c-2.358.13-4.718.263-7.071.466a1.805 1.805 0 00-1.01.668c-1.044 1.2-2.113 2.4-3.033 3.7-.7.983-2.206 1.446-2.02 3.023.008.066-.142.157-.227.226a1.244 1.244 0 01-1.786.1 1.614 1.614 0 01-.442-1.917c.489-.974 1.147-1.249 2.714-1.081a22.389 22.389 0 003.449-4.57c-3.24.233-6.241.484-9.247.643a1.72 1.72 0 00-1.5 1.026c-1.38 2.154-2.836 4.259-4.274 6.4l.541 1.041c-.688.569-1.354.625-1.821.018A2.549 2.549 0 0166 26.907c.23-1.032 1.328-.941 2.158-1.064 1.07-1.827 2.47-3.4 3.244-5.565-2.852.2-5.534.358-8.208.6-.338.03-.715.438-.938.764-.5.725-.846 1.553-1.365 2.259a2.74 2.74 0 00-.659 2.556l-1.108-.242 1.522 1.339a11.04 11.04 0 01-2.185.3A1.389 1.389 0 0157.3 26.61a.985.985 0 01.63-1.206c1.919-.81 2.093-2.779 3.25-4.44l-9.475.69c-1.462 2.236-2.281 4.624-4.275 6.234l.739 1.153a5.891 5.891 0 01-1.425.271 1.752 1.752 0 01-1.384-1.957c.076-.77.486-.978 1.628-.812.24.035.474.113.731.176.331-1.78 1.779-2.989 1.959-4.8h-1.86a4.948 4.948 0 01-.161.547c-.076.174-.181.335-.274.5a4.468 4.468 0 00-3.6-.8c-1.745.1-3.485.262-4.985.378l-3.349 5.276.944.647a6.916 6.916 0 01-.75.517c-1.143.57-1.762.43-2.215-.476-.374-.748-.036-1.38.994-1.9a1.924 1.924 0 00.785-.508c.656-1.062 1.249-2.163 1.991-3.472l-11.068.92c-.562 1.472-1.074 2.8-1.573 4.134a7.656 7.656 0 00-.2.774l1.09.217a1.807 1.807 0 01-1.1 2.076 1.928 1.928 0 01-2.6-.715 2.213 2.213 0 01.636-3.042c1.321-.7 1.311-1.871 1.582-3.2l-10.928.632a7.413 7.413 0 00-.17 1.576c.37 3.328.774 6.653 1.193 9.975a5.492 5.492 0 00.527 2.543c.851 1.087.614 2.256.771 3.4.171 1.249.224 2.52.472 3.752a249.083 249.083 0 009.721 34.946 143.54 143.54 0 0015.057 31.148 116.229 116.229 0 0012.033 15.51c3.579 3.814 7.91 6.66 12.183 9.581a4.157 4.157 0 003.277.757c1.071-.215 2.188-.194 3.281-.306 7.165-.736 14.325-1.523 21.495-2.212q11.411-1.1 22.837-2.042a708.447 708.447 0 0117.77-1.265c5.436-.312 10.88-.495 16.323-.672 4.845-.157 9.692-.28 14.539-.327q10.831-.106 21.662-.073c8.046.035 16.092.145 24.137.249q10.33.133 20.659.327c5.563.1 11.126.217 16.689.33 5.343.108 10.685.243 16.028.324 8.706.131 17.412.269 26.119.327 8.536.057 17.075-.053 25.594.665 1.014.086 2.035.1 3.034.141M179.9 10.575c1.005 0 1.884.044 2.755-.022.333-.025.856-.233.935-.475.447-1.376 1.109-2.776.249-4.22-2.824-.033-4.319 1.778-3.939 4.717M208.748 9.3c1.123-.083 1.992-.126 2.855-.223.249-.028.634-.154.7-.328a18.673 18.673 0 00.806-2.8c.049-.259-.284-.71-.56-.889a2.259 2.259 0 00-3.4 1.377c-.192.844-.245 1.72-.4 2.867m-147 10.136c.137-.5.232-.812.307-1.129.3-1.27.1-1.994-.676-2.487a2.472 2.472 0 00-2.9.366c-1.118.918-.948 2.1-.782 3.484l4.052-.234M255.267 7.356c.892-2.38.527-3.853-1.261-4.907-1.9 1.11-2.133 3.058-2.547 5.147l3.808-.241M267.946 6.2a18.863 18.863 0 00-.033-3.161c-.265-1.444-1.434-1.756-2.562-.8a4.227 4.227 0 00-1.081 4.331l3.676-.372M239.547 8.1c.824-2.113.9-2.994.426-4.545-1.734.19-3.293 2.1-3.691 4.545zm-69.995 3.2a3.506 3.506 0 00-.806-3.383 1.153 1.153 0 00-2.037.16 4.435 4.435 0 00-.422 3.458l3.265-.235m-97.264 7.317a15.483 15.483 0 00.278-1.988 1.35 1.35 0 00-1.949-1.4 3.252 3.252 0 00-1.407 1.244 13.531 13.531 0 00-.9 2.354l3.98-.211m58.722-4.634c.038-.77.107-1.417.093-2.062a1.56 1.56 0 00-1.1-1.659c-.752-.188-1.243.357-1.556.961-.5.96-.925 1.955-1.461 3.1l4.026-.344m93.835-5.257c.608-.173 1.357-.159 1.55-.479a8.76 8.76 0 001.587-5.07c-2.41 1-3.379 2.66-3.137 5.548M21.024 22.786l3.019-.235a3.361 3.361 0 00.249-2.808c-.262-1.111-.866-1.434-1.716-.724a5.18 5.18 0 00-1.2 1.866 8.912 8.912 0 00-.349 1.9m63.163-5.141a8.465 8.465 0 00.368-1.492c.02-.458.044-1.168-.21-1.328a1.83 1.83 0 00-1.514-.087 4.469 4.469 0 00-2.667 3.27l4.023-.363m30.272-2.3l3.758-.39a14.349 14.349 0 00-.233-2.305c-.313-1.162-1.013-1.367-1.921-.605a3.757 3.757 0 00-1.6 3.3m38.349-3.007c.757 0 1.356.033 1.949-.01.53-.038 1.055-.161 1.558-.244a3.5 3.5 0 00-.334-2.264 1.178 1.178 0 00-2.033-.27 4.151 4.151 0 00-1.14 2.788m45.284-2.677a16.8 16.8 0 00.362-2.36c.012-.909-.53-1.215-1.288-.758a5.369 5.369 0 00-2.377 3.335l3.3-.217m-147.3 7.8c-2.043.175-3.231 1.243-3.209 3.017l3-.239c.211-1 .682-1.856.208-2.778m54.724-1.472a12.736 12.736 0 00.075-2 1 1 0 00-1.763-.707 3 3 0 00-1.109 2.972l2.8-.267m-67.8 5.289a15.741 15.741 0 00.1-2.119c-.072-.778-.6-1.025-1.274-.6a4.015 4.015 0 00-2.008 2.994l3.187-.272m103.027-7.987l3.189-.279a2.866 2.866 0 00-1.681-3.349l-1.508 3.628m-48.728 3.66a7.2 7.2 0 001.43.043c.388-.071.926-.213 1.075-.494a.893.893 0 00-.4-1.355 3.423 3.423 0 00-2.106 1.806"/><path d="M208.214 119.991c-3.459.3-6.673.641-9.895.844-4.281.27-8.569.439-12.854.638q-2.968.138-5.939.221c-5.724.167-11.452.265-17.173.5-4.673.191-9.337.565-14.008.806-3.188.164-6.38.251-9.571.344-.711.021-37.649 3.552-38.363 3.521-.6-.027-1.322-.242-1.795 0-1.693.875-2.443-.447-3.273-1.345-.963-1.041-1.716-2.274-2.589-3.4a159.027 159.027 0 01-17.689-29.181 202.447 202.447 0 01-14.771-43.675c-.649-2.95-1.189-5.924-1.766-8.89a10.559 10.559 0 01-.092-1.183c.686-.193.93-.012 1.054.623.59 3.02 1.186 6.04 1.858 9.043a202.388 202.388 0 0013.701 40.735 186.5 186.5 0 0021.212 34.943 3.274 3.274 0 002.866 1.558c2.806-.072 41.843-3.631 44.643-3.782 4.447-.24 8.884-.65 13.328-.933q7.412-.471 14.83-.836c4.013-.2 8.031-.293 12.043-.508 4.117-.221 8.23-.521 12.344-.806 2.96-.2 62.434-5.152 65.653-5.4-21.667-25.963-34.371-55.751-40.074-88.751-4.28 1.28-65.18 5.348-69.482 5.789-4.92.5-9.865.753-14.787 1.229-8.866.856-17.72 1.829-26.586 2.69-4.269.414-44.775 4.33-49.052 4.655-.516.039-1.038.005-1.557.005l-.024-.367c1.487-.232 39.193-4.162 40.688-4.331q14.1-1.592 28.2-3.137c8.25-.905 16.5-1.858 24.758-2.646 3.439-.328 63.431-4.98 66.889-5.129a9.608 9.608 0 001.608-.382 194.925 194.925 0 0014.877 48.7c7.09 15.547 16.614 29.547 27.3 43.13"/><path d="M211.628 93.604c21.682-1.358 43.377-2.462 65.113-2.954-1.294.144-2.587.306-3.883.429a99.165 99.165 0 01-4.11.323q-11.2.585-22.4 1.139-16.059.768-32.12 1.485c-.874.04-1.751.005-2.626.005l.025-.427M31.893 77.632c10.649-2.1 21.274-4.337 31.958-6.241 5.395-.961 10.893-1.364 16.353-1.928 2.728-.282 5.477-.371 8.217-.523a7.855 7.855 0 012.467.212c-2.426.254-4.851.516-7.278.759a335.137 335.137 0 00-35.364 5.161c-5.052 1.058-10.142 1.938-15.217 2.884a6.129 6.129 0 01-1.1.009l-.031-.33m176.443 1.308l10.954-.893c6.078-.5 12.159-.966 18.234-1.507 8.318-.74 16.623-1.643 24.949-2.262 3.831-.284 7.451-1.364 11.15-2.168a2.954 2.954 0 011.474-.039 9.98 9.98 0 01-1.28.458c-4.242.91-8.463 1.957-12.741 2.648-3.481.563-7.031.7-10.552 1.016-4.763.423-9.524.862-14.29 1.238-5.04.4-10.086.719-15.128 1.091-3.507.259-7.011.556-10.518.812-.743.055-1.494.008-2.242.008zM97.139 99.964c-16.311 2.791-32.382 5.545-48.456 8.275a6.839 6.839 0 01-2.127-.093c16.718-3.1 33.253-7.349 50.583-8.182m128.152 8.555c.306-.648.9-.5 1.436-.524 4.17-.211 8.342-.4 12.51-.641 5.985-.353 11.965-.779 17.95-1.124q10.046-.579 20.1-1.062c1.531-.075 3.068-.011 4.618.047-2.189.24-4.373.557-6.568.7q-8.313.56-16.636.991-12.516.662-25.036 1.248c-2.2.1-4.4.113-6.6.185-.594.02-1.185.11-1.778.168zm-12.914-43.367c.137-.17.263-.478.412-.489 2.571-.19 5.145-.336 7.718-.5 3.946-.258 7.893-.513 11.837-.792 3.837-.272 7.675-.541 11.508-.868 6.734-.575 13.465-1.2 20.2-1.791q4.184-.369 8.371-.7a2.1 2.1 0 011.155.25c-3.912.464-7.816 1-11.736 1.374-4.978.481-9.965.869-14.953 1.242q-7.975.6-15.957 1.085c-6.035.367-12.074.671-18.111 1.011a1.544 1.544 0 00-.445.177zM105.241 113.39c-16.3 2.461-32.774 3.88-48.845 7.806 6.66-2.72 41.894-8.318 48.845-7.806M78.3 42.998a4.444 4.444 0 01-1.042.419c-7.084.911-14.168 1.827-21.259 2.687-5.344.648-10.7 1.207-16.047 1.826-4.527.524-9.05 1.076-13.575 1.615l.032.018c-.092-.688.474-.456.765-.5 4.021-.558 8.041-1.125 12.07-1.623q9.232-1.141 18.474-2.194c6.869-.775 13.744-1.491 20.617-2.233l-.035-.019m128.435-6.288c.16-.169.306-.469.483-.488 5.837-.625 11.668-1.337 17.519-1.793 6.076-.474 12.171-.7 18.259-1.027 4.168-.224 8.338-.431 12.506-.655a21.179 21.179 0 014.112.019c-2.857.261-5.709.591-8.572.767-5.428.332-10.862.564-16.293.86-4.662.254-9.329.45-13.981.834-4.694.387-9.371.974-14.056 1.474zM30.547 64.24c14.309-2.813 28.676-5.211 43.255-6.092L30.547 64.24m10.704 28.29c.207-.155.4-.412.622-.45 6.012-1.005 12.02-2.033 18.044-2.962 6.511-1 13.036-1.92 19.558-2.852.862-.123 1.743-.115 2.616-.168l-.031-.039c-1.323.316-2.631.722-3.97.931-6.792 1.062-13.591 2.079-20.389 3.1-4.784.717-9.572 1.412-14.359 2.116-.707.1-1.415.2-2.122.305l.032.022m243.228 5.765c-.974.046-1.787.132-2.6.1a1.567 1.567 0 01-1.128-.4c-.166-.253 0-.8.146-1.165.261-.642.622-1.244.979-1.936-1.065-.42-1.428.639-2.323.736a2.735 2.735 0 01.319-.594c.612-.617 1.242-1.528 2.2-1.037 1.021.52.474 1.515.283 2.341a1.3 1.3 0 00.031.352c.634.082 1.29.129 1.929.257a1.619 1.619 0 011.5 2.116 4.9 4.9 0 01-2.325 3.453 1.218 1.218 0 01-1.784-.4c.826-1.222 2.658-1.694 2.767-3.817m-21.301-70.228c1.065 1.025 1.109 1.64.085 2.395a7.577 7.577 0 01-1.761.811 1.377 1.377 0 01-1.637-.389 1.221 1.221 0 01.016-1.635 5.213 5.213 0 00.268-.6 2.375 2.375 0 01-.5-.332c-.8-.858-.844-1.512-.183-2.269a1.734 1.734 0 012.628-.41 2.673 2.673 0 00.392.26c1.338.6 1.339.6.695 2.168m-.676-1.324l-1.375-.83-1.479 1.27 1.513.748 1.341-1.187m-1.3 2.944l.117.323a2.589 2.589 0 00.682-.141 3.632 3.632 0 00.617-.492l-.197-.31-1.224.616M45.448 102.979a7.392 7.392 0 001.095-.008 1.53 1.53 0 001.347-1.456c.008-.57-.478-1.151-.763-1.718-.038-.076-.219-.164-.276-.135-1.5.767-1.665-.672-2.269-1.37a8.378 8.378 0 01-.54-.777 5.936 5.936 0 013.732-2.33c-.828.79-1.511 1.406-2.143 2.07a.792.792 0 00-.156.705.725.725 0 00.64.306 1.688 1.688 0 011.948.506 3.973 3.973 0 011.22 2.809 3.4 3.4 0 01-1.6 2.751c-1.2.771-1.891.415-2.236-1.352m180.162-53.039c-.136-.529.25-.487.568-.519 4.858-.488 9.71-1.055 14.576-1.444 5.311-.425 10.634-.7 15.953-1.013a42.756 42.756 0 016.249-.007c-4.2.27-8.4.515-12.6.816-5.478.393-10.956.8-16.429 1.264-2.777.234-5.544.6-8.316.9m59.964 57.726c1.291 3.175 1.979 8.56 1.305 10.027-.867-1.122-.566-2.442-.856-3.6-.3-1.2-.477-2.44-.764-3.964-1.349 1.956-1.817 4.084-3.6 5.659-.1-.525-.294-.939-.177-1.07 1.543-1.723 2.21-3.9 3.194-5.921a7.67 7.67 0 01.9-1.133m-19.48-66.747c.337-.588.172-1.657 1.582-1.428.016.789 0 1.59.057 2.388.053.813.17 1.622.281 2.64-.873-.52-.809-1.347-1.248-1.94-.412.251-.812.538-1.249.753a2.139 2.139 0 01-2.584-.359 2.627 2.627 0 01-.406-2.774 1.866 1.866 0 012.055-1.041 1.662 1.662 0 011.549 1.8c-.436-.313-.841-.806-1.311-.879a1.7 1.7 0 00-1.358.54 1.47 1.47 0 00.092 1.308.94.94 0 001.444.15 8.386 8.386 0 001.1-1.162M68.802 130.126l-1.112-1.622-1.453.374-.192-.264 1.394-.942-1.6-4.032-1.4 1.534c-.763-.627-.151-1.2.112-1.659.757-1.308 1.719-1.29 2.447.025a7.265 7.265 0 011.118 2.534c.07.691 1.233.253.86 1.194-.147.37.388.968.469 1.485a5.029 5.029 0 01-.134 1.316l-.512.056M34.264 70.894a6.047 6.047 0 01-1.118-.06c-.65-.2-.99-.582-.742-1.324.177-.532.28-1.089.416-1.635l-.341-.1-.826 2.093a3.072 3.072 0 01.2-2.57 1.6 1.6 0 01.943-.739c.529-.1.715.372.787.847.082.538.183 1.073.278 1.62 2.192 1.075 2.076 3.131-.353 4.965-.745-.314-.947-.764-.4-1.475.329-.425.625-.877 1.149-1.618m-4.452-11.72l1.252.392a9.261 9.261 0 01-1.231 1.244c-.266.181-.868.3-1.008.148a1.974 1.974 0 01-.547-1.256c.024-1.083.263-2.161.3-3.245a3.529 3.529 0 00-.59-1.953l-.822 2.1a4.206 4.206 0 01.212-2.879c.464-.763 1.311-.8 1.649.045a12.088 12.088 0 01.786 5.4m262.169 60.477c-1.031-2.074-.147-4.306-.792-6.457-.364.054-.675.079-.975.149-1.185.278-1.849-.172-1.688-1.372a31.019 31.019 0 01.889-3.577l.473.086-.54 3.678c2.884-.4 3.093-.229 3.233 2.619a9.655 9.655 0 01-.6 4.875m-19.488-41.463l-1.953 1.828c-.335-1.156.544-1.507.875-2.093a13.026 13.026 0 011.195-1.77c.419-.519.446-1.589 1.678-1.239l-1.391 9.289c-.781-1.137-.856-2.33-.4-6.014M39.982 88.69c-1.107-1.053-.241-2.528-.82-3.933-.41.321-.779.584-1.119.881-.318.276-.605.587-1 .972-.212-.341-.48-.57-.459-.768a56.116 56.116 0 01.835-5.62c.793 1.159-.023 2.48.452 3.682.15-.046.3-.086.454-.14 1.422-.516 2.031-.219 2.129 1.2.084 1.219-.012 2.451-.029 3.677l-.445.045m237.168-11.083c-1.038-.249-1.4.6-2.19.824a8.031 8.031 0 011.248-1.257.986.986 0 011.6 1.024 21.178 21.178 0 01-.761 2.511c.927.492 2.022-.8 3.027.392a8.522 8.522 0 01-1.393.772 12.094 12.094 0 01-2.239.511c-.325.042-.914-.1-.974-.282a1.694 1.694 0 01.2-1.131c.436-.875.963-1.7 1.411-2.573a2.226 2.226 0 00.066-.79M54.719 113.921a10.229 10.229 0 011.616-.454c.933-.088 1.506.592 1.136 1.447a2.924 2.924 0 01-1.229 1.392c-.652.326-1.251-.154-1.671-.711a4.236 4.236 0 01-.86-3.235c.06-.429.16-.969.762-.776.183.059.277.581.3.9a11.537 11.537 0 01-.058 1.437m211.761-63.38c.3 2.505.57 4.788.841 7.07l-.316.119a16.513 16.513 0 01-.926-2 20.222 20.222 0 01-.457-2.408l-1.792 2.735c.3-1.93 1.705-4.907 2.65-5.521m8.973 47.685c.306-2.011 1.738-4.748 2.856-5.52.39 1.369-.252 2.567-.395 3.8-.148 1.277-.344 2.548-.558 4.114-1.182-1.682-.191-3.136-.34-4.879l-1.563 2.489M25.748 38.533c.2 2.2.383 4.306.57 6.414l-.269.083-.944-1.972-.787 2.3-.324-.008a10.014 10.014 0 01.008-1.255c.193-1.512.424-3.018.628-4.529.075-.555.123-1.109 1.118-1.038m242.323 13.74a2.234 2.234 0 012.676-.665c.863.423 1.217 1.674.961 3.064-.261 1.415-.892 2.405-1.536 2.246-1.045-.258-1.386-1.163-1.593-2.107-.177-.806-.325-1.619-.508-2.539m2.045 3.913a2.719 2.719 0 00.869-2.352c-.132-1.376-.957-1.709-2.366-.852.476 1.006.235 2.333 1.5 3.2m3.926 6.517l-.427 6.744c-.992-1.513-.382-2.95-.739-4.517l-1.4 1.575a13.5 13.5 0 011.98-4l.59.2m-4.548.689c.177 2.045.44 4.074-.446 6.044a7719.25 7719.25 0 00-.194-3.687l-1.913 3.2c.222-1.647 1.721-4.931 2.553-5.561m-44.213 45.133h-4.745q0-.125.007-.251l4.738.254M212.371 65.15h-3.208l.011-.242 3.2.243m-3.408-13.591h-1.139v-.006h1.14v.006m13.629-1.313c.184-.162.369-.464.551-.462.82.006 1.639.1 2.46.16l-3.013.3z"/><path d="M206.713 36.697l-2.5.11q0-.158.008-.316c.832.069 1.664.138 2.5.211h-.014m15.885 13.541l-2.4.109v-.273l2.4.163m-14.884 15.24l-1.442.1v-.272l1.375.064.072.1m-4.986-28.427l-1.177.107c0-.066-.008-.133-.012-.2h1.182l.006.093m14.711 13.377l1.376.136-1.325.168-.051-.3m-4.847.816l-1.022.112-.015-.163a4.568 4.568 0 01.582-.025 3.158 3.158 0 01.456.077M78.336 43.018l1.655-.208c0 .1.009.193.014.29-.564-.032-1.129-.063-1.7-.1l.029.016m-51.957 6.529l-1.91.373c.129-.162.252-.458.386-.463a12.774 12.774 0 011.546.1.27.27 0 01-.025-.013m-1.907.377l-1.738.1c0-.086.006-.173.008-.259l1.733.159m14.594 42.764l-1.5.44-.058-.4h1.587l-.033-.04"/><path d="M41.22 92.507l-2.155.181.032.039c.665-.586 1.41-.354 2.15-.2l-.028-.018m40.876-6.413l1.253-.339.049.3h-1.331l.03.038m133.675-35.212l-.969.174-.011-.174zM44.308 136.514l2.143.553a12.845 12.845 0 01-1.109 1.455 2.059 2.059 0 01-2.293.293 1.919 1.919 0 01-.638-2.175c.359-1.095.8-2.163 1.127-3.268a14.486 14.486 0 00.305-2.01l-.429-.127-.772 1.651c-.193-.191-.492-.352-.567-.585a2.022 2.022 0 01.516-1.977 1.678 1.678 0 011.808-.5 1.244 1.244 0 01.925 1.395c-.1 1.193-.292 2.381-.5 3.562a15.436 15.436 0 01-.514 1.73m7.411 1.034c-1.09-1.517-1.355-3.023-1.953-4.781l-1.359 2.9c-.731-.147-.762-.783-.6-1.252a39.109 39.109 0 011.741-4.25.958.958 0 011.729.063 12.367 12.367 0 01.439 7.321m-18.374-30.735l-.126-1.706.24.007c-.042.57-.085 1.141-.133 1.718a.259.259 0 00.02-.019"/></g></svg>