<svg xmlns="http://www.w3.org/2000/svg" width="345.781" height="218.449"><path d="M134.028 4.45s-78.546 9.928-92.041 19.327S5.046 51.667 3.756 71.339s8.861 62.911 69.746 80.354 98.062 17.554 109.7 17.016 49.88-3.839 49.88-3.839 17.981 30.794 37.931 37.668 35.974 12.181 35.974 12.181-33.441-27.808-34.3-39.39-1.673-20.06-1.673-20.06 45.283-12.315 58.134-27.314 21.62-49.022-.836-71.243-35.908-39.945-102.669-47.8-91.615-4.462-91.615-4.462z" fill="#fff"/><path d="M316.2 218.449l-11.617-2.832c-1.265-.308-31.184-7.714-50.234-22.075a80.488 80.488 0 01-22.54-26.863 287.576 287.576 0 01-45.793 3.429h-.442c-16.255 0-31.1-1.065-42.243-2-28.773-2.4-56.181-8.723-79.26-18.272-24.27-10.042-42.7-23.309-53.306-38.368C.514 96.91-2.435 81.092 1.999 64.453c6.488-24.348 27.213-42.1 61.6-52.778C88.57 3.925 120.164-.004 157.511-.004h.7c28.11.037 69.7 1.3 106.171 11.8 19.009 5.472 35.042 13.018 47.652 22.429 14.586 10.891 25.026 24.57 31.021 40.662 4.175 11.206 3.531 25.07-1.767 38.035-5.207 12.743-14.286 23.27-24.91 28.881a67.542 67.542 0 01-10.546 4.833c-1.217.459-2.731 1.03-4.786 1.83-7.027 2.738-14.662 5.326-22.692 7.692-1.1.325-2.227.65-3.359.97a35.459 35.459 0 003.125 20.25c5.773 12.309 28.905 32.926 29.138 33.133zm-80.864-58.388l.921 2.156A74.419 74.419 0 00257.92 188.8c10.85 8.179 25.9 14.1 36.26 17.542-7.555-7.466-17.626-18.3-21.442-26.441-6.5-13.864-3.287-25.475-3.147-25.962l.459-1.6 1.6-.444c1.69-.469 3.379-.952 5.019-1.435 7.87-2.318 15.343-4.852 22.215-7.528 2.085-.812 3.616-1.39 4.848-1.854a62.134 62.134 0 009.867-4.526c9.411-4.971 17.5-14.4 22.186-25.877 4.741-11.6 5.36-23.89 1.7-33.716-5.589-15-15.348-27.779-29.006-37.971-12.035-8.981-27.425-16.208-45.743-21.482-35.752-10.291-76.781-11.53-104.532-11.562h-.694c-36.751 0-67.749 3.839-92.149 11.413C33.052 27.38 13.665 43.744 7.737 65.987 3.777 80.844 6.43 95 15.62 108.054c9.954 14.137 27.493 26.689 50.721 36.3 22.52 9.317 49.313 15.487 77.484 17.841 47.081 3.935 72.4 1.139 89.2-1.737z" fill="#1a1818"/><g fill="#1a1818"><path d="M69.943 40.97l12.826-2.386q-1.789 6.562-2.535 10.365 6.487-5.666 11.858-10.886l9.354 6.087-14.655 13.053 8.208 30.369-13.429 7.163-5.222-28.161q-2.317 12.033-3.735 23.841L60.845 93.69z"/><path d="M123.26 35.303q7.9 0 11.186 8.8a28.13 28.13 0 011.715 9.992 45.883 45.883 0 01-1.566 11.335 53.73 53.73 0 01-9.545 19.239q-8.277 10.738-17.524 10.738-7.98 0-11.334-8.8a27.178 27.178 0 01-1.64-9.694 45.063 45.063 0 011.635-11.486 54.285 54.285 0 019.47-19.314q8.282-10.809 17.603-10.81zm-2.684 18.493q-4.1 0-8.351 6.711a36.254 36.254 0 00-4.772 10.365 20.175 20.175 0 00-.671 4.847 7.955 7.955 0 001.491 5 5.746 5.746 0 004.772 2.163q4.176 0 7.531-4.4a22.342 22.342 0 003.878-8.277 27.744 27.744 0 00.6-11.036q-.899-5.373-4.479-5.373zm6.636 40.267a303.973 303.973 0 0015.361-51.9l17.822-2.908-2.565 27.358 6.98-25.273 17.135-2.981a354.512 354.512 0 00-3.057 43.847v7.681l-15.212 2.69 2.685-32.661-9.768 36.161-8.2 1.119 4.921-45.935-10.592 40.716zm62.041-53.09l12.826-2.386q-7.756 29.9-10.141 51.825l-11.856 3.281zm14.988-.003l12.826-2.386q-1.716 6.562-2.535 10.365 6.487-5.666 11.858-10.886l9.354 6.087-14.655 13.053 8.283 30.369-13.5 7.163-5.222-28.165q-2.317 12.035-3.66 23.845l-11.841 3.276z"/><path d="M263.822 54.169q-2.387.895-5.667 2.163l-5.593 2.162q0-3.5-1.939-3.5-2.76 0-5.518 3.132a5.748 5.748 0 00-1.64 4.474q.223 1.418 2.833 1.417a20.614 20.614 0 003.728-.448 28.083 28.083 0 015.667-.671q6.264 0 7.308 4.325a13.088 13.088 0 01.3 2.833q0 4.773-3.579 10.291a37.815 37.815 0 01-12.975 12.155 16.894 16.894 0 01-8.65 2.61 15 15 0 01-7.606-2.162q1.863-4.475 5.965-13.2a8.793 8.793 0 005.071 1.641 8.683 8.683 0 002.461-.373 19.749 19.749 0 004.4-1.715q2.982-1.64 2.983-3.356 0-1.863-3.058-1.864a31.577 31.577 0 00-6.077.857 31.468 31.468 0 01-6.077.858 7.343 7.343 0 01-4.25-1.044q-2.909-1.938-2.386-6.04.97-8.277 10.663-19.164 9.916-11.185 17.076-11.707 6.935-.447 6.935 10.439a52.741 52.741 0 01-.375 5.887z"/></g><g fill="#1a1818"><path d="M161.404 117.789c-1.934 4.123-3.92 8.806-6.159 14.609-2.647.967-3.716.05-3.716-1.324.051-3.614.764-11.3 1.731-18.529l1.832-.815c1.731-.763 3.055-.1 2.851 1.171-.661 3.97-2.29 10.078-2.9 15.118a126.836 126.836 0 016.974-15.882c.764-1.476 2.85-1.73 4.785.611-2.953 13.8-1.731 17.663-.306 17.663 1.069 0 2.291-.713 3.716-4.174.764-.56 2.036-.2 1.782.713-.916 3.156-3.563 5.9-6.566 5.9-3.977.006-5.347-6.153-4.024-15.061z"/><path d="M187.874 126.239c.764-.56 2.036-.2 1.782.713-.916 3.156-3.563 5.9-6.567 5.956-1.273 0-2.953-.509-3.665-3.258-1.527 2.6-2.953 3.207-4.582 3.207-3.665 0-5.192-3.716-5.192-8.2 0-5.9 3.207-13.031 9.672-13.031 2.189 0 4.937 1.425 4.276 4.683.509.305.865 1.221.3 3.207-1.782 6.16-2.036 10.893.255 10.893 1.074.004 2.301-.709 3.721-4.17zm-9.42-12.166c-2.8 0-4.327 6.821-4.327 11.657 0 2.7.56 4.734 1.629 4.734 1.476 0 3.156-2.545 3.818-10.638a1.116 1.116 0 01-.967-1.375c1.225-1.273 1.886-4.378-.153-4.378zm27.847 4.225c-4.378 8.959-7.075 13.082-8.043 27.794-1.832 1.069-3.665 1.527-3.563.153.051-1.578 3.461-32.884 3.614-34.563 1.069-.764 5.5-3.055 4.887.763l-2.189 13.688c4.428-12.37 6.821-16.594 10.944-12.879-4.785 15.678-2.138 17.154-.713 17.154 1.069 0 2.8-.713 4.225-4.174.764-.56 2.036-.2 1.781.713-.916 3.156-4.073 5.9-7.076 5.9s-6.208-1.414-3.867-14.549z"/><path d="M221.573 118.756c-.764.051-1.527.1-2.189.1a23.332 23.332 0 01-2.494 9.162 1.132 1.132 0 01-2.189-.1 28.188 28.188 0 002.138-9.468c-1.527-.509-2.393-1.731-2.393-4.276 0-2.036 1.426-6.159 4.531-4.683.2 1.934.407 3.818.509 5.7 2.392.051 5.243-.356 6.312-1.069.763.051 1.477.305 1.07 1.679-3 10.436-1.935 14.609-.408 14.609 1.069 0 2.29-.713 3.716-4.174.764-.56 2.036-.2 1.782.713-.916 3.156-3.563 5.9-6.567 5.9-2.393.007-5.804-2.793-3.818-14.093zm2.138-11.148c.865 0 2.545-1.883 4.581-4.429 1.222-.2 1.883.662 1.527 1.171-1.171 1.73-5.039 6.465-7.025 6.465-2.393 0-4.276-4.836-5.243-7.127 2.239-1.68 3.563-1.476 3.868-.56.408 1.324 1.681 4.48 2.291 4.48z"/><path d="M247.838 126.239c.764-.56 2.036-.2 1.782.713-.917 3.156-3.563 5.9-6.567 5.956-1.273 0-2.953-.509-3.665-3.258-1.527 2.6-2.952 3.207-4.581 3.207-3.665 0-5.192-3.716-5.192-8.2 0-5.905 3.207-13.031 9.671-13.031 2.189 0 4.938 1.425 4.276 4.683.509.305.865 1.221.305 3.207-1.782 6.16-2.036 10.893.254 10.893 1.071.004 2.292-.709 3.717-4.17zm-9.417-12.166c-2.8 0-4.327 6.821-4.327 11.657 0 2.7.56 4.734 1.629 4.734 1.476 0 3.156-2.545 3.818-10.638a1.116 1.116 0 01-.967-1.374c1.222-1.274 1.884-4.379-.153-4.379zm3.156-13.184c1.222-1.324 3.207-.051 3.156 1.884-2.7 2.189-5.447 4.276-8.2 6.414a1.069 1.069 0 01-1.833-.865c2.245-2.343 4.791-4.99 6.877-7.433z"/><path d="M256.696 117.789c-1.934 4.123-3.92 8.806-6.159 14.609-2.647.967-3.716.05-3.716-1.324.051-3.614.763-11.3 1.731-18.529l1.832-.815c1.731-.763 3.055-.1 2.851 1.171-.662 3.97-2.29 10.078-2.9 15.118a126.854 126.854 0 016.974-15.882c.764-1.476 2.85-1.73 4.785.611-2.953 13.8-1.731 17.663-.306 17.663 1.07 0 2.291-.713 3.716-4.174.764-.56 2.036-.2 1.782.713-.916 3.156-3.563 5.9-6.566 5.9-3.973.006-5.347-6.153-4.024-15.061z"/><path d="M274.666 126.239c.763-.56 2.036-.2 1.782.713-.916 3.156-3.564 5.9-6.567 5.956-3.207 0-6.108-4.887-2.85-19.191 3.868-1.629 4.734-.509 4.428.814-2.545 10.843-2.953 15.882-.509 15.882 1.071 0 2.29-.713 3.716-4.174zm-.1-25.35c1.222-1.324 3.207-.051 3.157 1.884-2.7 2.189-5.447 4.276-8.2 6.414a1.069 1.069 0 01-1.833-.865c2.241-2.343 4.787-4.99 6.873-7.433z"/></g></svg>