<svg xmlns="http://www.w3.org/2000/svg" width="396.338" height="369.528"><defs><clipPath id="a"><path transform="translate(85.89)" fill="none" d="M0 0h268v355.8H0z"/></clipPath></defs><path d="M206.514 274.928h66s23.3 21.355 51.5 38.355c12.2 7.4 22.356 16.225 33.556 23.525.2.2 5.154 1.834 5.654 2.134 9.6 6.2 6.114 3.774 11.814 8.274 15.1 18.4 9.652.954 21.3 22.312-103.5 0-293.138-.274-396.338-.274 4.6-14.4 6.369-10.137 15.569-22.037 0 0 62.631-36.236 122.7-57.421 24.678-8.7 48.976-14.867 68.248-14.867" fill="#ffbc7e"/><path d="M166.814 23.816l-19.6 23.2h-5.6l-10.6 16.5-4.8 3.4 3.1 5.8-3.1 3.5-5.7 3.9 10.5 36.6-10.5 1.6v8l3.8 2.6 6.7 26.4-1.7 9.1 7.1 5.2v5l-1.8 26.2 12.6 26.4 1.7 37.3-10.2 15 19.7 24.1 26.5 21.1 32.8 2.9 23.9-11.3 21.5-24.2 6.8-12.6-6.8-13.3 5.4-32.6 6.5-10.3 13.7-33 6.5 2.8 6.3-4.6 5.7-24.1 11.8-20.9v-8.2h-7.4v-3.2h-6.5l2.1-5.8 11.8-26.6v-19.7l-7.4-15-4.4-18.1-12-12.2h-17.2l-4.8-14.1a103.763 103.763 0 00-27.7-14.2c-16-5.4-34.7-4.2-34.7-4.2l-25.2 6.7z" fill="#e7c0a3"/><path d="M164.014 130.316s.3 5.5 1.7 6.6 11.7 2.1 11.7 2.1 3.9-4 3.4-6.6-8.2-3.6-10.6-3.3-6.2 1.2-6.2 1.2" fill="#aa5e5e"/><path d="M167.914 129.616s0 3 1.1 3.1 4.8-1 4.8-2.2 1.3-1.6-.8-1.5-5.1.6-5.1.6" fill="#fff"/><path d="M283.814 134.016s21.3-2.4 23.1-1.9a8.562 8.562 0 003.9 0l2 3-29 7.4zm-143.8-12.3l-8.1-1.2s-1.6 8.1-1.4 10.1c0 .1-.2-3.1 0-2.8.6 1.3 9.5-1.5 9.5-1.5z" fill="#904343"/><path d="M171.014 201.416s23.1-.7 26.4.7a23.692 23.692 0 0011.2 1.2c2.3-.5 3.1-1.8 7.9 0s18.5 6.9 18.5 6.9-14.9.1-28.2-1.3c-10.9-1.2-12.4-.7-15.3-1.2-5.1-.8-20.5-6.3-20.5-6.3" fill="#deab98"/><path d="M225.014 123.716s-18.7 9.4-15.4 16.6 17.8 20.4 21.5 18.2 30.2-6.7 29.5-9.1-23.9-15.3-29.5-16.8-6.1-8.9-6.1-8.9" fill="#c98c75"/><path d="M235.014 135.816s-.4 7.3 0 8.5 12.9 3.6 14.8 1.4 6.3-4 3.6-5.8-10.8-4.1-11.8-4.1z" fill="#aa5e5e"/><path d="M239.814 135.916s4.2 4.1 5.2 3 2.3-1.1 0-2a18.426 18.426 0 00-5.2-1" fill="#fff"/><path d="M121.714 118.116l20.8-2.1 29.6 2.1 23 5.6s6.7 2.7 10.7 2.6 12.3-2.6 12.3-2.6 31.7 2.3 41.4 4.4 25.5 4.4 25.5 4.4l-1.9 9.4-7.4-5.7s-34.8-7.9-41.9-8.1-19.5 0-19.5 0l-3.2 8.1 1.2 6.7s-5.9-9-9.1-8.5-8.9 10.3-8.9 10.3-2.5-.9-2-1.8 5.2-11.5 3-13.9-25.2-7.8-30.5-7.8-31.6.3-33.3 1.5-.8 20.2 0 22 4.5 8 6.8 8.4 12.9 7.2 28 6.7 20.8-8.3 22.1-10.4 4.2-6.2 4.2-6.2l2.2.4-1.6 3.6s-10.8 14-15.1 14.5-23.5 1.9-34.3-1.9-12.4-4.7-12.4-4.7l-6.2-26.9s-5.7.6-5.5-1.8a63.249 63.249 0 012-8.3" fill="#904343"/><path d="M212.014 140.116a3.924 3.924 0 012.8 2.9c.4 2.3 2 8.9 2.2 10.3s2.6 7.9 5.9 8.6 32.7 4.7 38.4 3.4 9.2-6.7 9.2-6.7 7.9-14.8 7.7-15.7-1.9-7.2-1.9-7.2l7.7 4.3s-11 28.2-17.4 28.9-41.2-.9-43.7-3.6-13.2-20.2-13.2-20.2l-2.2-9.4z" fill="#904343"/><path d="M188.814 179.516s13.7 3.7 21.7 1.8 12.4-4.7 13.1 1.9 9.1 6.1-5.4 6.8-14 4.9-20 1.5-9.4-12-9.4-12m95-37s-15.1 71.5-26.6 83.2-13.8 19.7-34.9 33.5-31.1 1.1-14.7 5.8 37.6 31.5 49.6 34.8-4.3 6.5 0 0 12.2-20.8 12.2-20.8l-4.6-15.9 4.6-30.3s7.5-7.6 8.6-11.3 11.3-31.2 11.3-31.2 8.1 5 9.9 2 8.4-26 10-29.6 8.2-14.1 8.2-14.1-1.4-10.3-8.2-4-10.9 14-10 15.7-3.2 8.6-2.9 10.2 5.4-2 5.4 0-9.9 11.2-12.3 3.6 6.7-5.1 2-11.4 0-20.2 0-20.2z" fill="#c98c75"/><path d="M163.914 131l1.3 5v1l-8.2-3.5 5.5-3.4zm13.5 7.8l2.9-6.2 2.3-1.2 4.4 7.4-3.1.8zm56.1-1.4l1.3 5v2.1l-11.7-2.6 9.1-5.4zm16.3 9.6l2.9-6.2 2.3-1.2 5.8 5.9-3.1 1.5z" fill="#fff"/><path d="M130.714 116.5l-9.6-31.8 1.1-6.2 3.7-1.2s0-3.4.6-3.4 4.3-1 4.3-1l-3.6-5.7 5.5-4.5 10.2-15.8h6.1l22.2-26.2 22.9-13.6 26.5-4.6s29.1 2.3 38.7 9.1 9.2 4.5 9.2 4.5 9.2 4.8 9 11.5.7 7.2.7 7.2 11.6-3.1 16.9 0 11.8 6.4 13.8 17 5.4 16.6 5.4 16.6 9.4 18.5 6.6 29.9-14.5 32.3-14.5 32.3-2-9.1-5.1-5.8-9.7 7.5-8.6 2.6 1.7-42.9-4.7-54.9-15.1-25.9-21.5-31-6.4-2-27.9-3.7-12.5 6.2-22.8 4.9-55.9 5.4-59.4 11.4-13.4 31.6-11.6 39.5-2.8 22.9-2.8 22.9z" fill="#904343"/><path d="M164.904 202.1s3.7 18.4 5.8 19.9 13.5 9.6 25 10.7 25.8-2.8 26.5-4.2c.7-1.3 6.8-7.8 6.7-9.5s-24.3 4.7-32.1 3.4c-8.8-1.5-28.6-8.5-28.6-13.2a9.108 9.108 0 00-3.3-7.1" fill="#deab98"/><path d="M165.504 201.2s4.5 8.3 6.9 9 11.6 8.7 13.4 9.2 27.7 3.5 31.3 3 10.7-5.3 13.8-6.6a17.3 17.3 0 007.1-5.6h-37.8z" fill="#f9f9f9"/><path d="M164.104 199.3a3.046 3.046 0 002.9 3.7c3.6.6 13.1 6.1 15.5 7.3 1.8.8 5.9-.7 9 .4 5.8 2.1 6 2.6 7.3 2.4a48.044 48.044 0 0115.1-.3c5.8.9 12 5 16 2.6 4-2.5 8-3.2 6.6-4.1s-27.6-1.5-37.4-1c-2.1.1-4.8-1.8-8.2-2.7-11.3-3-26.8-8.3-26.8-8.3" fill="#cecece"/><g clip-path="url(#a)" transform="translate(-.786)"><path d="M132.59 158.9c-.9 2.4-.2 4.5.3 6.6.2.8.5 1.5.7 2.2a2.577 2.577 0 002.1 1.9c.8.2 1.1 0 1.2-.8.2-1.4.4-2.8.5-4.2l.3-1.8c.8.1.7.6.7 1-.1 1.8-.2 3.6-.3 5.5-.2 6.9-.3 13.8-.5 20.7-.1 3-.2 5.9-.2 8.9a16 16 0 001.8 6.8c2.1 4.2 4.2 8.4 6.4 12.6a14.46 14.46 0 01.9 2.2c1.5 3.6 4.1 6.6 6.1 9.9 1.4 2.3 3 4.6 4.5 6.8.9 1.4 1.9 2.9 2.9 4.3-.1-1.3-.7-2.5-.4-3.9 1.7.9 2.1 2.5 2.7 4.1.5 1.3-.6 6.1 0 7.3 1.2 2.5 2.7 4.9 3.8 7.4.6 1.3 1.7 2.5 1.6 4a27.249 27.249 0 002.5 2.3 9.75 9.75 0 002.2.8c3.5 1.2 7 2.5 10.5 3.7a87.836 87.836 0 0014.2 3.9 41.388 41.388 0 0013.6.1 41.281 41.281 0 005-1.5c.6-.2 1.3-.7 1.6.2.3.8-.6.8-1.1 1.1a28.54 28.54 0 01-11.8 2.6 64.972 64.972 0 01-21.4-3.6 73.363 73.363 0 01-8.9-3.3c-4.4-2.1-8.3-4.8-10.5-9.3-.9-1.8-1.6-3.6-2.5-5.4a5.968 5.968 0 00-.9-1.5c-1.5-2.1-1.6-7.5-3.1-9.6-1.7-2.3-3.4-4.7-5.3-7.3v2.2c.1 3.3.2 6.7.2 10v2.8c-.1.8-.3 1.6-.4 2.4-.1 1-.1 2.1-.1 3.1 0 1.6.2 3.2.2 4.8 0 3.4-.2 6.8-.2 10.1a2.782 2.782 0 01-.8 2.1c-1 .9-2 2-3 3a1.38 1.38 0 00-.3.4c-.9 2.2-2.5 3.8-3.8 5.8-.9 1.4-.9 1.7.2 3a108.972 108.972 0 018.3 9.7c1.4 1.9 2.7 3.9 4.2 5.7 2.4 2.9 4.8 5.7 7.3 8.5a81.313 81.313 0 0020.2 16.3 52.928 52.928 0 0014.3 5.5 46.379 46.379 0 0012.3 1.3 48.887 48.887 0 0018.2-3.7 52.957 52.957 0 0011.7-6.9 80.678 80.678 0 008.7-7.8 101.994 101.994 0 0011.2-13.4c2.7-4 5.3-8.1 8-12a2.555 2.555 0 00.1-3c-1.4-3-2.8-6.1-4-9.2-1.1-2.9-.8-5.9-.4-9 .8-7.1 2.6-14.1 3.7-21.1.1-.7.2-1.4.3-2.3-3.3 2.6-6.4 5.1-9.7 7.4a85.361 85.361 0 01-10.4 6.4c-3.5 1.9-7.1 3.7-10.7 5.3-.6-.5-.4-.9-.1-1.2a18.257 18.257 0 011.6-1.3c3.2-2.8 6.4-5.7 9.6-8.5 3.6-3.1 7.2-6.1 11-9 3.3-2.5 6.4-5.3 9.6-8a10.83 10.83 0 003-4 1.8 1.8 0 01.6-.9c2.8-2.7 4.3-6.2 5.8-9.6a210.75 210.75 0 008.3-21.7l1.2-3.9a11.11 11.11 0 01.7-1.6c.6-.8 1.2-.8 2-.2a36.174 36.174 0 003.2 2.2 3.7 3.7 0 003.4.1 9.273 9.273 0 006.2-6.4c.4-1.4.7-2.8 1-4.3a3.113 3.113 0 011.1-1.9 2.09 2.09 0 01.4 1.7 26.936 26.936 0 01-2.6 9.2c-1.3 2.3-2.9 4.3-5.6 5a13.475 13.475 0 01-3.5.2c-1.3 0-2.6-.2-4-.3-1.1 2.3-2.2 4.5-3.1 6.7-1.5 3.8-2.7 7.6-4.1 11.3-1.7 4.4-3.4 8.7-5.2 13a8.8 8.8 0 00-.5 1.5 14.662 14.662 0 01-4.4 8.4 8.011 8.011 0 00-1.9 3.5c-.9 3.5-1.8 7-2.6 10.5q-.6 3-.9 6c-.3 3.2-.6 6.3-.6 9.5a19.013 19.013 0 001.7 8.1c.3.6.5 1.1.8 1.8a2.186 2.186 0 00.5-.3c1.5-1.7 2.9-2 4.9-.9 1.4.8 2.8 1.8 4.1 2.7 4.1 2.9 8.1 5.9 12.2 8.8a10.622 10.622 0 011.1.9c1.3 1 1.4 1.4.6 2.9a2.092 2.092 0 01-.4.6 23.015 23.015 0 005 2.4 12.889 12.889 0 013.2 1.9c1.8 1.3 3.8 2.5 5.7 3.7 7.2 4.4 14.5 8.6 21.7 13.1a120.4 120.4 0 0117.7 13.3c2.5 2.3 4.9 4.6 7.4 6.9a2.042 2.042 0 01.6 2.5c-.4 1.1-1.2 1.2-2 .4-2.4-2.3-4.7-4.7-7.1-7a112.769 112.769 0 00-10.7-8.7 219.609 219.609 0 00-22.7-14.7c-.8-.4-1.5-.9-2.3-1.4-.1.1-.2.2-.2.3a5.3 5.3 0 01.3 5.9 49.636 49.636 0 01-3.5 5.8c-4.3 5.7-8.7 11.3-13.1 17l-10.5 13.2c-2.5 3.1-5 6.1-7.5 9.1a1.05 1.05 0 01-.9.5 4.875 4.875 0 01.3-.7c6.2-8.8 12.7-17.5 19.5-26 4-5 7.9-10.1 11.8-15.2a37.8 37.8 0 002.6-4.3 8.648 8.648 0 00.6-2.3 2.7 2.7 0 00-2.3-3h-.1a16.206 16.206 0 00-2.2-.1c-1.6 0-2-.3-2.4-1.9a3.591 3.591 0 01.1-2.7 6.421 6.421 0 01-1.3-1c-1.9-2.2-4.6-3.1-7-4.5a10.706 10.706 0 01-2.2-1.5c-.9-.7-1.6-1.6-1.1-2.9-2.8-2.1-5.6-4.3-8.4-6.3-2.3-1.7-4.6-3.5-7-5.2a8.989 8.989 0 00-2.4-1.2c-1-.2-1.6.4-1.1 1.4a5.668 5.668 0 01-.4 6c-1 1.7-1.6 3.8-2.6 5.6-1.1 2.1-2.4 4.1-3.6 6.1a120.467 120.467 0 01-12.2 16.2 76.87 76.87 0 01-11.7 11.1c-1.1.8-2.2 1.7-3.4 2.7a2.353 2.353 0 00.8-.2 87.435 87.435 0 0011.7-7.2c1.9-1.4 3.9-2.8 5.8-4.2a90.219 90.219 0 0010.9-9.6c1.6-1.7 3-3.6 4.6-5.4.2-.3.5-.5.8-.9a1.774 1.774 0 01-.5 1.7c-1 1.4-2.1 2.8-3.2 4.1-2 2.2-4.1 4.2-6.2 6.3a119.087 119.087 0 01-13.7 10.9 116.19 116.19 0 01-18.1 10.4 108.371 108.371 0 01-15.9 6 69.689 69.689 0 01-11.2 2.4c-10.9 1.3-20.9-1-29.6-7.8-2.2-1.7-4.3-3.4-6.4-5.1a3.915 3.915 0 01-.8-1 2.863 2.863 0 012.2.6c3.3 1.6 6.6 3.4 9.9 5a62.085 62.085 0 0013.9 4.9 41.337 41.337 0 0011.1.4 78.621 78.621 0 0014.4-3.1c.1 0 .2-.1.4-.3a2.768 2.768 0 00-.9-.1 47.512 47.512 0 01-12.5.6 61.178 61.178 0 01-20.2-5 65.045 65.045 0 01-15.2-9.6 103.718 103.718 0 01-13.5-13 81.071 81.071 0 01-8.9-12 24.129 24.129 0 01-2.5-5.1c-.7-2.4-2.2-4.2-3.4-6.3-.9-1.5-1.7-3-2.6-4.5-1 .3-1.2 1-1.5 1.6a74.441 74.441 0 00-4.2 7.9 15.262 15.262 0 01-3.6 5.1 8.745 8.745 0 01-1 .8l.9 1.5c1.3 1.3 2.5 2.7 3.9 3.9 3.9 3.6 8.1 6.8 12.3 10 .4.3.7.6 1.1.9l.3.6c-.3-.1-.7-.2-1-.3a78.576 78.576 0 01-12.5-8.1 39.359 39.359 0 01-6.5-6.4 4.708 4.708 0 00-1.5-1.3 2 2 0 00-1.3-.2 9.612 9.612 0 00-2.8 1.1 31.879 31.879 0 00-4.2 3 15.537 15.537 0 01-10.8 4.3 3.075 3.075 0 00-2.8 1.2 14.877 14.877 0 01-6 4.2c-3.1 1.3-6.2 2.5-9.3 3.7a2.92 2.92 0 01-.9.2c-.1-.4-.3-.9-.4-1.3-.1-.5 0-1.1-.1-1.6-.4-1.7.3-1.8 1.5-2.2 2.9-1 5.8-2.1 8.7-3.1a13.766 13.766 0 004.2-2.5 6.22 6.22 0 014.7-1.5 12.1 12.1 0 011.9.1 7.852 7.852 0 004.3-.7c2.2-.8 4-2.4 5.9-3.6a18.859 18.859 0 016-2.6c0-1.7 1-2.3 2.5-2.3a2.305 2.305 0 002-1.1 37.894 37.894 0 006.9-12.4c.4-1.2.7-2.3 1.1-3.5s1-1.3 2-.6a13.223 13.223 0 006.1 2.2 30.194 30.194 0 003.4-6.7c.3-.8.6-1.7.9-2.5a7.789 7.789 0 00.4-2.1c.1-2.6.2-5.1.1-7.7-.1-2.9-.4-5.7-.7-8.6-.3-3.1-.5-6.2-.8-9.4-.2-2.4-.4-4.9-.7-7.3a11.429 11.429 0 00-.9-3 54.4 54.4 0 01-3.2-7.9 21.4 21.4 0 00-1-2.2c-1-2.1-2-4.3-2.9-6.4-.8-1.7-1.6-3.4-2.3-5.2a18.345 18.345 0 01-1.5-7.3v-1.9a69.92 69.92 0 01.6-9.2c.4-3.4.5-6.8.7-10.1.1-1.7.3-3.3.5-5v-1.6a6.63 6.63 0 01-5.1-2 8.861 8.861 0 01-2.3-5.1 4.844 4.844 0 012.4-5l.2-1.5c-1.2-1.2-2.9-1.7-4-3.4l2.6.3c-2.7-7.7-3.1-15.8-4.2-23.8-.6-.2-1.2-.3-1.8-.5-1.4-.3-2.8-.7-3.3-2.1a7.6 7.6 0 01-.5-3.3 45 45 0 01.8-5.1c.1-.6.1-1.3.2-2.3a2.119 2.119 0 012-.5 23.493 23.493 0 007-.2l.9-.3a8.488 8.488 0 00-.9-2.2 77.043 77.043 0 01-4.5-11.2c-1-3-2.2-5.9-3.1-8.9-1.1-3.7-2.2-7.5-1.9-11.5a16.6 16.6 0 01.3-2.2c.5-1.7 1.3-3.1 3.1-3.6a1.913 1.913 0 001.5-1.6 2.994 2.994 0 01.4-1 1.973 1.973 0 012.2-1.3 2.4 2.4 0 002-.4c-.8-1.3-1.5-2.5-2.2-3.8-1.1-2-.6-3.4 1.5-4.3a6.452 6.452 0 003.2-3.5 37.542 37.542 0 014-7.7 31.124 31.124 0 012.3-2.8c.4-.4.7-.9 1.1-1.3.7-.8 1.3-1.6 2-2.4a5.5 5.5 0 015.7-1.6c.4.1.7.1 1.3.2 7.5-13.5 18.1-23.1 30.9-31.8a4.075 4.075 0 00-1.8.5 78.015 78.015 0 00-10.8 7.2 63.855 63.855 0 00-11.9 11.9 10.771 10.771 0 00-2.5 5.4 1.877 1.877 0 01-.2-1.9c.6-1.3 1.3-2.6 2-3.9a42.71 42.71 0 017.1-8.2 74.877 74.877 0 0112.7-9.7 69.793 69.793 0 0115.1-7.2 129.067 129.067 0 0119.2-5 41.773 41.773 0 019.3-.8c2.9.1 5.8-.1 8.7.1a71.786 71.786 0 0121 4.1 61.6 61.6 0 0111.6 5.5c1.5.9 2.9 2 4.3 2.9a3.1 3.1 0 001.3.6 12.612 12.612 0 017.5 3.8 21.742 21.742 0 015.9 9.1 12.692 12.692 0 01-.5 10.1 5.319 5.319 0 01-2.1 2.6c-.4-.7 0-1.3.2-1.8a17.8 17.8 0 00-.2-11.4 19.023 19.023 0 00-8.2-9.9 7.741 7.741 0 00-1.6-.7 4.854 4.854 0 00-1.7 0 8.6 8.6 0 00.1 1.6 2.255 2.255 0 01-1.3-1.8 2.087 2.087 0 00-1.1-1.6 65.015 65.015 0 00-14.5-7.1 69.535 69.535 0 00-16.3-3.4c-4.1-.3-8.1-.4-12.2-.3a66.487 66.487 0 00-14.1 1.9 71.568 71.568 0 00-29.6 14.6c-1.3 1.1-2.6 2.1-3.9 3.2l.2.3c.9-.6 1.8-1.1 2.6-1.7a24.291 24.291 0 0111-4.2 3.722 3.722 0 011.8.2 4.951 4.951 0 01-1.3.4c-5.3.7-9.7 3.1-13.8 6.4a56.621 56.621 0 00-11.9 13.5c-3.1 4.8-5.8 7.7-8.2 12.9-2.3 4.8-4.5 9.6-6.7 14.4a13.319 13.319 0 00-.5 1.9l-1.6 2.1c.1-.6.1-1.1.2-1.5a.6.6 0 00-.4-.1 8.162 8.162 0 00-4.9 2.4 17.163 17.163 0 00-5.3 9.3 21.694 21.694 0 00-.3 7.2c.5-1.4.9-2.8 1.5-4.2a9.964 9.964 0 015.2-5.1 1.988 1.988 0 012.1 0l-.9.6c-3.8 1.5-5.6 4.5-6.3 8.2a18.832 18.832 0 00.9 9.1c1 3.4 2.2 6.7 2.9 10.1a29.2 29.2 0 01.3 5.9c0 .1-.1.2-.4.6-.1-.2-.2-.3-.2-.5-.5-4.1-2-8-3.1-12a27.584 27.584 0 00-.8-2.7 49.124 49.124 0 01-1.7-5 22.852 22.852 0 011.9-17.9 15.221 15.221 0 015-5.4 10.944 10.944 0 013.8-1.4 2.055 2.055 0 001.8-1.4c1.2-3.1 2.4-6.1 3.7-9.2 2.7-6.4 5.9-10.6 9.6-16.5 1.3-2.1 2.8-4.2 4.2-6.3-5.6 6.2-10.6 10.9-15.8 17.4-.4-.2-.8-.6-1.1-.5a1.769 1.769 0 00-1.1.7c-1.8 2.3-3.6 4.6-5.3 7a12.887 12.887 0 00-1.7 3.3l1.5-1.6a1.1 1.1 0 01.5 1.7c-.8 1.5-1.6 3.1-2.4 4.6-1.9 3.5-3.8 6.9-5.6 10.4a54.621 54.621 0 00-4.4 13.1 21.718 21.718 0 01-.7 2.4 3.31 3.31 0 000 2.4c1.2 3.2 2.3 6.4 3.6 9.5a32.722 32.722 0 012.6 11.1 1.268 1.268 0 00.1.6c.1.1.1.3.2.4 1.6-.2 3.2-.3 4.8-.5a121.032 121.032 0 0112.1-.6 126.227 126.227 0 0116.3.7 103.652 103.652 0 0117.5 3.2c3.9 1.1 7.8 2.4 11.7 3.6a3.219 3.219 0 012 1.2 1.234 1.234 0 00.8.4c2.8.5 5.5.9 8.3 1.4a16.222 16.222 0 006.2-.3c.7-.1 1.3-.2 2-.3a1.489 1.489 0 01-.6 2c-.1 0-.1.1-.2.1a14.249 14.249 0 01-3.5 1.1 28.969 28.969 0 01-9.3-.3 7.467 7.467 0 01-3.7-2 8.175 8.175 0 00-2-1.2 150.346 150.346 0 00-18.9-5.1 104.791 104.791 0 00-14.8-1.7c-3.6-.1-7.3-.3-10.9-.3-3.9.1-7.7.4-11.6.5-2.4.1-4.9 0-7.3.1a11.626 11.626 0 00-1.8.4 14.16 14.16 0 01-2 .4c-1.4.1-2.9.2-4.3.3-.4.1-.7.1-1.1.2-.1 1.5-.3 3-.3 4.5a2.22 2.22 0 00.5 1.1c.3.5.7.9 1.3 1.7.5.1 1.4.2 2.3.3a2.768 2.768 0 01.9.1c.9.2 1.2.7.8 1.5a3.043 3.043 0 00-.1 2.1c.7 4.1 1.3 8.2 2.1 12.3a45.939 45.939 0 002.4 8.8c.3 1 .6 2 .8 3 1.6.6 3.2 1.3 4.8 1.9 3.9 1.3 7.8 2.6 11.8 3.7a60.029 60.029 0 0010.3 1.8 54 54 0 0012.7-.3h.8c.1 0 .3.1.4.1a1.958 1.958 0 01-1.7 1.1 43.87 43.87 0 01-12 .8 85.506 85.506 0 01-26-5.9 6.518 6.518 0 00-1.5-.5m-4.4-83.9c-.1.4-.2.8-.3 1.3a3.807 3.807 0 01-2.4 3.3 3.447 3.447 0 00-2.2 3.1 19.033 19.033 0 00.6 6.3 17.071 17.071 0 00.7 2.6c.9-3.1 1.6-5.9 2.5-8.6 1-2.8 2.2-5.5 3.3-8.4l-2.2.4m4.3-9.7l-3.1 2c.3 1.9 1.5 3.2 2.7 4.8l4.4-7.3-1.4-.9c-2 2.6-2 2.6-2.9 2.9l.3-1.5m15.2-17h-1.2c-2.7.8-4.4 2.9-6.2 4.9a.367.367 0 00-.1.3c-1 2-1.9 4-2.9 6.1-.1.2-.1.4-.2.6 2-2.5 3.9-5 5.9-7.5.8-1 1.7-2.2 3.4-1.9l1.3-2.5m159 254.7l.1-.4-4.4-2.6a11.547 11.547 0 00-.2 1.6c0 .9.4 1.3 1.4 1.4s2 0 3.1 0m-164-24.9l-3.4-.7c.5 1.3.6 2.4 1.7 3.3l1.7-2.6"/><path d="M215.99 125.7a1.918 1.918 0 011.8-.9c3.6 0 7.1-.1 10.7 0 2.4.1 4.9.3 7.3.5 5.1.5 10.2.9 15.3 1.5 5.9.8 11.9 1.6 17.8 2.6 4 .7 7.9 1.7 11.8 2.5a9.469 9.469 0 003.7.5c.4-.1 1 .4 1.3.7a5.669 5.669 0 01.8 1.3 79.943 79.943 0 0118.8-2.3c.2-2 .4-3.8.6-5.6a.9.9 0 00-.1-.5c-1-1.8-.5-3.8-.6-5.7a47.259 47.259 0 01.4-5.3c.3-3 .7-6 1.1-9a86.007 86.007 0 011.9-8.8v1.2c-.7 4.5-1.5 9.1-2 13.6-.4 3-.4 6-.6 9a10.123 10.123 0 00.2 3 5.239 5.239 0 001.4-3.6c.1-1.3.1-2.7.2-4.2l-.6 1a1.81 1.81 0 01.1-1.6c1-2.2 1.2-4.5 1.8-6.8l3.3-10.5c.6-2.2 1.1-4.3 1.5-6.6a39 39 0 00.4-5.9 7.065 7.065 0 00-1.4-4.2c-.8 2.5-1.4 4.8-2.3 7a39.87 39.87 0 01-2.9 6.7 1.358 1.358 0 01-.2-1.6c.7-3.7 1.5-7.4 2.1-11.1.4-2.9.5-5.9.8-8.9a53.272 53.272 0 00-.3-9.8 51.887 51.887 0 00-1.9-10.3c-.7-2.3-1.5-4.6-2.4-6.8a30.711 30.711 0 00-3.9-6.8 13.317 13.317 0 00-8-5.3c-.5-.1-1.2-.1-1.4-.8.3-.6.8-.4 1.3-.4 4.7.3 8.2 2.8 10.8 6.5a44.391 44.391 0 015.8 12 86.134 86.134 0 012.8 12.2 3.506 3.506 0 00.6 1.4 34.909 34.909 0 015.4 9.6 48.913 48.913 0 013 13.1 42.49 42.49 0 01-1.8 16.6 84.8 84.8 0 01-3.9 9.9c-1.8 3.5-3.7 6.9-5.8 10.3a16.529 16.529 0 00-2.3 4.6c-.2.7-.4 1.4-.6 2.3a8.874 8.874 0 001.4.3 8.084 8.084 0 001.6.1 1.553 1.553 0 011.7 1.3c.1.2.2.5.3.7l6.1 1.1c.6 2.6 1.2 5.3 1.7 7.9.4 2.1-.5 3.9-1.4 5.7a143.162 143.162 0 01-9 15.1 4.958 4.958 0 00-.8 2c-.2 1.3-.7 2.5-1 3.8-.4 2-.8 4-1.1 6-.2 1.2-.2 1.2-1.2 1.8a1.658 1.658 0 01-.6-1.6 29.713 29.713 0 01.8-7.3 18.481 18.481 0 011.7-5c1.5-3.1 2.9-6.3 4.3-9.4.8-1.7 1.5-3.3 2.4-4.9a22.984 22.984 0 01-1.7 4.8c-.6 1.6-1.3 3.1-1.9 4.7h.3c2-3.5 3.9-7.1 6-10.5 2.1-3.5 1.5-7.1.4-10.8a11.324 11.324 0 00-7.7.6 13.266 13.266 0 00-4.9 3.9 91.334 91.334 0 00-6.4 8.6 23.05 23.05 0 00-2.7 6 5.291 5.291 0 01-1.1 2.1 8.95 8.95 0 00-1.7 3.2c-.3.9-.5 1.9-1.7 2.4a1.953 1.953 0 01-1.1-2c.1-2 .1-4 .2-5.9.2-2.6.5-5.2.8-7.8.1-.8-.2-1.7.4-2.4a4.349 4.349 0 00.6-.7c.8.6.5 1.4.4 2.1a85.528 85.528 0 00-.6 10.1 2.146 2.146 0 001-2.4 2.581 2.581 0 01.3-2.1 36.613 36.613 0 015.4-8.6 24.939 24.939 0 003.5-5c-.7.2-1.2.3-1.7.4-3.1 1.1-6.2 2.3-9.3 3.2-1.9.6-3.8.9-5.7 1.3a4.714 4.714 0 01-3.1.1c-.9-1.4-.6-2.9-.4-4.4.2-1.4.3-2.9.4-4.4v-1.6l-2.2-.2c0-.3-.1-.6-.1-.8a.6.6 0 00-.4-.1c-6.8-1.1-13.7-2.2-20.5-3.3-4.9-.8-9.8-1.4-14.8-2.1-3.6-.5-7.3-.9-10.9-1.1-5.1-.3-10.3-.5-15.4-.7a6.882 6.882 0 00-1.3.2 1.1 1.1 0 01-1.1-.7m103-32.6a1.387 1.387 0 010 .9c-.9 3-1.8 6.1-2.9 9.1a4.628 4.628 0 01-1.3 1.8 29.392 29.392 0 00-3.5 4.4c-2.3 3.1-2.7 6.7-2.7 10.4.2-.1.3-.1.4-.2 1.7-3 3.5-5.9 5.1-9a40.242 40.242 0 004.6-13.4c.3-1.3.9-2.7.3-4a2.994 2.994 0 00.4-1 29.751 29.751 0 00-.4-7.9 42.051 42.051 0 00-4.3-13.4 9.381 9.381 0 00-.9-1.2V73c-.1 2.1-.3 4.2-.4 6.2a2.276 2.276 0 00.4 1.6 8.594 8.594 0 012.1 6.1 26.8 26.8 0 01-1.7 9.7c-1.2 3.3-2.3 6.6-3.4 9.9a30.053 30.053 0 00-.7 3.2c0 .1 0 .1.1.1h.2a22.186 22.186 0 013.9-5.7 4.532 4.532 0 001.1-1.9c.5-1.3.9-2.7 1.5-4a42.382 42.382 0 012.1-5.1m-33 43.7v6.3l1.5-.3c4.2-1.3 8.4-2.5 12.6-3.9 2.5-.9 5.2-1.2 7.5-2.7a6.943 6.943 0 011.3-.5c.8-.3 1.6-.5 2.4-.8-.2-.7-.3-1.3-1.2-1.1-1.3.2-2.7.3-4.1.5-4.7.5-9.5 1-14.2 1.6-1.8.2-3.7.6-5.8.9"/><path d="M293.59 127.7a6.752 6.752 0 01-.2-1.4c0-4 .1-8 0-12.1 0-2.3-.2-4.6-.4-6.9-.3-3.5-.7-7.1-1.2-10.6a127.815 127.815 0 00-3.8-18.4 89.6 89.6 0 00-4.3-12.3 56.539 56.539 0 00-6.8-11.3c-1.3-1.6-2.8-3-4-4.7a8.377 8.377 0 01-1.1-3c-.2-.8 1-1.5 1.9-1.4a4.49 4.49 0 013.1 1.6c.2.2.3.4.6.7a8.119 8.119 0 016.5-5.2 5.516 5.516 0 015 2.2 17.9 17.9 0 013.4 5.6 69.162 69.162 0 014.5 17.9c.4 2.7.6 5.5.9 8.2a2.768 2.768 0 01-.3 1.3c-.1-.3-.3-.5-.3-.8-.6-2.9-1.1-5.8-1.7-8.8-.1-.4-.2-.7-.3-1 .8 6.5.3 13-.5 19.6a7.017 7.017 0 01-.3-2.9 77.5 77.5 0 00-.5-18 26.137 26.137 0 00-3.3-10.1 8.675 8.675 0 00-3.6-3.5c-2-1-3.9-.6-5.9.4.6 1.1 1 2.1 1.6 3.1a50.666 50.666 0 014.8 10.6c1.3 3.9 2.5 7.8 3.5 11.7 1 4.3 1.7 8.6 2.4 12.9.6 3.7.9 7.4 1.6 11.1V97a14.154 14.154 0 01.4-2 1.816 1.816 0 01.6 1.4c0 2.4-.1 4.8-.1 7.1.1 3.1.2 6.3.4 9.4 0 .6.1 1.1.1 1.7.1 2.3.2 4.6.4 6.9v1.5h-.4c-.3-2.4-.7-4.7-1-7.1h-.1c-.1 3-.2 6-.4 9.1a3.029 3.029 0 01-1.2 2.7m.4-67a2.2 2.2 0 00-.1-.8c-.8-2.6-1.5-5.2-2.3-7.8a17.723 17.723 0 00-3-5.6 9.516 9.516 0 00-2.1-1.9c-2.2-1.2-6.4.3-7.6 2.6-.4.7-.2 1.2.6 1.4.5.2 1.2 0 1.6.7l-2.3.2 1.7 2.7c.3-.1.6-.3.9-.4a6.222 6.222 0 014.2-.9c2.4.3 3.9 1.8 5.2 3.5a23.416 23.416 0 013.2 6.3m-61.8 56.9c-.6.4-1.2.7-1.8 1.1a1.829 1.829 0 01-2.6-.5c-.1-.1-.1-.2-.2-.3-.5-1.3-.9-2.7 0-4.1a3.6 3.6 0 00.2-1.1c0-.2 0-.5.2-.6 1.2-.7 1.4-2 2.1-3.1.1-.2.4-.3.6-.4.9.5-.1 1.4.7 2 .3-.1.7-.2 1-.3.5-.2.9-.6 1.4-.8.9-.4 1.3-.3 1.8.6.3.6.9.9 1.2.7.9-.6 1.9 0 2.8-.3a13.52 13.52 0 012.9-.5l.4.9 2.7-1.6.2.2-1.5 1.6.1.3a2.353 2.353 0 00.8-.2c.8-.5 1.5-1.1 2.3-1.6.4-.2.7-.4 1.1-.6.2 1-.8 1-.9 1.6a4.768 4.768 0 002.2-1.2c.6-.3 1.2-.7 1.5.3l1.7-.8c.3 1-.6 1.1-.9 1.6 1.4-.3 2.8-.7 4.2-.9.9-.2 1.2 0 1.7 1.1.2.3.4.5.6.8l1.6-.9 2.5 1 1.2-.7c.8.7 1.6 1.4 2.8 1.1.2 0 .3 0 .4.1a21.8 21.8 0 012.8 2.5 13.788 13.788 0 011.4 3v.8a3.593 3.593 0 00-2.5.1 1.34 1.34 0 01-1.4-.5 5.454 5.454 0 00-3.5-2c-.4 0-.7-.5-1.2-.8l-2 2c-.8.7-1.6 1.2-2.7.7-.2-.1-.6 0-.9 0-.4 0-.7.1-1.1.1-2.2.1-4.3.2-6.5.2a2.768 2.768 0 00-.9.1 9.532 9.532 0 01-5.3 1c-1.2 0-2.3.1-3.5.2a11.6 11.6 0 01-6.1-1.3c-.7-.3-1.1-.4-1.6-.6M225.99 13a30.111 30.111 0 00-6.6-2.2c-.1-.8.4-.9.8-.8a21.979 21.979 0 013.7.6c1.9.6 3.7 1.5 5.6 2.2a24.727 24.727 0 003.6 1.1 44.463 44.463 0 0115.9 7 49.9 49.9 0 0111.3 10.7c2.1 2.7 4 5.5 4.7 9a1.24 1.24 0 01-.4 1.5 19.38 19.38 0 00-3.3-7.5 44.8 44.8 0 00-6.3-7.4 46.632 46.632 0 00-15.9-10.2l-1.8-.6h-.6c1.4.9 2.7 1.7 3.9 2.5a79.746 79.746 0 0110.3 8.1 42.691 42.691 0 015.7 6.3 9.373 9.373 0 012 4.7 5.538 5.538 0 01-.2 1.8c-.5 1.6-1.1 1.7-2.5.4 1-2.5-.1-4.6-1.5-6.6a48.845 48.845 0 00-8.7-8.9 41.3 41.3 0 00-17.1-8.9 27.447 27.447 0 00-5-.8 54.254 54.254 0 00-7-.1 44.169 44.169 0 00-13.4 3 62.875 62.875 0 00-11.1 5.3 98.576 98.576 0 00-10 6.9c-4.2 3.2-8.3 6.7-12.4 10.1-2.4 2-4.8 1.9-7.2 3.9-1.1.9-2.3 1.9-3.4 2.8a1.431 1.431 0 01-1.1.3 5.241 5.241 0 011-1.1c2.5-2.3 5.1-2.6 7.5-5 1.7-1.6 3.1-3.4 4.7-5.1a116.883 116.883 0 0120.6-18.6 61.349 61.349 0 0112-6.7 22.348 22.348 0 017.7-1.9 6.118 6.118 0 013.9 1.1 1.21 1.21 0 01-1.5.3 9.891 9.891 0 00-5.9.3 49.788 49.788 0 00-13.3 6.5 115.039 115.039 0 00-13 10c-2.3 2-4.5 4.1-6.7 6.2a1.267 1.267 0 00-.4.9c.6-.5 1.2-.9 1.8-1.4 3.9-3.2 8-6.2 12.2-9a79.7 79.7 0 0112.3-6.4 48.638 48.638 0 0111.7-3.3c2.5-.4 5.1-.4 7.7-.6l-1-.3c2.2 0 4.5-.2 6.7-.1m5.1 2.6c-1.6-1.4-3.5-1.4-5.4-1.3z"/><path d="M209.19 43c1.6-.1 3.2 0 4.7-.2 1.6-.2 3.2-.5 4.8-.8a6.191 6.191 0 001.9-.7 1.648 1.648 0 001.1-2.1 1.794 1.794 0 00-.5-.7 15.37 15.37 0 00-1.9-1.7 16.277 16.277 0 00-6.1-3.2l3.5 3.3a3.2 3.2 0 01-.7.1c-1.2-1-2.4-1.9-3.5-2.9-.3-.3-.6-1-.5-1.2a1.612 1.612 0 011.3-.6 17.873 17.873 0 013.9 1.3 26.96 26.96 0 014 2.5 9.579 9.579 0 012 2.5c.8 1.6.2 1.6-1.3 2.5a11.37 11.37 0 01-3 1.3 68.25 68.25 0 01-11.9 1.7q-4.8.3-9.6.9c-3.3.4-6.6.7-9.9 1.2q-5.1.75-10.2 1.8a45.467 45.467 0 00-10.8 3.5 41.469 41.469 0 00-5.3 3.2c-2.1 1.4-4 3-6.1 4.5-.2.1-.5.2-.7.3 0-.4-.2-.7-.1-.9a15.623 15.623 0 016.3-8.6 35.69 35.69 0 017.1-3.4 98.9 98.9 0 0117-3.6c4.6-.6 9.2-1 13.7-1.2 2.7-.1 5.5-.3 8.2-.5.7-.1 1.5 1.8 2.2 1.6zm-54.6 60.3l-.6-1c1.1-.5 2-1.4 3.3-.5l1.8-1.7 1.8 1.2.1-.1-.9-1.3 1.6.5c1.7-1.2 2.7.7 4.1 1-.3-1.1-1.9-1.4-1.9-2.9a2.769 2.769 0 01.9.1c.7.3 1.2.8 2.1.5.3-.1.9.3 1.3.5.8.5 1.5 1.1 2.6 1.9-.3-.8-.6-1.3-.8-1.9 1-.2 1.4.6 2.1 1a1.391 1.391 0 011.9 0c.1.1.2.1.3.2 2.4.6 3.9 2.4 5.5 4.1a1.136 1.136 0 00.8.3l-1.6-2.4a4.818 4.818 0 011.2 0 2.7 2.7 0 01.8.7 1.282 1.282 0 001.7.5c.1 0 .1-.1.2-.1.7-.5 2.1.1 2.9 1a12.13 12.13 0 011 1.4c.7 1.1 1.5 2.3 2.4 3.7-.3-1.8-1.1-3.2-1-4.7l.5-.1.8 1.6.8-.4a6.806 6.806 0 011.3 3.2c.1.6.3 1.1 1.2 1a1.984 1.984 0 00-.3-1.8c-.3-.4-.2-.8.4-1a5.086 5.086 0 011 3.2c0 1.1-.2 2.2-.2 3.3a1.922 1.922 0 01-1.3 1.8c-.9.3-1.4-.3-1.9-.8-.1-.2-.2-.3-.3-.5-.9 1-1.9.7-3 .4a41.54 41.54 0 01-6.9-2.8c-1.5-.8-3.1-1.4-4.6-2.1-1.9-1-3.7-2-4.7-4a1 1 0 00-.5-.4l-1.3.9a12.877 12.877 0 01-1.7-1.6c-.6-.6-1.2-1.2-2.2-.9a1.421 1.421 0 01-.6-.2l-1.1 1-1.4-.8-1 .5c-.8-1.4-2.2-.5-3.4-.9l-.8 1.1a.9.9 0 01-.5-.1 12.409 12.409 0 00-1.9-1.6m70.7 37.9c.9-.6 1.8-1.3 2.7-1.9a2.178 2.178 0 00.8-.5 15.976 15.976 0 014.5-2.3c.4-.2.6-.6 1.1-1a28 28 0 017.1.3 30.432 30.432 0 015.2 1.3 21.691 21.691 0 003.5.7c-3.8-1.8-7.9-2.4-12-3.3v-.3a3.178 3.178 0 01.9-.3c7.8 1.1 15.3 3.1 21.2 8.6a6.034 6.034 0 01.8.8 4.129 4.129 0 01.7 1.1c-2.5-1.4-4.6-3.4-7.4-4.7a3.581 3.581 0 001.5 1.9c1.8 1.3 3.6 2.6 5.4 3.8a2.652 2.652 0 01.6.5.76.76 0 010 1c-.1.1-.2.1-.3.2a1.866 1.866 0 01-1.9-.4c-1.5-1.2-2.9-2.4-4.4-3.6-.2-.2-.3-.5-.5-.6-.6 2.4-1.6 4.3-3.8 5.3 1.6.4 3.1-.2 4.8-.2-.2.3-.4.7-.6.7a10.621 10.621 0 01-1.9.4 54.352 54.352 0 01-21.5-3.2l-1.3-.4a.367.367 0 01.1-.3l4 .7c.1-1.2-.7-2.2-.8-3.3a18.189 18.189 0 010-3.3 2.289 2.289 0 00-2.1.4 32.386 32.386 0 00-3.2 1.7c-1.4.8-2.9 1.6-4.3 2.4-.4.2-.8.4-1-.2zm21.4-2.2l-.6-.3c-2.2-.5-4.2-1.5-6.6-1.5a3.111 3.111 0 00-3.4 2.5 19.51 19.51 0 00.1 5.9c2.1.9 11.1 2.2 14 2-.2-.7.3-1.2.7-1.6a6.776 6.776 0 001.7-3.5 1.43 1.43 0 00-.7-1.7c-1.2-.5-2.5-1-3.8-1.5a2.116 2.116 0 00-.1 2.7c-2 2.7-6.9 2.5-9-1l.9-.5a12.033 12.033 0 010-1.9 1.419 1.419 0 01.8-.9c.5-.2.7.2 1 .5a3.374 3.374 0 004.7.8c.2.1.2 0 .3 0m-68.7.4a22.631 22.631 0 011.3-2 5.134 5.134 0 001.1-4c-.1-1.1-.5-1.5-1.6-1.5h-1.9c-.2.5-.3 1-.5 1.5-.4 1.3-1.2 1.7-2.3 2.4-1.7 1-4.5.1-4.8-1.8a1.188 1.188 0 011-1.2 8.6 8.6 0 011.6-.1 1.2 1.2 0 001.3-1v-.1a2.016 2.016 0 00-1.1-.3 34.165 34.165 0 00-6.3.9c-.5 1.4-.1 2.1.5 3.2 2.1 3.7 1.2 3 5.3 3.7 2.9.5 5.9.9 8.8 1.2a32.3 32.3 0 004.4 0 2.28 2.28 0 01-1.9.7 48.737 48.737 0 01-10.1-1c-1.3-.3-2.7-.5-4.1-.7a6.883 6.883 0 01-1.3-.2c-1-.3-2-.7-3.1-1l.7-.5a7.244 7.244 0 01-1.4-5.1c-1.3.9-2.3 1.1-3.5 1.9l3.3 2.9a9.151 9.151 0 01-4-.7 10.64 10.64 0 01-2.5-.9 6.852 6.852 0 01-1.7-1.7 1.374 1.374 0 01.4-1.1 2.994 2.994 0 01.8-.4c1.1-.5 2.4-.4 3.4-1.2 1.1-1 2.3-.6 3.5-1a27.645 27.645 0 0111.8-1 75.252 75.252 0 018.3 1 2.972 2.972 0 012.2 2c.1.5.7.8 1 1.2 1 1.3 2.1 2 3 3.4.6.9.5 1-.4 1.8a2.651 2.651 0 00-.5.6c-.8.9-1.2.9-2-.1a16.177 16.177 0 01-1-1.8 16.892 16.892 0 00-3-3.6c-.1.4-.3.2-.2.5a5.359 5.359 0 01-1.1 4 2.537 2.537 0 01-3.4 1.1"/><path d="M136.79 123.3a8.651 8.651 0 01-1.7.7c-1.9.4-2.6 1.8-2.7 3.5v3.9c-.1 2.9-.2 5.8-.2 8.8a23.759 23.759 0 00.6 3.7 13.178 13.178 0 003.5 6.7 13.5 13.5 0 001.1.9 5.019 5.019 0 00.2-1.2 69.763 69.763 0 011.2-11.2c.6-3.3 1-6.6 1.4-9.9.2-1.3.4-2.7.6-4 .1-.5.1-1 .8-1a1.272 1.272 0 01.9.7c.2.8.7 1 1.3 1.2 2.4.9 4.7 1.9 7.1 2.8.5.2.9.4.8 1.2-3.3-.4-6-2.2-9-3.9-.1 1.3-.2 2.3-.3 3.4-.5 4.7-.8 9.4-1.4 14a70.255 70.255 0 01-2 7.9c-.1.3-.1.6-.2 1a41.815 41.815 0 009.8 5.7c6.9 2.5 14 3.1 21.3 3.2a25.36 25.36 0 007.3-1.2 5.5 5.5 0 012.2-.2 2.651 2.651 0 01-.6.5 23.639 23.639 0 01-8.7 1.7c-4.3-.1-8.6-.2-12.8-.6a38.731 38.731 0 01-16.5-5.7 31.1 31.1 0 01-3.8-2.5 25.022 25.022 0 01-3.4-3.9 9.68 9.68 0 01-1.4-3.3c-.4-1.8-.7-3.6-1-5.4 0-.2-.1-.4 0-.6.6-2.4-.1-4.9-.1-7.3 0-1.9 0-3.8.1-5.6a4.79 4.79 0 011.6-3.5 4.029 4.029 0 014-.5m32.8-81.1c1-1 2-2.1 3.1-3.1a69.812 69.812 0 0110.5-8.1 41.808 41.808 0 0115.7-5.7 42.411 42.411 0 0113.3.3 73.888 73.888 0 0124.9 9.5 65.056 65.056 0 016.8 4.9c1.4.9 2.2.5 2.2 2.1a1 1 0 01-.4-.5c-1.3-1.8-2.9-1.4-4.8-2.5a68.6 68.6 0 00-11-5.9 72.233 72.233 0 00-14.9-4.9 46 46 0 00-9.8-1.1 36.7 36.7 0 00-13.9 2.8 86.512 86.512 0 00-13.7 7.5c-2.3 1.5-4.6 3.2-6.9 4.8-.3.1-.5.3-.8.4zm49.1 117.5c-1-2-2.1-4-3-6-.6-1.2-1.1-2.5-1.6-3.7a10.928 10.928 0 01-.5-1.7c.9.4.9.4 1.9 2.6.4.9.9 1.9 1.4 2.8.2-2.1-1.7-8.7-3.2-11 .1 1.2.1 2.2.2 3.2-.3-.1-.5 0-.5-.1a19.259 19.259 0 01-2.7-7 8.659 8.659 0 01.9-6.1 31.658 31.658 0 012.9-3.5 1.613 1.613 0 01.9-.3c1.7-.1 3.4-.3 5.1-.3 3.4 0 6.9-.2 10.3.1 5 .4 10 1 15 1.7a260.412 260.412 0 0126 5.3c.6.2 1.1.4 1.7.6a1.073 1.073 0 01-1.4.4c-3.1-.6-6.2-1.4-9.3-1.9-6-1.1-12.1-2.1-18.2-3a157.715 157.715 0 00-18.2-1.6c-2.7-.1-5.5-.2-8.2-.4a2.173 2.173 0 00-1.9.7c-.5.6-1.1 1.1-1.6 1.7-1.7 2-1.6 4.4-1.3 6.9a1.012 1.012 0 00.4.7 10.245 10.245 0 012.6 4.2 21.975 21.975 0 012 8.3 26.2 26.2 0 00.1 2.8 5.078 5.078 0 001 2.9c1.5 2.2 2.9 4.4 4.5 6.9a3.527 3.527 0 01-1.2-.5c-.9-1-1.7-2-2.6-2.9-.3-.3-.6-.7-.9-1zm-64.2-94.9c-.1.3-.3.6-.4.9-2.7 3.6-3.8 7.8-4.6 12.1-.3 2.3-.5 4.6-.6 6.8-.3 4.9-.7 9.9-1 14.8a41.474 41.474 0 01-3.3 13 5.547 5.547 0 01-.6.8 3.041 3.041 0 01-.3-2.1 5.961 5.961 0 00-.7-3.9 5.834 5.834 0 01-.6-2.6 45.486 45.486 0 011.1-14.7c.7-3 1.7-5.9 2.5-8.9.1-.2.1-.5.2-.8a34.855 34.855 0 014.3-11.8 24.754 24.754 0 012.8-3.6 4.053 4.053 0 01.9-.5zm-11 42.1h.3l1.8-19.8c-1.9 6.5-3 13.1-2.1 19.8m161.1-39.5a45.981 45.981 0 00.5-6.4c0-2.2 0-4.4-.2-6.6-.1-2.1-.9-4.1-.9-6.1l.5-.1a7.619 7.619 0 01.6 2c.4 2.2.7 4.3.9 6.5a48.647 48.647 0 01-.8 13.2 9.7 9.7 0 00-.1 1.7 45.808 45.808 0 01-.1 11.1 51.049 51.049 0 01-2.9 11.5c-.1.2-.3.4-.4.6a2.118 2.118 0 010-1.9 65.863 65.863 0 001.6-16 72.135 72.135 0 00-1.9-16 50.083 50.083 0 00-5.6-14.3 16.916 16.916 0 00-4-4.9 14.628 14.628 0 00-1.3-.9 2.409 2.409 0 00-3 .1c-.4-.8.1-1.2.6-1.4a3.051 3.051 0 012.3 0 8.859 8.859 0 013.3 2.1 27.007 27.007 0 014.8 6.8 61.507 61.507 0 014.7 12.6c.6 2.1.9 4.2 1.4 6.4m-121.8 116.5a21.162 21.162 0 011.1-2.1 14.623 14.623 0 011.6-1.9c.8-.8 1.4-.9 2.2-.1a16.074 16.074 0 012.2 2.3c.7.8.9 1.9 1.9 2.5a.52.52 0 01.2.4c.6 2.6 2.4 4.6 4.1 6.5 2 2.1 4.4 3 7.3 1.8a2.2 2.2 0 01.8-.1 1.752 1.752 0 01-1.7 1.7 8.2 8.2 0 01-8.4-3.1 33.045 33.045 0 01-2.6-3.9c-.8-1.4-1.5-1.6-3.1-1.5-3.7.3-7.2-.2-10-2.9a10.057 10.057 0 01-2.5-3.9c-5.5 4.2-11.4 7.4-18.2 8.5.2-.1.3-.3.5-.4a68.614 68.614 0 0012.8-5.5 36.223 36.223 0 004.1-2.7 2.56 2.56 0 001-1.3c.3-2.5 1.9-4.3 3.5-6a15.066 15.066 0 012.3-2.1 1.955 1.955 0 011.9-.6c-.2.9-.8 1.1-1.3 1.5a18.594 18.594 0 00-3.9 4.5c-1.5 2.4-1.3 4.1.7 6.1a8.535 8.535 0 003.5 2.3m39.9-16.6a3.4 3.4 0 011-.1c5.5.7 11 1.4 16.5 2 4 .5 8.1.9 12.2 1.1 4.5.2 9.1.1 13.7.3a2.466 2.466 0 002.3-1.2c1.9-2.8 3.8-5.6 5.6-8.4.9-1.4 1.7-2.9 2.6-4.3a31.154 31.154 0 003.4-7.7 6.372 6.372 0 01.2-.7c0-.1.2-.1.3-.3a1.95 1.95 0 010 1.5 46.368 46.368 0 01-7.4 16.3c-.8 1.2-1.6 2.3-2.5 3.5l.6.9c-.1.1-.3.2-.4.3-2.2 1.1-4.7 1.2-7.1 1.3a163.556 163.556 0 01-19.8-.3 89.3 89.3 0 01-15.4-2.2c-2-.5-4-1.1-5.9-1.6.1-.1.1-.2.1-.4m-27.6-25.2v-2.3c.1-2.9.1-5.7.2-8.6a1.975 1.975 0 00-1.2-1.8 38.89 38.89 0 00-9.4-3.3 80.509 80.509 0 00-21.9-2.5c-6.4 0-12.7 0-19.1.1h-1.7a.367.367 0 00-.1-.3c.2-.1.4-.4.6-.4 3.3-.4 6.5-.7 9.8-1a74.9 74.9 0 0111.6-.2c9.7.4 19.2 1.8 28.2 5.6.5.2 1 .5 1.4.7s.9.5 1.4.1a1.12 1.12 0 011.5.3.367.367 0 01.1.3 11.244 11.244 0 011 3.1 17.316 17.316 0 01-1.9 10c-.1-.1-.3 0-.5.2m27.4 88.1a4.921 4.921 0 01-2.8 2.3 17.273 17.273 0 01-5.5 1.5.9.9 0 00-.5.1c-4.8 1.6-9.6 1-14.5.4s-9.6-1.6-14.4-2.3a12.216 12.216 0 01-5.5-2.3c-.8-.5-1.5-1.1-2.3-1.6a16.761 16.761 0 01-5.3-5.3c-.1-.3-.2-.6-.3-1 .9-.1 1.2.5 1.5.9a23.429 23.429 0 004.9 4.5 11.562 11.562 0 004.7 2c6.9 1.4 13.9 2 20.9 3.1a5.682 5.682 0 013.3 1.1 2.082 2.082 0 001.3.3 21.334 21.334 0 007.5-1.1c2-.7 4-1.6 6-2.4a2.958 2.958 0 001-.2m93.8-85.4l-1.1.5c-.1-.1-.2-.1-.2-.2-.2-.5.4-1.2-.4-1.4a2.787 2.787 0 00-1.8.1 23.054 23.054 0 00-3.6 2.5 76.637 76.637 0 00-5.7 5.7c-1.2 1.2-2.3 2.6-3.5 3.9-.1.1-.3.3-.3.4.2 1.2-.7 2.2-.6 3.3a4.284 4.284 0 00.5 1.6c.9 1.6 1.6 3.2 1.1 5.1a27.03 27.03 0 01-1.4 4c-.2.5-.5 1-.7 1.5l.2.2 2.5-1.7a1.4 1.4 0 01.8 1.8 4.024 4.024 0 01-3.9 3.1 1.692 1.692 0 01-1.7-.7c-.5-.6-1-1.1-1.6-1.9.4-.6.9-1.2 1.4-1.9a14.5 14.5 0 002.2-4.5 4.987 4.987 0 00-.6-4.1 5.531 5.531 0 01-.3-4.7 2.507 2.507 0 01.4-.7c2.5-3.1 5-6.2 7.6-9.2a23.366 23.366 0 015.6-4.8 4.756 4.756 0 012.1-.7 1.811 1.811 0 012.4 1.1c0 .1.1.3.1.4a8.926 8.926 0 00.5 1.3m-102.8 45.9c-1.3.1-2.7-.2-4 .5a.731.731 0 01-1.1-.2c0-.1-.1-.1-.1-.2a1.978 1.978 0 01.2-1.1c0-.1.2-.2.3-.3 3.6-2.6 7.3-4.8 11.9-4.9a3.868 3.868 0 013 1.8 2.533 2.533 0 01-.8 2.7 6.5 6.5 0 01-2.2 1.1 26.985 26.985 0 01-4.1.6c-1 .1-2 0-3.1 0m-19.2-45.7a3.585 3.585 0 010 2.5 23.1 23.1 0 01-4 7.4c-.4.5-.8 1.1-1.2 1.7 1.3-.6 2.5-1.2 3.9-.4a1.466 1.466 0 01-1.1 1.7 10.165 10.165 0 00-4.8 4.8c-1 1.7-1.9 3.4-2.8 5.1a5.717 5.717 0 01-.7.8c-.5-1.3-.4-2.4 1-7.6-2 1-3.4 2.8-5.7 3.2l.9-.9c2.7-2.5 5.5-5 8.1-7.5a26.665 26.665 0 005.3-7.6 30.051 30.051 0 001.1-3.2"/><path d="M267.59 165.6l.9-2.4a96.136 96.136 0 015.6-11.1c1-1.7 1.8-3.5 2.7-5.3 1.5-3.1.8-6-.9-8.8a1.792 1.792 0 01-.4-1.4c.9-.3 1.3.4 1.6.9 2.2 3.3 2.9 6.8 1.3 10.5a105.243 105.243 0 01-8.1 15.2 18.394 18.394 0 01-1.7 2.2.85.85 0 01-.5.3zm-48.1 26.8a6.72 6.72 0 011.2-.6c2.1-.8 4.3-1.6 6.4-2.3a3.858 3.858 0 001.7-1.1 7.1 7.1 0 001.7-6.4 28.467 28.467 0 00-1.1-3.9 4 4 0 00-2.2-2.7 1.779 1.779 0 01-.7-.8c-.4-.9.1-1.5 1-1.3a5.072 5.072 0 011.6.9 10.512 10.512 0 012.7 4.4 12.143 12.143 0 01.6 8.6 5.938 5.938 0 01-1.8 2.9 4 4 0 01-1.8 1c-1.7 0-3 1-4.6 1.3-1.2.2-2.4.5-3.6.6a4.1 4.1 0 01-1.1-.1zm-16.9-168.6c.7-.3 1.4-.7 2.1-1 4.4-1.7 8.8-3.4 13.5-4.1 6.2-.8 12 .1 17 3.9a21.861 21.861 0 016.6 7.9 10.924 10.924 0 01.5 1.7l-.3.1a5.546 5.546 0 01-.6-.8 18.621 18.621 0 00-3.2-4.7 20.241 20.241 0 00-12.9-6.8 34.045 34.045 0 00-13.8 1.3c-2.7.8-5.4 1.7-8.2 2.5-.2 0-.5.1-.7.1.1 0 .1 0 0-.1m66.5 16.8a24.863 24.863 0 00-3.1-5.8 45.23 45.23 0 00-5.9-7.2 61.073 61.073 0 00-20.9-14.2 85.976 85.976 0 00-11.2-3.6 3.4 3.4 0 01-1.5-.7c.2 0 .4-.1.5 0a69.38 69.38 0 0111.1 2.8 57.835 57.835 0 0115.2 8.4 55.69 55.69 0 019.9 9.5 64.51 64.51 0 014.7 6.9 14.762 14.762 0 011.2 2.9 1.7 1.7 0 010 1"/><path d="M270.49 35.9c-.2-.4-.5-.8-.7-1.2a33.1 33.1 0 00-4.9-7.8 43.659 43.659 0 00-10.6-9 85.221 85.221 0 00-18.2-8.2c-1-.3-1.9-.7-2.9-1.1l.1-.3c1 .2 1.9.4 2.9.7 3.5 1.2 7.1 2.2 10.5 3.6a47.629 47.629 0 0115.1 9.5 38.673 38.673 0 015.3 6.2 58.923 58.923 0 013.2 5.4 2.877 2.877 0 01.5 2zM226.09 164c1.1.1 2.3.3 3.4.5 3.4.6 6.9 1.3 10.3 1.8 2.9.4 5.9.7 8.8 1a43.413 43.413 0 005.1.1c2.6-.1 5.3-.3 7.9-.5a8.173 8.173 0 012.7.1 7.838 7.838 0 01-1.4.5 69.912 69.912 0 01-17.1.9 71.246 71.246 0 01-18.3-3.4c-.4-.1-.8-.3-1.2-.4l-.3-.3zm-71.8-32.4c0-1 .7-1.3 1.2-1.7a20.4 20.4 0 016.2-2.8 28.88 28.88 0 018.3-1.4c2.4 0 4.8.3 7.3.5a6.891 6.891 0 01.8.3c-.3.6-.8.5-1.2.5-1.3 0-2.7 0-4 .1a56.187 56.187 0 00-12.2 1.8 17.233 17.233 0 00-5.2 2.3c-.4.1-.8.3-1.2.4m39.2 11.7c.9.6.5 1.3.3 1.8a22.128 22.128 0 01-3.4 6.2c-1.9 2.4-4 4.6-6 6.9a17.046 17.046 0 01-1.9 1.9 3.916 3.916 0 01-1 .8 1.387 1.387 0 01-.9 0 .778.778 0 01-.2-.8 5.675 5.675 0 011.2-1.8c1.7-1.8 3.6-3.4 5.3-5.2a23.586 23.586 0 006.1-9.1c.2-.3.4-.5.5-.7m15.5-100.4c.6-.9.1-1.5-.6-2a30.244 30.244 0 00-3.3-2.1 25.446 25.446 0 00-12.4-2.9c-5.8.1-11.4 1.1-16.5 4-.7.4-1.4.7-2.1 1.1a.756.756 0 01-.4-.1 2.651 2.651 0 01.6-.5 32.319 32.319 0 0113-5 32.989 32.989 0 0112.9.7 23.147 23.147 0 018.9 4.7c1 .8 1 1.2.2 2.3zm73.2-21.8q3.3-.45 6 6.9a19.4 19.4 0 0112 2.7 4.1 4.1 0 01-1.1-.1c-1.1-.3-2.1-.6-3.2-.9-.2-.1-.5-.2-.6-.1-.9 1.2-1.9.3-2.9.2a24.84 24.84 0 00-7.7.6 13.884 13.884 0 01-1.7.3c.4-.4.5-.6.7-.6 1.1-.3 1.6-1.5 2.8-1.7.6-.1.6-.7.4-1.2a9.571 9.571 0 00-4.1-5.7 2.092 2.092 0 01-.6-.4m-96.7 216.1c.2-.1.3-.2.5-.2a41.325 41.325 0 0113.1 1.6 56.54 56.54 0 015.7 2.3c.5.2 1.3.4 1.2 1.3a1.2 1.2 0 01-1.4 0 56.607 56.607 0 00-12.2-3.4c-1.9-.4-3.8-.6-5.6-.9-.5-.1-.9-.2-1.4-.3a.756.756 0 00.1-.4m33.2-77.5l.3.6c.4.8.8 1.7 1.2 2.5a2.976 2.976 0 01.5 1.5 2.177 2.177 0 01-.8-.5 34.757 34.757 0 01-5.8-8 45.793 45.793 0 01-3.3-7.1c-.2-.6-.3-1.1.6-1.4.2.3.4.7.6 1a83.069 83.069 0 005.9 10.5 2.361 2.361 0 00.8.9m-8.4-15.7c-.5-.6-.8-.8-1.1-1.2l-2.7-3.6a5.731 5.731 0 00-1.1-1.1c-1.5-1.1-2.7-.9-3.8.5-.2.2-.4.5-.6.7a1.065 1.065 0 01-.8-1.3.349.349 0 01.1-.2 3.2 3.2 0 012.3-2.2 4.258 4.258 0 014.3.9 8.171 8.171 0 012.6 3.9 8.627 8.627 0 01.8 3.6m89.1-45.7a2.973 2.973 0 01.8 2v5.5c0 3.2-.1 6.3 0 9.5 0 2.1.2 4.3.4 6.4a20.486 20.486 0 00.5 2.4 2.232 2.232 0 01-.2 2.1c-.8-.1-1-.7-1.1-1.3-.2-2.2-.5-4.5-.7-6.7a95.212 95.212 0 01.3-15.1c.1-1.5 0-3.1 0-4.8m3.7 28.1a10.55 10.55 0 01-.5-1.9 85.7 85.7 0 01.9-22.6c.3-1.8.5-3.5.8-5.4a1.674 1.674 0 01.4 1.5c-.1 1.2-.2 2.5-.4 3.7a98.038 98.038 0 00-1.1 16.2c0 2 .3 4 .5 6.1a17.651 17.651 0 010 2.3zm-124.2 175c1.3 1.9 2.7 3.9 4 5.8a129.12 129.12 0 009.1 11.6 72.736 72.736 0 006.8 6.8 4.74 4.74 0 011 1 3.037 3.037 0 01-2.1-1.2 79.289 79.289 0 01-7.1-7.1 132.111 132.111 0 01-9.6-12.7c-.9-1.3-1.6-2.7-2.4-4zm52.1-152.4c2.7.7 5.4 1.6 8.1 2.2a55.251 55.251 0 0011.4 1.8c2 0 4-.2 6.1-.4a4.129 4.129 0 01-1.1.7 18.589 18.589 0 01-3.3.4 46.7 46.7 0 01-17-2.8c-1.5-.5-3-1.1-4.4-1.6zm-5.7-7.8l-1.9 1.8c-.4.1-.7 0-.6-.5a10.366 10.366 0 013.1-5.7c.9-.8 2-.7 3.1-.7zm-43.5 4.5c-2.3 1.7-12.4.5-16.2-1.9 5.2.9 10.4 2.5 16.2 1.9m12 132.4l1.7 1.7a24.926 24.926 0 005.4 4.3 9.38 9.38 0 002.8 1c1.9.3 2.6-.1 3.3-2a1.528 1.528 0 01-.1 1.6 2.656 2.656 0 01-2.2 1.1 6.228 6.228 0 01-3.5-.8 21.039 21.039 0 01-7.5-6.4 1.75 1.75 0 01.1-.5m-39.2-170a2.333 2.333 0 01-.6 1.8l-2.4-1.3-1.4 2a3.043 3.043 0 01-.8-.8c-.9-1.1-.6-1.7.8-2.1a8.226 8.226 0 014.4.4m46.8 11.1a28.281 28.281 0 002.1-7c.3-2.4.5-4.8.7-7.2l.4.2a35.6 35.6 0 01-.8 10.3 17.722 17.722 0 01-1.5 3.1 7.019 7.019 0 00-.9.6m35.6 60.6c2 5.2 5.4 9.1 8.3 13.3l-.2.2a1.794 1.794 0 01-.7-.5c-2.7-3.5-5.4-6.9-7.3-11a2.043 2.043 0 01-.1-2m-30.9 4c-2.1 1.9-10.2.7-14.1-1.9l1.2.3a26.963 26.963 0 009.3 1.8 21.738 21.738 0 003.6-.2"/><path d="M284.29 28.3c-.9-3.9-3.6-4.1-6.8-6 1.8-.1 3.1-1.1 4.3.1 1.6 1.5 2.8 4.1 2.5 5.9M262.69 145l7.3-.3a1.625 1.625 0 01-1.5 1.1 9.023 9.023 0 01-5.8-.8m-118.1-12c2.2 0 4.4-.1 6.6-.1a1.33 1.33 0 01.8.3c-1.7 1.1-5.4 1.1-7.4-.2m34.1 168.6c-.2-.2-.5-.4-.6-.7-1.4-2.3-2.7-4.7-4-7.1a7.838 7.838 0 01-.5-1.4l.3-.1 5.2 9.1zm90.6-149.1a17.149 17.149 0 01-7-4.9 21.629 21.629 0 013.6 2.2 23.751 23.751 0 013.4 2.7m-113 62.9a19.5 19.5 0 01-2.9-10.8 78.046 78.046 0 002.9 10.8m42.6-75a25.273 25.273 0 01-2.9 7l-.4-.1 2.9-7zm64.9 6.4a41.548 41.548 0 016.1.3 6.3 6.3 0 01-6.1-.3m-114.6-11.2a3.981 3.981 0 01-4.5-.8zm69.8 180.7l3.8-3.5a12.365 12.365 0 01-3.5 3.7zm-19.3-106.4l-.2 1.7.5-1.6zm-13.5-3.7l-.2 1.7.9-1.7z"/><path d="M243.39 208.2c.1-1.2-.4-2.4 1.1-3.2a5.2 5.2 0 014.3 4.5c-1.2 1.4-2 1.5-3.5.6a3.359 3.359 0 00-1.4-.5 21.143 21.143 0 00-3.5-.2c-1 0 2.7.1 1.8.5a28.955 28.955 0 01-7.7 1.9c-4.1.7-20.7-2.1-24.8-2.2a82.2 82.2 0 00-9.9.6c-1.4.3-10.1-3.1-11.2-3.2-2.2-.2-5.4-.1-7.4-1.1a20.138 20.138 0 00-3.5-1c-4.2-1.1-7.9-2.7-12-3.9-1.2-.3-1.7-2.4-2.9-2-.9.3-3.7-.7-4.2-.8-.7-.1-1.2-.4-1.1-1.3-1.5 1-2.4 3.7-4.1 4.1 2.8-3 5.7-7.2 8.8-10.2.7 1.3-.2 1.9-.8 2.5a18.835 18.835 0 01-2 2.1c1.3-.1 5.2 1.9 5.5 1.9 1.5-.1 1.5 1.8 2 3.2 6.5.9 13.7 0 20.3.9-5.9.1-11.3 1.2-17 .3.7.5 1-.1 1.7.4.2.2 1-.1 1.3 0a88.172 88.172 0 0012.6 2.7c2.3.3 10.5 1.9 12.7 2.9a4.671 4.671 0 001.7.3c1.5-.2 4.7-.4 6.2-.7.9-.2 13.5 2.3 17.9 2.7a37.122 37.122 0 009.4-.5c-6.4-1.7-13.1-3.7-19.2-5.3 1.5-.4 1.7 2.5 3 2.8 5.6 1.4 12.8 1 18.4 2.4a6.883 6.883 0 002.5.2c3.1-.5 1.5-.9 5-1.4"/><path d="M194.09 200.9c4.8.6 9.4 1.8 14.2 1.6v.3a6.893 6.893 0 01-.8.3 30.872 30.872 0 01-12.8-1.8 2.092 2.092 0 01-.6-.4m-26.7 4.4l10.2 10.6s19.3 6.2 29.4 6.7a85.031 85.031 0 0019.5-1.4s-5.2 4.6-25.1 2.6c-2.8-.3-20.9-2.7-25.2-6.6-1.1-1-8.8-11.9-8.8-11.9"/><path d="M199.59 213s-.2 1.1-.5 2.4a19.814 19.814 0 01-.8 3.5c-.7 1.3-1.3 2.4-1.3 2.4l2 .4z"/><path d="M169.89 206.3s3.3 2.9 4.9 2.5c0 0 1.1 3.8 3.1 4.4 3.9 1.2 5 1.8 6 1 0 0 .9 2.7 2.7 3.6s11.6 2.5 11.9 1.2c1-4.3-1 3.5-1 3.5s-18.4-2.8-22.7-6.2-7.5-10.9-7.5-10.9l-3.7-6.8 3.7 2.4z"/><path d="M198.69 218.6s2.6 1.9 8.8 2.1c6 .2 6.6-.8 6.6-.8a3.094 3.094 0 002.3.8c1.7.1 9.8-1 10-2.1.2-.8.4-1.7.6-2.5 0 0 8.2-1.5 8.3-3.2.1-1.8 3.1-1.9 3.1-1.9l1.2 1.3s-6.9 5.1-14.1 9.4c-1.3.8-22.4 2.4-25.3 1.5-2.8-.9-1.5-4.6-1.5-4.6m15.2-8.9l.3 1.7.2-1.8z"/></g></svg>