<svg xmlns="http://www.w3.org/2000/svg" width="405.028" height="369.252"><defs><clipPath id="a"><path fill="none" d="M0 0h269.237v349.664H0z"/></clipPath></defs><path d="M207.159 273.664h65.959s25.135 17.907 53.307 34.9c12.192 7.355 20.425 14.449 31.642 21.713.233.151 2.016 2.251 2.507 2.57 3.662 2.377 17.12 7.722 24.317 13.564 11.084 9 16.635 19.366 20.137 22.164-1.183-.011-405.377 1.536-405.028-.011 14.915-31.77 20.731-38.922 20.731-38.922s120.422-55.978 186.428-55.978z" fill="#ffbc7e"/><path d="M167.441 22.504l-19.615 23.191h-5.577l-10.647 16.521-4.812 3.354 3.148 5.765-3.148 3.545-5.693 3.886 10.505 36.623-10.505 1.644v8l3.809 2.637 6.7 26.4-1.665 9.083 7.082 5.243v4.958l-1.8 26.2 12.606 26.417 1.684 37.267-10.155 15 19.708 24.1 26.522 21.14 32.774 2.865 23.9-11.3 21.5-24.192 6.75-12.618-6.75-13.259 5.385-32.65 6.458-10.336 13.683-32.967 6.471 2.8 6.275-4.617 5.69-24.053 11.823-20.891v-8.19h-7.424v-3.206h-6.462l2.063-5.836 11.823-26.6V78.762l-7.424-15.011-4.4-18.06-11.966-12.187h-17.091l-4.842-14.052a106.174 106.174 0 00-27.668-14.248C230.13-.165 211.5 1.024 211.5 1.024l-25.2 6.738z" fill="#e7c0a3"/><path d="M164.709 128.984s.346 5.476 1.669 6.565 11.66 2.091 11.66 2.091 3.921-4.048 3.378-6.554-8.152-3.634-10.64-3.253-6.067 1.151-6.067 1.151z" fill="#aa5e5e"/><path d="M168.539 128.286s.037 2.992 1.063 3.054 4.79-.979 4.836-2.2 1.337-1.644-.847-1.474-5.052.62-5.052.62z" fill="#fff"/><path d="M284.505 132.701s21.346-2.4 23.11-1.92a9.454 9.454 0 003.881 0l2.048 3.035-29.039 7.4zM140.638 120.41l-8.087-1.178s-1.635 8.1-1.377 10.115c.008.064-.229-3.084 0-2.832.583 1.331 9.464-1.49 9.464-1.49z" fill="#904343"/><path d="M171.705 200.409s23.06 1.365 26.418 2.806a23.05 23.05 0 0011.175 1.227c2.334-.525 3.084-1.772 7.886 0s17.721 4.093 17.721 4.093-8.976 12.052-19.959 12.166-30.068-2.58-32.355-4.469-10.886-15.823-10.886-15.823z" fill="#deab98"/><path d="M225.649 122.418s-18.653 9.444-15.389 16.606 17.783 20.351 21.463 18.182 30.224-6.684 29.474-9.068-23.905-15.259-29.474-16.816-6.074-8.904-6.074-8.904z" fill="#c98c75"/><path d="M235.707 134.546s-.364 7.317 0 8.488 12.908 3.608 14.777 1.4 6.3-4.022 3.608-5.812-10.825-4.052-11.84-4.075-6.545-.001-6.545-.001z" fill="#aa5e5e"/><path d="M240.436 134.665s4.243 4.1 5.214 2.982 2.348-1.085 0-2.008a17.442 17.442 0 00-5.214-.974z" fill="#fff"/><path d="M122.368 116.85l20.771-2.073 29.562 2.073 23.017 5.583s6.707 2.677 10.664 2.6 12.279-2.6 12.279-2.6 31.654 2.33 41.407 4.435 25.506 4.427 25.506 4.427l-1.875 9.4-7.438-5.746s-34.806-7.853-41.91-8.083-19.55 0-19.55 0l-3.178 8.083 1.211 6.672s-5.917-8.958-9.143-8.49-8.939 10.267-8.939 10.267-2.477-.871-2.021-1.777 5.18-11.458 2.987-13.867-25.226-7.833-30.523-7.826-31.619.331-33.279 1.482-.8 20.233 0 21.987 4.458 7.971 6.821 8.4 12.915 7.225 28.027 6.665 20.838-8.286 22.078-10.359 4.224-6.207 4.224-6.207l2.233.377-1.586 3.562s-10.84 14.046-15.083 14.536-23.465 1.9-34.325-1.909-12.388-4.661-12.388-4.661l-6.234-26.939s-5.68.578-5.538-1.838 2.223-8.174 2.223-8.174z" fill="#904343"/><path d="M212.658 138.795a3.857 3.857 0 012.759 2.932c.384 2.337 2 8.853 2.154 10.34s2.629 7.932 5.869 8.61 32.692 4.743 38.4 3.449 9.172-6.681 9.172-6.681 7.9-14.794 7.69-15.718-1.854-7.192-1.854-7.192l7.66 4.26s-10.957 28.222-17.362 28.917-41.172-.923-43.7-3.586-13.228-20.168-13.228-20.168l-2.238-9.422z" fill="#904343"/><path d="M189.437 178.175s13.7 3.659 21.7 1.76 12.356-4.714 13.133 1.885 9.062 6.066-5.4 6.788-13.995 4.888-20.006 1.5-9.427-11.933-9.427-11.933zm95.068-36.962s-15.107 71.5-26.644 83.235-13.826 19.673-34.9 33.473-31.132 1.146-14.676 5.774 37.591 31.512 49.581 34.75-4.3 6.5 0 0 12.153-20.783 12.153-20.783l-4.617-15.883 4.617-30.277s7.514-7.605 8.6-11.283 11.349-31.2 11.349-31.2 8.112 4.988 9.871 1.961 8.44-25.982 9.971-29.581 8.17-14.135 8.17-14.135-1.412-10.316-8.17-4.041-10.9 13.953-9.971 15.748-3.151 8.64-2.92 10.153 5.438-2 5.359 0-9.935 11.177-12.31 3.631 6.652-5.083 1.969-11.356 0-20.19 0-20.19z" fill="#c98c75"/><path d="M164.528 129.7l1.264 4.975v1.043l-8.172-3.534 5.519-3.4zm13.552 7.752l2.902-6.218 2.268-1.2 4.393 7.418-3.073.777zm56.083-1.339l1.264 4.975v2.111l-11.741-2.594 9.087-5.4zm16.303 9.586l2.904-6.217 2.266-1.202 5.797 5.949-3.096 1.47z" fill="#fff"/><path d="M131.356 115.155l-9.616-31.816 1.11-6.186 3.666-1.189s.009-3.4.578-3.415 4.26-1.029 4.26-1.029l-3.619-5.685 5.533-4.453 10.162-15.818h6.064l22.17-26.25 22.892-13.559 26.517-4.631s29.1 2.3 38.718 9.1S269 14.757 269 14.757s9.154 4.766 8.984 11.488.658 7.25.658 7.25 11.6-3.1 16.907 0 11.827 6.389 13.792 17.022 5.352 16.621 5.352 16.621 9.388 18.546 6.568 29.894-14.5 32.264-14.5 32.264-2.035-9.147-5.148-5.839-9.737 7.473-8.553 2.6 1.667-42.872-4.7-54.886-15.109-25.881-21.488-30.958-6.384-2.025-27.911-3.729-12.5 6.187-22.817 4.882-55.935 5.425-59.414 11.449-13.074 31.574-11.237 39.47-2.8 22.869-2.8 22.869z" fill="#904343"/><g clip-path="url(#a)" transform="translate(85.159)"><path d="M46.926 155.958c-.935 2.314-.166 4.393.323 6.478.176.749.494 1.467.709 2.209a2.519 2.519 0 002.106 1.863c.753.154 1.107-.031 1.215-.767.2-1.36.355-2.726.548-4.087.083-.587.213-1.168.324-1.767.779.137.731.552.707.968-.1 1.795-.241 3.587-.29 5.383-.183 6.776-.336 13.552-.5 20.329-.071 2.925-.2 5.849-.192 8.774a14.686 14.686 0 001.824 6.644c2.119 4.15 4.265 8.287 6.382 12.438.352.69.607 1.426.916 2.136 1.537 3.533 4.072 6.483 6.105 9.726 1.432 2.284 3 4.49 4.5 6.736.942 1.411 1.868 2.831 2.912 4.214-.078-1.287-.736-2.5-.408-3.82 1.687.878 2.12 2.484 2.677 4.019a36.531 36.531 0 001.469 3.892c1.222 2.451 2.68 4.8 3.841 7.271.6 1.278 1.667 2.424 1.575 3.969a24.448 24.448 0 002.544 2.27 9.523 9.523 0 002.236.787c3.505 1.221 7.014 2.435 10.511 3.677a77.171 77.171 0 0014.294 3.8 43.2 43.2 0 0013.665.074 48.706 48.706 0 005.037-1.455c.56-.158 1.32-.7 1.625.208.266.787-.636.814-1.108 1.041a28.156 28.156 0 01-11.9 2.529 65.84 65.84 0 01-21.452-3.532 73.53 73.53 0 01-8.951-3.245c-4.38-2.076-8.355-4.756-10.591-9.192-.882-1.75-1.631-3.562-2.471-5.332a8.753 8.753 0 00-.887-1.449c-1.52-2.046-3.066-4.074-4.594-6.114-1.713-2.286-3.418-4.578-5.356-7.177 0 .964-.013 1.588 0 2.212.078 3.285.171 6.571.241 9.856a26.942 26.942 0 01-.04 2.776c-.066.806-.314 1.6-.387 2.4a29.383 29.383 0 00-.119 3.073c.022 1.589.173 3.178.153 4.766-.042 3.324-.185 6.647-.227 9.971a2.454 2.454 0 01-.849 2.031c-1.051.925-1.988 1.972-2.969 2.971a1.226 1.226 0 00-.28.373c-.86 2.152-2.548 3.783-3.822 5.674-.924 1.372-.93 1.705.25 2.949a113.837 113.837 0 018.368 9.516c1.413 1.869 2.734 3.808 4.243 5.6 2.382 2.831 4.814 5.631 7.353 8.33a83.108 83.108 0 0020.32 16.061 54.673 54.673 0 0014.385 5.408 48.721 48.721 0 0012.352 1.268 50.973 50.973 0 0018.332-3.658 54.7 54.7 0 0011.727-6.814 73.288 73.288 0 008.751-7.653 103.925 103.925 0 0011.275-13.191c2.7-3.943 5.346-7.928 8.083-11.85a2.569 2.569 0 00.12-2.966c-1.434-2.98-2.825-5.991-3.981-9.079-1.07-2.856-.766-5.852-.424-8.836.8-7 2.582-13.836 3.68-20.786.11-.693.173-1.394.282-2.293-3.346 2.536-6.477 4.991-9.7 7.329a79.03 79.03 0 01-10.435 6.267c-3.555 1.821-7.1 3.684-10.729 5.213-.588-.476-.414-.851-.082-1.155.5-.459 1.06-.858 1.575-1.3q4.817-4.172 9.626-8.352c3.566-3.092 7.26-6.033 11.035-8.888 3.308-2.5 6.458-5.2 9.617-7.885a11.4 11.4 0 003.06-3.908 3 3 0 01.574-.92c2.781-2.687 4.3-6.116 5.831-9.494a215.093 215.093 0 008.356-21.343c.419-1.269.8-2.551 1.231-3.815a6.541 6.541 0 01.724-1.539c.563-.831 1.2-.826 1.995-.232 1.046.778 2.142 1.5 3.256 2.185a3.95 3.95 0 003.385.12 9 9 0 006.2-6.334 39.957 39.957 0 00.99-4.192 3.188 3.188 0 011.092-1.869 1.684 1.684 0 01.368 1.638 25.309 25.309 0 01-2.619 9.009c-1.266 2.216-2.873 4.274-5.652 4.881a15.157 15.157 0 01-3.471.226c-1.315-.023-2.628-.193-4.053-.309-1.059 2.234-2.215 4.379-3.108 6.623-1.47 3.691-2.712 7.465-4.155 11.167-1.669 4.281-3.451 8.521-5.182 12.78a6.424 6.424 0 00-.55 1.44 14.334 14.334 0 01-4.389 8.222 7.225 7.225 0 00-1.895 3.468c-.889 3.438-1.823 6.865-2.609 10.325a47.213 47.213 0 00-.911 5.94c-.3 3.114-.611 6.24-.638 9.362a18.574 18.574 0 001.661 7.95c.257.561.512 1.122.812 1.781a2.457 2.457 0 00.533-.333c1.492-1.7 2.895-2 4.894-.866 1.42.806 2.763 1.746 4.1 2.684q6.137 4.309 12.24 8.662c.387.274.771.553 1.146.841 1.291 1 1.387 1.425.642 2.877a5.62 5.62 0 01-.387.559 22.355 22.355 0 005.018 2.381 16.092 16.092 0 013.26 1.857c1.822 1.326 3.811 2.444 5.761 3.6 7.259 4.309 14.592 8.506 21.778 12.925a121.729 121.729 0 0117.758 13.091c2.491 2.242 4.914 4.555 7.4 6.8a2.029 2.029 0 01.6 2.5c-.432 1.072-1.191 1.228-2.044.4-2.363-2.3-4.69-4.634-7.094-6.893a119.115 119.115 0 00-10.708-8.548 218.894 218.894 0 00-22.829-14.468c-.778-.441-1.551-.89-2.326-1.335-.081.128-.186.241-.166.268a5.246 5.246 0 01.271 5.852 36.939 36.939 0 01-3.523 5.668c-4.312 5.618-8.723 11.166-13.138 16.709q-5.21 6.542-10.526 13.006c-2.481 3.021-5.04 5.982-7.571 8.965a1.429 1.429 0 01-.867.5 3.3 3.3 0 01.3-.73c6.257-8.7 12.711-17.264 19.566-25.546 4.055-4.9 7.941-9.932 11.827-14.959a29.019 29.019 0 002.572-4.249 6.108 6.108 0 00.58-2.224 2.659 2.659 0 00-2.4-2.958 14.991 14.991 0 00-2.229-.085c-1.56-.007-2-.337-2.387-1.84a3.313 3.313 0 01.125-2.656 7.9 7.9 0 01-1.277-.974c-1.9-2.144-4.608-3.065-7.046-4.4a18.159 18.159 0 01-2.232-1.48c-.923-.7-1.607-1.537-1.147-2.805-2.847-2.11-5.624-4.184-8.419-6.235-2.332-1.711-4.663-3.425-7.04-5.077a7.023 7.023 0 00-2.388-1.135c-1.045-.231-1.6.437-1.115 1.365a5.48 5.48 0 01-.422 5.9c-1.054 1.71-1.613 3.7-2.57 5.471-1.105 2.049-2.366 4.024-3.631 5.987a124.724 124.724 0 01-12.229 16 75.157 75.157 0 01-11.715 10.882c-1.1.8-2.168 1.641-3.448 2.615a3.684 3.684 0 00.781-.171 103.986 103.986 0 0011.794-7.065c1.922-1.382 3.871-2.729 5.783-4.125a87.051 87.051 0 0010.944-9.452c1.639-1.677 3.053-3.558 4.575-5.342.221-.259.474-.493.838-.869a1.782 1.782 0 01-.5 1.694 50.289 50.289 0 01-3.212 4.033q-3.013 3.183-6.245 6.171a128.024 128.024 0 01-31.928 21.041 110.5 110.5 0 01-15.931 5.906 70.2 70.2 0 01-11.2 2.366c-10.941 1.234-20.965-1.006-29.739-7.665-2.185-1.647-4.319-3.352-6.455-5.047a8.005 8.005 0 01-.848-.959 2.854 2.854 0 012.168.568c3.33 1.617 6.589 3.38 9.969 4.89a59.729 59.729 0 0013.967 4.779 40.9 40.9 0 0011.141.36 85.524 85.524 0 0014.49-3.015 2.516 2.516 0 00.443-.31 4.207 4.207 0 00-.946-.077 49.763 49.763 0 01-12.553.609A60.176 60.176 0 0198.8 323.9a70.042 70.042 0 01-15.31-9.436 106.086 106.086 0 01-13.564-12.828 81.409 81.409 0 01-8.978-11.789 24.286 24.286 0 01-2.505-4.98c-.734-2.323-2.236-4.165-3.445-6.2-.869-1.46-1.732-2.923-2.6-4.394-.959.288-1.2.983-1.5 1.526-1.431 2.576-3.145 5-4.209 7.777a13.7 13.7 0 01-3.654 5c-.266.248-.564.463-.965.788a8.927 8.927 0 00.93 1.495c1.262 1.32 2.533 2.64 3.887 3.871 3.884 3.532 8.127 6.646 12.343 9.791.378.282.737.59 1.086.905a2.634 2.634 0 01.309.585 5.585 5.585 0 01-.977-.305 92.732 92.732 0 01-12.548-7.925 39.423 39.423 0 01-6.571-6.278 5.651 5.651 0 00-1.519-1.318 1.942 1.942 0 00-1.348-.216 10.951 10.951 0 00-2.813 1.069 32.5 32.5 0 00-4.262 2.991 16.023 16.023 0 01-10.836 4.232 3.511 3.511 0 00-2.863 1.132 15.679 15.679 0 01-6.056 4.169c-3.072 1.294-6.217 2.426-9.333 3.619a8.549 8.549 0 01-.952.221 10.429 10.429 0 01-.35-1.289c-.072-.508.016-1.041-.092-1.538-.367-1.686.3-1.788 1.49-2.208 2.9-1.023 5.79-2.06 8.7-3.056a14.162 14.162 0 004.245-2.42 6.581 6.581 0 014.716-1.516 16.4 16.4 0 011.914.1 7.944 7.944 0 004.326-.717c2.218-.832 4-2.342 5.957-3.572a17.006 17.006 0 016.037-2.548c-.027-1.672 1.006-2.257 2.557-2.246a2.512 2.512 0 002.013-1.094 37.251 37.251 0 006.958-12.235c.356-1.132.659-2.28 1.063-3.4.433-1.2.971-1.314 2-.554a12.462 12.462 0 006.088 2.132 29.71 29.71 0 003.415-6.638 24.816 24.816 0 00.874-2.478 8.852 8.852 0 00.407-2.109c.087-2.51.213-5.026.118-7.533-.107-2.816-.435-5.623-.67-8.434-.257-3.07-.509-6.141-.777-9.211-.21-2.406-.377-4.818-.694-7.211a8.759 8.759 0 00-.945-2.932 47.53 47.53 0 01-3.164-7.729 19.255 19.255 0 00-.955-2.118c-.984-2.1-1.979-4.189-2.958-6.288-.786-1.686-1.584-3.367-2.325-5.071a16.478 16.478 0 01-1.459-7.207c.021-.617.017-1.235.008-1.853a63.542 63.542 0 01.638-9.066c.427-3.3.481-6.649.732-9.974.124-1.639.335-3.27.482-4.907.044-.491.006-.989.006-1.6a6.751 6.751 0 01-5.1-1.93 8.6 8.6 0 01-2.328-4.981 4.732 4.732 0 012.4-4.95l.175-1.52c-1.179-1.151-2.914-1.663-4.067-3.337l2.579.313c-2.713-7.621-3.106-15.529-4.257-23.434-.621-.158-1.223-.313-1.827-.464-1.358-.339-2.814-.681-3.354-2.074a7.95 7.95 0 01-.531-3.293c.109-1.683.538-3.345.8-5.022.1-.638.12-1.287.2-2.243.362-.525 1.127-.614 2.044-.528a25.042 25.042 0 006.987-.2 6.033 6.033 0 00.862-.32 18.364 18.364 0 00-.86-2.179A75.23 75.23 0 0140.1 101.7c-1.043-2.912-2.162-5.8-3.069-8.755-1.131-3.694-2.242-7.416-1.873-11.345a12.278 12.278 0 01.327-2.131 4.543 4.543 0 013.152-3.579 1.984 1.984 0 001.545-1.6 4.628 4.628 0 01.355-1.02 1.987 1.987 0 012.255-1.31 2.467 2.467 0 002.008-.433c-.753-1.243-1.533-2.453-2.235-3.7-1.093-1.948-.609-3.326 1.5-4.224a6.084 6.084 0 003.188-3.468 38.754 38.754 0 013.976-7.549c.706-.959 1.526-1.84 2.293-2.759.366-.439.725-.884 1.094-1.322.671-.795 1.316-1.613 2.03-2.371a5.667 5.667 0 015.676-1.574c.357.076.721.127 1.284.224a97.68 97.68 0 0131.081-33.31 3.064 3.064 0 00-1.769.518 87.968 87.968 0 00-10.842 7.054 64.192 64.192 0 00-11.943 11.737 10.667 10.667 0 00-2.5 5.322 1.761 1.761 0 01-.174-1.912 39.087 39.087 0 012.045-3.819 40.514 40.514 0 017.168-8.034A76.882 76.882 0 0189.4 12.826a73.209 73.209 0 0115.213-7.046A132.247 132.247 0 01123.877.845a51.661 51.661 0 019.371-.829c2.91.053 5.829-.1 8.731.057a74.18 74.18 0 0121.051 4.078 57.227 57.227 0 0111.6 5.449c1.465.932 2.87 1.953 4.324 2.9a2.951 2.951 0 001.267.548 12.493 12.493 0 017.522 3.729 21.393 21.393 0 015.957 9 12.28 12.28 0 01-.471 9.9 5.158 5.158 0 01-2.088 2.516c-.374-.715.011-1.293.177-1.819a16.864 16.864 0 00-.2-11.2 18.269 18.269 0 00-8.229-9.7 5.772 5.772 0 00-1.611-.662 8.574 8.574 0 00-1.7-.023l.076 1.567a2.173 2.173 0 01-1.276-1.819 2.3 2.3 0 00-1.154-1.57 62.425 62.425 0 00-14.553-6.946A68.632 68.632 0 00146.3 2.682a120.9 120.9 0 00-12.282-.31 69.156 69.156 0 00-14.189 1.9 75.119 75.119 0 00-14.143 4.766 73.8 73.8 0 00-15.577 9.6c-1.306 1.048-2.6 2.106-3.907 3.159l.18.256c.879-.562 1.76-1.123 2.636-1.689a25.342 25.342 0 0111.039-4.18 4.242 4.242 0 011.768.187 8.548 8.548 0 01-1.259.354c-5.305.662-9.758 3.07-13.83 6.265a56.981 56.981 0 00-11.991 13.33 119.942 119.942 0 00-8.185 14.632c-2.281 4.695-4.487 9.424-6.7 14.152a10.563 10.563 0 00-.46 1.886l-1.566 2.079.153-1.5a1.223 1.223 0 00-.406-.117 8.363 8.363 0 00-4.921 2.352 16.652 16.652 0 00-5.291 9.138 19.972 19.972 0 00-.346 7.036c.5-1.388.91-2.8 1.5-4.135a9.981 9.981 0 015.227-4.984 2.041 2.041 0 012.124-.043 6.488 6.488 0 01-.951.585c-3.822 1.453-5.579 4.416-6.339 8.092-.635 3.071.04 6.039.894 8.971.964 3.313 2.172 6.569 2.951 9.919a29.917 29.917 0 01.271 5.817c0 .118-.144.24-.384.614a2.549 2.549 0 01-.209-.524c-.457-4.069-2.006-7.868-3.1-11.78-.25-.893-.474-1.795-.772-2.672-.564-1.656-1.281-3.27-1.742-4.952-1.67-6.092-1.3-12.008 1.9-17.625a15.406 15.406 0 015.036-5.291 10.608 10.608 0 013.847-1.381 2.021 2.021 0 001.807-1.4c1.2-3.023 2.457-6.024 3.725-9.022a122.182 122.182 0 019.661-18.248c1.342-2.1 2.813-4.116 4.172-6.216-5.6 6.106-10.615 12.679-15.9 19.075-.388-.208-.766-.582-1.07-.531a2.062 2.062 0 00-1.154.722c-1.815 2.28-3.615 4.573-5.353 6.908a11.8 11.8 0 00-1.71 3.292l1.483-1.6c.933.5.757 1.087.457 1.665-.788 1.514-1.575 3.031-2.4 4.527-1.881 3.4-3.86 6.75-5.664 10.186A54.8 54.8 0 0040.907 88.8a19.855 19.855 0 01-.7 2.366 3.173 3.173 0 00-.008 2.4c1.22 3.125 2.341 6.287 3.615 9.39a32.826 32.826 0 012.613 10.906 3.518 3.518 0 00.083.61 1.623 1.623 0 00.219.355c1.569-.171 3.188-.344 4.806-.523 4.025-.446 8.068-.548 12.114-.6a134.767 134.767 0 0116.421.71 107.676 107.676 0 0117.565 3.135c3.93 1.109 7.823 2.338 11.725 3.536a3.075 3.075 0 011.96 1.223 1.226 1.226 0 00.79.409c2.777.458 5.564.867 8.34 1.331a18.14 18.14 0 006.182-.272c.661-.115 1.334-.171 2.015-.255a1.418 1.418 0 01-.822 2.031 13.039 13.039 0 01-3.468 1.09 32.47 32.47 0 01-9.382-.28 7.5 7.5 0 01-3.723-1.972 5.6 5.6 0 00-2.026-1.145 134.914 134.914 0 00-18.936-4.978A100.179 100.179 0 0075.4 116.6c-3.665-.135-7.334-.3-11-.252-3.871.053-7.738.382-11.609.52-2.449.087-4.9.018-7.355.078a9.592 9.592 0 00-1.809.4 17.124 17.124 0 01-2.006.436c-1.428.148-2.864.213-4.3.329a10.412 10.412 0 00-1.069.212c-.108 1.491-.254 2.961-.294 4.434a2.141 2.141 0 00.517 1.074c.333.482.73.923 1.332 1.67.523.067 1.408.184 2.293.293a7.521 7.521 0 01.948.095c.859.222 1.188.7.823 1.489a3.237 3.237 0 00-.087 2.093c.714 4.047 1.31 8.116 2.106 12.148a45.968 45.968 0 002.409 8.62 24.538 24.538 0 01.8 2.942c1.574.6 3.17 1.3 4.824 1.83 3.94 1.257 7.882 2.524 11.874 3.612a65.594 65.594 0 0010.363 1.816 51.729 51.729 0 0012.735-.291 4.875 4.875 0 01.8-.028 1.554 1.554 0 01.377.138c-.317.789-1.083.942-1.751 1.076a45.584 45.584 0 01-12.052.768 82.514 82.514 0 01-10.279-1.312 95.435 95.435 0 01-15.917-4.49c-.339-.13-.7-.21-1.147-.343m-4.4-82.486a9.948 9.948 0 00-.283 1.259 3.59 3.59 0 01-2.382 3.207 3.286 3.286 0 00-2.175 3.084 19.915 19.915 0 00.558 6.246c.146.783.433 1.541.724 2.544.877-3 1.562-5.783 2.511-8.477.963-2.736 2.186-5.386 3.358-8.227l-2.31.365m4.247-9.556l-3.068 2.007c.311 1.849 1.51 3.189 2.713 4.695L50.8 63.4l-1.4-.862c-1.988 2.594-1.988 2.594-2.934 2.842l.307-1.466m15.31-16.758a5.237 5.237 0 00-1.249.012c-2.713.813-4.437 2.843-6.228 4.785a1.087 1.087 0 00-.144.273c-.973 1.99-1.951 3.977-2.913 5.972a2.948 2.948 0 00-.168.635c1.962-2.447 3.912-4.93 5.927-7.364.849-1.025 1.722-2.125 3.4-1.841l1.377-2.471m159.672 250.65l.1-.354-4.469-2.555c-.072.674-.158 1.119-.158 1.565 0 .887.422 1.309 1.362 1.336 1.055.031 2.111.007 3.167.007m-164.665-24.5l-3.439-.648c.482 1.311.639 2.41 1.725 3.267l1.714-2.619"/><path d="M130.708 123.305a1.8 1.8 0 011.808-.845c3.569-.024 7.14-.073 10.708.01 2.442.057 4.883.273 7.317.5 5.135.469 10.28.883 15.395 1.517q8.943 1.109 17.837 2.582c3.981.663 7.906 1.637 11.855 2.475a9.523 9.523 0 003.762.477c.392-.07.956.365 1.324.692a5.868 5.868 0 01.816 1.288 84.668 84.668 0 0118.9-2.281c.214-1.931.412-3.708.6-5.486a.817.817 0 00-.057-.452c-.969-1.786-.55-3.721-.575-5.585a40.539 40.539 0 01.429-5.215c.345-2.958.682-5.92 1.145-8.862a74.58 74.58 0 011.876-8.636 7.352 7.352 0 010 1.157c-.682 4.471-1.482 8.928-2.04 13.413-.366 2.947-.4 5.933-.555 8.9a13.233 13.233 0 00.162 2.92 4.91 4.91 0 001.424-3.511c.08-1.328.1-2.66.153-4.123l-.576.944a1.614 1.614 0 01.13-1.6c1.047-2.124 1.177-4.475 1.857-6.684 1.061-3.444 2.255-6.851 3.271-10.307a50.851 50.851 0 001.481-6.456 38.893 38.893 0 00.39-5.836 6.12 6.12 0 00-1.414-4.092c-.8 2.435-1.451 4.676-2.265 6.862a36.779 36.779 0 01-2.945 6.6 1.457 1.457 0 01-.231-1.557c.722-3.631 1.551-7.249 2.1-10.9.432-2.884.491-5.819.756-8.728a54.982 54.982 0 00-.255-9.69 51.458 51.458 0 00-1.938-10.135c-.668-2.268-1.487-4.5-2.364-6.7a27.352 27.352 0 00-3.922-6.692 13.1 13.1 0 00-8.041-5.185c-.525-.1-1.192-.139-1.362-.833.327-.549.837-.415 1.3-.382 4.769.342 8.223 2.728 10.89 6.428a42.751 42.751 0 015.776 11.785 74.579 74.579 0 012.764 12.018 2.99 2.99 0 00.607 1.379 34.825 34.825 0 015.413 9.4 46.073 46.073 0 013.043 12.874 41.463 41.463 0 01-1.82 16.3 68.1 68.1 0 01-3.933 9.752 110.288 110.288 0 01-5.829 10.09 19.051 19.051 0 00-2.356 4.513c-.212.684-.374 1.382-.6 2.238.529.13.962.274 1.408.338a9.581 9.581 0 001.576.11 1.6 1.6 0 011.745 1.265 5.237 5.237 0 00.31.68l6.138 1.082c.57 2.586 1.186 5.175 1.7 7.783.4 2.037-.473 3.848-1.364 5.6a126.85 126.85 0 01-9.07 14.872 4.55 4.55 0 00-.815 1.955c-.2 1.262-.691 2.48-.959 3.736-.418 1.958-.768 3.932-1.118 5.9-.21 1.177-.185 1.181-1.241 1.774-.638-.379-.579-1-.616-1.618a30.678 30.678 0 01.771-7.192 17.28 17.28 0 011.751-4.908c1.552-3.04 2.906-6.174 4.337-9.272.755-1.633 1.5-3.27 2.38-4.858a21.364 21.364 0 01-1.66 4.7c-.579 1.545-1.258 3.054-1.9 4.6.1.009.236.048.252.02 2.008-3.447 3.937-6.939 6.026-10.34 2.144-3.489 1.485-6.99.421-10.647a11.216 11.216 0 00-7.777.607 12.434 12.434 0 00-4.912 3.823 80.991 80.991 0 00-6.4 8.461 24.976 24.976 0 00-2.742 5.884 5.692 5.692 0 01-1.073 2.043 9 9 0 00-1.69 3.111c-.292.9-.544 1.915-1.709 2.342a1.837 1.837 0 01-1.094-2c.06-1.951.1-3.905.249-5.85.2-2.558.469-5.113.777-7.662.1-.791-.219-1.669.428-2.369.2-.214.409-.416.642-.651.838.621.5 1.357.431 2.034a87.647 87.647 0 00-.619 9.942 2.1 2.1 0 001-2.378 2.7 2.7 0 01.309-2.071 37.516 37.516 0 015.433-8.508 24.508 24.508 0 003.483-4.922c-.736.173-1.236.247-1.7.407-3.109 1.062-6.186 2.218-9.325 3.189-1.864.577-3.819.881-5.737 1.291a5.371 5.371 0 01-3.158.137c-.953-1.408-.6-2.842-.364-4.3.231-1.419.3-2.862.42-4.3.041-.5.006-1 .006-1.533l-2.186-.2-.13-.822a2.684 2.684 0 00-.427-.139c-6.875-1.077-13.746-2.184-20.629-3.211q-7.409-1.107-14.847-2.034c-3.637-.454-7.284-.886-10.941-1.123-5.146-.333-10.3-.481-15.459-.69a5.293 5.293 0 00-1.257.166 1.034 1.034 0 01-1.278-.581m103.391-32.1a2.872 2.872 0 01.023.915c-.932 2.99-1.856 5.983-2.875 8.945a4.538 4.538 0 01-1.258 1.755 27.947 27.947 0 00-3.538 4.342c-2.268 3.081-2.681 6.553-2.723 10.228.205-.107.334-.13.376-.2 1.726-2.944 3.534-5.849 5.142-8.853a41.429 41.429 0 004.658-13.191c.2-1.286.819-2.592.183-3.928a4.237 4.237 0 00.37-.962 29.953 29.953 0 00-.392-7.823 40.078 40.078 0 00-4.346-13.158 10.225 10.225 0 00-.857-1.155c0 1.314.049 2.337-.01 3.354-.12 2.048-.331 4.09-.433 6.138a2.3 2.3 0 00.359 1.564 8.574 8.574 0 012.142 5.981 25.428 25.428 0 01-1.725 9.512 387.762 387.762 0 00-3.4 9.789c-.342 1.023-.509 2.1-.751 3.154a.159.159 0 00.062.131c.032.022.094 0 .156 0a24.314 24.314 0 013.91-5.594 5.616 5.616 0 001.149-1.835c.54-1.284.923-2.63 1.46-3.915.73-1.748 1.543-3.463 2.321-5.192m-33.1 43.054v6.174c.491-.108 1.01-.189 1.508-.337 4.215-1.25 8.458-2.425 12.628-3.8 2.541-.839 5.268-1.212 7.58-2.678a5.967 5.967 0 011.342-.484c.79-.259 1.584-.506 2.413-.77-.165-.718-.325-1.235-1.243-1.1-1.349.206-2.715.315-4.073.465-4.747.526-9.5 1.025-14.24 1.591-1.939.231-3.86.606-5.915.936"/><path d="M208.599 125.246a11.276 11.276 0 01-.187-1.357c0-3.956.069-7.912.011-11.867-.033-2.258-.2-4.518-.418-6.768-.335-3.476-.7-6.951-1.168-10.413a131.555 131.555 0 00-3.775-18.106 84.264 84.264 0 00-4.329-12.075 52.071 52.071 0 00-6.84-11.1c-1.27-1.581-2.775-2.994-3.968-4.624a7.578 7.578 0 01-1.092-3c-.156-.8.955-1.515 1.929-1.348a4.688 4.688 0 013.163 1.605c.151.2.345.367.65.686a7.431 7.431 0 012.5-3.391 7.806 7.806 0 014.03-1.728 5.893 5.893 0 015.07 2.137 18.613 18.613 0 013.458 5.508 66.3 66.3 0 014.475 17.6c.358 2.7.6 5.405.87 8.111a1.989 1.989 0 01-.311 1.273 4.249 4.249 0 01-.351-.817c-.576-2.872-1.13-5.75-1.7-8.623a4.88 4.88 0 00-.35-1.024c.8 6.406.269 12.768-.537 19.243a5.5 5.5 0 01-.285-2.833 77.053 77.053 0 00-.473-17.682 24.959 24.959 0 00-3.322-9.9 8.924 8.924 0 00-3.587-3.413c-2-1.011-3.884-.625-5.943.421.57 1.065 1.041 2.086 1.638 3.033a48.865 48.865 0 014.827 10.383c1.294 3.8 2.55 7.629 3.5 11.52 1.019 4.191 1.75 8.454 2.439 12.711.586 3.624.935 7.284 1.567 10.919 0-1.7-.03-3.394.016-5.089a13.372 13.372 0 01.362-1.97 1.637 1.637 0 01.6 1.365c-.027 2.342-.128 4.684-.081 7.024.062 3.079.238 6.156.366 9.233q.036.848.081 1.695c.12 2.257.248 4.513.355 6.77.022.478-.031.958-.049 1.438l-.364.016-1.031-7.011-.086.024c-.133 2.974-.218 5.951-.432 8.918a2.562 2.562 0 01-1.225 2.5m.452-65.883a3.886 3.886 0 00-.074-.756c-.765-2.561-1.474-5.14-2.342-7.668a17.1 17.1 0 00-3.063-5.552 7.616 7.616 0 00-2.1-1.843c-2.249-1.2-6.418.262-7.605 2.562-.373.722-.183 1.172.612 1.41.525.158 1.176.019 1.646.7l-2.307.239 1.719 2.612a7.525 7.525 0 00.873-.414 6.081 6.081 0 014.259-.881c2.365.273 3.9 1.723 5.253 3.443a25.174 25.174 0 013.127 6.151m-62.15 60.727c-.616.355-1.217.679-1.794 1.037a1.887 1.887 0 01-2.772-.787c-.5-1.311-.891-2.652-.041-4.008a3.387 3.387 0 00.249-1.034c.045-.2.029-.5.155-.578 1.2-.694 1.4-2.006 2.064-3.025.122-.187.385-.288.557-.411.942.488-.081 1.35.68 1.946a7.5 7.5 0 001.029-.338c.475-.225.9-.548 1.376-.772.888-.419 1.353-.324 1.765.584.279.615.947.9 1.208.716.9-.639 1.86-.015 2.766-.319a20.3 20.3 0 012.87-.534l.371.873 2.734-1.616.16.214-1.547 1.6.144.248a2.224 2.224 0 00.758-.154c.8-.51 1.551-1.081 2.343-1.6a9.941 9.941 0 011.138-.545c.163.964-.757.966-.938 1.554a6.858 6.858 0 002.25-1.132c.579-.315 1.217-.653 1.5.318l1.7-.791c.29.959-.645 1.125-.926 1.6 1.455-.319 2.852-.641 4.257-.929.928-.19 1.186.008 1.69 1.038a3.929 3.929 0 00.652.74l1.591-.848 2.47.984 1.235-.716c.843.687 1.645 1.4 2.848 1.1a.6.6 0 01.451.12 19.131 19.131 0 012.8 2.483 12.584 12.584 0 011.375 2.935 2.379 2.379 0 01.01.742 3.643 3.643 0 00-2.542.089c-.5.234-1.007-.108-1.4-.516a5.61 5.61 0 00-3.5-1.963c-.389-.041-.733-.49-1.165-.8-.624.59-1.308 1.287-2.046 1.924-.77.664-1.586 1.222-2.719.665-.241-.118-.609 0-.918.02-.37.028-.738.094-1.109.108-2.172.086-4.344.161-6.516.245a2.151 2.151 0 00-.944.092 9.576 9.576 0 01-5.289.995c-1.166-.007-2.334.125-3.5.209a11.929 11.929 0 01-6.175-1.245c-.379-.184-.788-.31-1.352-.528M140.71 10.44a30.838 30.838 0 00-6.66-2.116c-.079-.777.422-.862.812-.814a20.733 20.733 0 013.752.634c1.917.611 3.75 1.461 5.642 2.151a26.333 26.333 0 003.626 1.115 44.747 44.747 0 0115.923 6.887 48.738 48.738 0 0111.369 10.528c2.077 2.67 4.009 5.452 4.723 8.827a1.276 1.276 0 01-.4 1.5 18.007 18.007 0 00-3.348-7.337 44.285 44.285 0 00-6.362-7.3 47.265 47.265 0 00-15.955-10.018c-.6-.224-1.2-.43-1.8-.632a2.438 2.438 0 00-.556.032c1.439.9 2.715 1.684 3.968 2.5a81.963 81.963 0 0110.353 7.95 43.063 43.063 0 015.7 6.225 8.957 8.957 0 012.006 4.633 4.991 4.991 0 01-.19 1.811c-.48 1.561-1.127 1.665-2.535.387 1.031-2.455-.058-4.487-1.508-6.519a47.93 47.93 0 00-8.712-8.766 42.417 42.417 0 00-17.194-8.795 36.5 36.5 0 00-5.029-.8 45.8 45.8 0 00-20.471 2.805 60.678 60.678 0 00-11.179 5.246 120.936 120.936 0 00-10.063 6.807c-4.24 3.183-8.3 6.587-12.444 9.891q-3.632 2.9-7.277 5.777c-1.151.914-2.3 1.835-3.457 2.738a1.527 1.527 0 01-1.067.336c.332-.358.639-.742 1-1.069 2.523-2.285 5.112-4.5 7.569-6.853 1.662-1.587 3.148-3.345 4.707-5.032a133.179 133.179 0 019.4-9.437 110.488 110.488 0 0111.283-8.825 61.326 61.326 0 0112.087-6.55 21.578 21.578 0 017.7-1.822 6.691 6.691 0 013.911 1.038 1.189 1.189 0 01-1.457.311 10.39 10.39 0 00-5.957.326 49.792 49.792 0 00-13.4 6.371 115.309 115.309 0 00-13.088 9.847c-2.307 1.979-4.5 4.083-6.736 6.138a1.257 1.257 0 00-.433.837c.612-.443 1.245-.863 1.835-1.334a130.773 130.773 0 0112.276-8.839 79.2 79.2 0 0112.4-6.3 52.251 52.251 0 0111.787-3.233c2.513-.378 5.083-.407 7.716-.6l-.982-.308a41.312 41.312 0 016.706-.344m5.124 2.527c-1.58-1.374-3.524-1.335-5.469-1.3z"/><path d="M123.799 40.009c1.581-.053 3.172-.021 4.741-.183 1.631-.168 3.249-.492 4.858-.815a8.014 8.014 0 001.938-.686 1.62 1.62 0 00.6-2.784 13.108 13.108 0 00-1.86-1.676 16.649 16.649 0 00-6.111-3.144l3.475 3.222c-.458.064-.633.141-.7.089-1.2-.937-2.408-1.859-3.545-2.86-.3-.266-.615-1.006-.485-1.146a1.742 1.742 0 011.331-.565 18.416 18.416 0 013.923 1.238 21.634 21.634 0 014.005 2.509 8.814 8.814 0 012.053 2.5 3.425 3.425 0 01-1.353 4.461 11.856 11.856 0 01-3.05 1.29 67.387 67.387 0 01-11.971 1.659q-4.845.362-9.677.873c-3.325.347-6.652.7-9.958 1.183-3.413.494-6.82 1.054-10.2 1.738a46.238 46.238 0 00-10.885 3.458 41.868 41.868 0 00-5.286 3.123c-2.088 1.413-4.067 2.977-6.1 4.466a3.052 3.052 0 01-.695.246c-.046-.377-.184-.686-.1-.923a15.427 15.427 0 016.323-8.447 33.931 33.931 0 017.164-3.332 90.51 90.51 0 0117.111-3.505q6.886-.876 13.808-1.21c2.759-.137 5.516-.32 8.271-.526a19.152 19.152 0 002.181-.41l.187.158m-54.774 66.042l-.651-1.025c1.087-.509 2-1.368 3.268-.5l1.81-1.7 1.829 1.147.13-.1-.926-1.316 1.567.475c1.738-1.228 2.686.719 4.154.974-.341-1.114-1.88-1.424-1.889-2.812a3.222 3.222 0 01.914.084c.661.277 1.205.759 2.07.508.338-.1.877.288 1.265.539.787.51 1.534 1.079 2.626 1.857l-.792-1.894c1.052-.21 1.438.556 2.143.958a1.4 1.4 0 011.913.017.7.7 0 00.268.165c2.412.614 3.912 2.382 5.509 4.033a1.128 1.128 0 00.841.332l-1.56-2.325a3.765 3.765 0 011.2.024 2.565 2.565 0 01.819.719 1.279 1.279 0 001.908.361c.728-.444 2.156.084 2.939.962a11.794 11.794 0 01.987 1.4c.739 1.122 1.468 2.251 2.36 3.622-.287-1.762-1.132-3.156-1-4.67l.508-.129.783 1.566.778-.35a6.886 6.886 0 011.344 3.186c.143.619.35 1.061 1.165 1.016a1.992 1.992 0 00-.3-1.725c-.335-.388-.21-.756.4-.98a4.459 4.459 0 01.963 3.118c.04 1.07-.154 2.146-.207 3.222a1.835 1.835 0 01-1.312 1.756c-.88.325-1.373-.29-1.892-.795a2.339 2.339 0 01-.277-.526c-.906 1.026-1.9.7-3 .345a40.927 40.927 0 01-6.914-2.77c-1.479-.8-3.106-1.347-4.621-2.092-1.9-.935-3.75-1.961-4.738-3.943-.081-.163-.317-.253-.507-.4l-1.3.891c-.6-.518-1.2-1-1.756-1.526-.609-.583-1.164-1.2-2.173-.929-.161.043-.388-.138-.613-.228l-1.055.967-1.421-.818-1.052.469c-.812-1.351-2.238-.514-3.437-.884l-.8 1.08a1.53 1.53 0 01-.5-.1c-.6-.41-1.183-.842-1.772-1.267zm90.074 100.718c.038-1.179-.362-2.394.904-3.135 2.42.547 3.497 2.173 3.901 4.36-1.042 1.384-1.81 1.521-3.149.643a3.02 3.02 0 00-1.287-.466 19.694 19.694 0 00-3.174-.152 6.725 6.725 0 00-2.763.547 22.823 22.823 0 01-6.844 1.977c-3.66.712-7.31.144-10.93-.332a81.912 81.912 0 00-10.786-.991c-2.044.003-4.088.354-6.156.276a9.201 9.201 0 00-2.67.419 4.332 4.332 0 01-3.444-.58 12.25 12.25 0 00-3.161-1.01 21.622 21.622 0 00-2.988-.449 14.79 14.79 0 01-5.637-1.432 16.553 16.553 0 00-3.2-.934c-3.784-1.048-7.583-2.055-11.343-3.17a4.544 4.544 0 00-3.102-.035 1.927 1.927 0 01-2.337-.289 2.815 2.815 0 00-1.485-.452c-.667-.093-1.106-.334-1.021-1.263-1.32 1.007-2.147 2.27-3.648 2.7 2.429-2.972 5.04-5.771 7.73-8.748.612 1.245-.184 1.84-.658 2.498s-1.034 1.273-1.718 2.104a24.844 24.844 0 002.85-.367 2.3 2.3 0 011.681.09 1.875 1.875 0 00.918.13c1.373-.11 1.372-.124 1.795 1.241l17.723 2.507c-5.27.215-10.405-.802-15.483-1.687.629.473 1.27.966 1.925 1.439a2.476 2.476 0 00.698.358c3.85 1.186 7.64 2.611 11.665 3.158 2.043.277 4.128.284 6.197.374a14.035 14.035 0 016.168 1.358 2.677 2.677 0 001.504.228 46.718 46.718 0 004.076-.725 2.49 2.49 0 012.146.236 4.646 4.646 0 002.836.777c3.976.303 7.959.546 11.937.84a21.073 21.073 0 007.066-.605l-16.762-4.463a6.512 6.512 0 013.66.302c5.036 1.297 10.048 2.682 15.082 3.991a5.829 5.829 0 002.203.14c2.994-.417 5.97-.918 9.079-1.408m-19.123-68.193c.91-.618 1.815-1.242 2.733-1.849a8.919 8.919 0 00.837-.445 18 18 0 014.471-2.312c.362-.161.617-.547 1.1-1a31.54 31.54 0 017.182.33 29.343 29.343 0 015.245 1.248 17.749 17.749 0 003.558.65c-3.809-1.722-7.939-2.367-12-3.229 0-.1-.007-.209-.011-.314.3-.1.622-.324.905-.286 7.864 1.046 15.335 3.034 21.333 8.466q.406.369.781.77a3.665 3.665 0 01.729 1.041c-2.515-1.373-4.61-3.383-7.453-4.582a3.5 3.5 0 001.552 1.889c1.788 1.287 3.616 2.523 5.426 3.782a3.215 3.215 0 01.615.483.665.665 0 01-.329 1.111 2 2 0 01-1.938-.389c-1.468-1.187-2.939-2.371-4.388-3.579-.189-.158-.253-.454-.508-.608-.6 2.328-1.561 4.185-3.847 5.227 1.624.41 3.124-.158 4.864-.182-.251.33-.365.65-.562.708a8.844 8.844 0 01-1.865.367 55.521 55.521 0 01-21.627-3.132l-1.305-.433.064-.3 4.008.692c.119-1.2-.68-2.143-.8-3.211a29.974 29.974 0 01-.026-3.28 2.545 2.545 0 00-2.122.367c-1.11.494-2.181 1.076-3.251 1.651q-2.161 1.161-4.294 2.371c-.425.24-.778.4-.964-.223l1.886-1.8m21.539-2.2a2.571 2.571 0 00-.557-.289c-2.2-.486-4.229-1.515-6.6-1.457-1.824.045-3.056.774-3.416 2.492a18.018 18.018 0 00.1 5.771c2.152.894 11.121 2.175 14.035 2.017-.181-.71.288-1.145.731-1.591a6.522 6.522 0 001.7-3.428 1.4 1.4 0 00-.729-1.72c-1.237-.539-2.529-.96-3.8-1.43a2.01 2.01 0 00-.062 2.612c-2.03 2.616-6.953 2.443-9.02-.955l.89-.51a8.855 8.855 0 01.035-1.832 1.472 1.472 0 01.781-.851c.455-.207.73.161 1 .533a3.467 3.467 0 004.91.638m-69.047.386c.426-.649.8-1.32 1.275-1.924a5.954 5.954 0 001.138-4.382c-.091-1.067-.513-1.447-1.612-1.486-.581-.021-1.163 0-1.882 0-.165.515-.323.99-.469 1.468a4.725 4.725 0 01-2.321 2.813c-1.736.972-4.556-.334-4.778-2.217a1.13 1.13 0 011.033-1.173 9.9 9.9 0 011.591-.076 1.177 1.177 0 001.323-1.066 3.314 3.314 0 00-1.088-.339 29.076 29.076 0 00-6.311.9 3.9 3.9 0 00.5 3.638c2.107 3.683 1.159 2.958 5.371 3.655q4.4.727 8.837 1.218a42.035 42.035 0 004.374.025 2.355 2.355 0 01-1.9.7 46.5 46.5 0 01-10.136-1c-1.345-.3-2.717-.481-4.079-.707a10.741 10.741 0 01-1.258-.177c-1.01-.3-2-.646-3.1-1.007l.656-.5a8.62 8.62 0 01-1.454-5.5l-3.468 2.366 3.326 2.827a9.129 9.129 0 01-3.993-.675 11.276 11.276 0 01-2.524-.908 6.367 6.367 0 01-1.727-1.715c-.136-.182.132-.749.354-1.041.165-.216.557-.268.844-.4a15.764 15.764 0 003.4-1.647c1.149-.938 2.347-.128 3.509-.524a27.141 27.141 0 0111.818-.97 78.717 78.717 0 018.38.989c.966.21 1.843.379 2.162 1.51.126.446.674.773 1 1.178 1.006 1.255 2.078 2.471 2.965 3.8.588.881.458.968-.435 1.765a7.457 7.457 0 00-.52.577c-.823.906-1.24.914-1.973-.073a12.518 12.518 0 01-1-1.751 15.945 15.945 0 00-3.028-3.982c-.111.43-.279.716-.233.966a5.542 5.542 0 01-1.067 3.934 2.644 2.644 0 01-3.5.906"/><path d="M51.104 120.982a10.87 10.87 0 01-1.7.675 3.268 3.268 0 00-2.722 3.491c-.049 1.284 0 2.571-.024 3.856-.064 2.874-.218 5.748-.194 8.621a18.008 18.008 0 00.589 3.634 13.354 13.354 0 003.517 6.637c.283.289.619.528 1.074.911a6.392 6.392 0 00.25-1.143 64.987 64.987 0 011.243-11.009c.59-3.236.961-6.509 1.437-9.765.193-1.322.42-2.638.607-3.961.069-.486.144-1.022.765-.953a1.214 1.214 0 01.869.7c.166.751.727.965 1.319 1.2 2.369.924 4.737 1.85 7.115 2.753.548.208.944.443.755 1.151-3.362-.356-6.022-2.21-9.073-3.81-.128 1.259-.235 2.308-.34 3.356-.459 4.6-.774 9.22-1.43 13.794a70.981 70.981 0 01-1.982 7.767c-.077.293-.14.589-.229.961 3.138 2.168 6.2 4.309 9.873 5.607 6.92 2.448 14.085 3 21.354 3.108a27.723 27.723 0 007.37-1.151 5.6 5.6 0 012.232-.194c-.216.177-.4.434-.653.519a26.028 26.028 0 01-8.72 1.71c-4.291-.063-8.6-.17-12.86-.625a40.527 40.527 0 01-16.6-5.586 24.638 24.638 0 01-3.793-2.5 22.59 22.59 0 01-3.41-3.85 10.04 10.04 0 01-1.395-3.253c-.451-1.74-.7-3.531-1.02-5.3a1.485 1.485 0 01-.015-.615c.614-2.41-.078-4.8-.085-7.2 0-1.849-.011-3.7.093-5.544a4.562 4.562 0 011.6-3.416 4.152 4.152 0 014.183-.571m32.985-81.855c1.031-1.013 2.014-2.075 3.1-3.029a73.441 73.441 0 0110.523-8 42.777 42.777 0 0115.75-5.657 41.783 41.783 0 0113.322.286 74.147 74.147 0 0124.992 9.39 72.07 72.07 0 016.829 4.805 5.091 5.091 0 012.241 4.058 3.517 3.517 0 01-.441-.463 16.853 16.853 0 00-4.79-4.475 68.341 68.341 0 00-11.041-5.846 73.357 73.357 0 00-14.95-4.859 45.215 45.215 0 00-9.8-1.04 38.2 38.2 0 00-13.976 2.729 86.362 86.362 0 00-13.808 7.346c-2.346 1.507-4.595 3.155-6.9 4.728a4.617 4.617 0 01-.8.349l-.25-.322m49.277 117.611c-1.018-1.977-2.06-3.942-3.044-5.934-.594-1.2-1.119-2.44-1.632-3.677a15.77 15.77 0 01-.488-1.708c.921.431.911.436 1.929 2.533.449.927.945 1.834 1.446 2.8.176-2.051-1.712-8.564-3.2-10.811l.211 3.134c-.321-.054-.481-.038-.513-.092a19.5 19.5 0 01-2.75-6.843 8.306 8.306 0 01.914-5.984 30.886 30.886 0 012.862-3.486 1.433 1.433 0 01.884-.275c1.7-.13 3.395-.305 5.094-.326 3.442-.042 6.9-.2 10.323.062 5.032.38 10.057.954 15.05 1.675a264.81 264.81 0 0126.089 5.246c.531.132 1.035.37 1.675.6-.5.681-.969.494-1.412.4-3.122-.637-6.228-1.357-9.368-1.9q-9.114-1.569-18.26-2.968a177.291 177.291 0 00-18.253-1.61c-2.757-.136-5.516-.246-8.27-.433a2.01 2.01 0 00-1.935.732c-.486.6-1.151 1.071-1.656 1.662-1.715 2.011-1.605 4.377-1.313 6.76a1.086 1.086 0 00.372.659 10.013 10.013 0 012.66 4.163 21.467 21.467 0 012.016 8.2c.025.918.031 1.838.08 2.755a5.378 5.378 0 00.99 2.875c1.48 2.122 2.865 4.306 4.489 6.769-.613-.232-1-.268-1.2-.473-.9-.936-1.748-1.92-2.612-2.888l-.907-1.03-.276-.6m-64.43-93.311a4.51 4.51 0 01-.429.921c-2.711 3.531-3.844 7.65-4.6 11.865a63.3 63.3 0 00-.593 6.737c-.339 4.862-.7 9.725-.955 14.592a38.626 38.626 0 01-3.358 12.765 4.825 4.825 0 01-.627.834 3.041 3.041 0 01-.332-2.02 5.869 5.869 0 00-.709-3.843 5.6 5.6 0 01-.569-2.534 44.476 44.476 0 011.1-14.5c.68-2.947 1.69-5.823 2.549-8.732a5.3 5.3 0 00.182-.746A32.723 32.723 0 0164.955 67.1a24.808 24.808 0 012.825-3.515 2.786 2.786 0 01.872-.457l.282.293m-11.1 41.433l.331-.019 1.838-19.519c-1.933 6.407-3.072 12.883-2.169 19.537m161.82-38.936a38.687 38.687 0 00.513-6.319 60.454 60.454 0 00-.213-6.461c-.134-2.031-.863-4.006-.914-6.047l.463-.1a14.448 14.448 0 01.615 1.965c.356 2.123.744 4.248.94 6.387a46.755 46.755 0 01-.8 13.008 5.824 5.824 0 00-.1 1.685 47.348 47.348 0 01-.09 10.92 49.186 49.186 0 01-2.931 11.334 2.851 2.851 0 01-.448.568 2.307 2.307 0 01.007-1.849 63.1 63.1 0 001.6-15.746 70.861 70.861 0 00-1.911-15.7 50.025 50.025 0 00-5.6-14.035 17.207 17.207 0 00-3.969-4.8 11.561 11.561 0 00-1.31-.858 2.338 2.338 0 00-2.979.123c-.355-.779.058-1.146.607-1.407a3.028 3.028 0 012.326 0 8.64 8.64 0 013.306 2.1 26.88 26.88 0 014.837 6.655 57.369 57.369 0 014.737 12.4c.544 1.979.865 4.015 1.317 6.167M97.278 180.578a18.092 18.092 0 011.058-2.033 13.6 13.6 0 011.617-1.9c.808-.793 1.387-.847 2.224-.139a18.951 18.951 0 012.2 2.22c.662.78.861 1.9 1.89 2.429a.631.631 0 01.227.393c.629 2.584 2.372 4.531 4.138 6.4a6.3 6.3 0 007.353 1.81 3.494 3.494 0 01.775-.113 1.778 1.778 0 01-1.743 1.673 8.31 8.31 0 01-8.45-3.1 37.027 37.027 0 01-2.638-3.845c-.841-1.338-1.5-1.588-3.113-1.48-3.7.247-7.22-.185-10.088-2.814a9.457 9.457 0 01-2.525-3.823c-5.494 4.142-11.4 7.238-18.331 8.319.162-.123.3-.309.488-.361a67.045 67.045 0 0012.843-5.4 33.646 33.646 0 004.073-2.7 2.356 2.356 0 00.975-1.326c.335-2.462 1.933-4.185 3.532-5.907a25.988 25.988 0 012.334-2.1 2.11 2.11 0 011.938-.613c-.153.841-.839 1.129-1.339 1.522a17.372 17.372 0 00-3.922 4.439c-1.471 2.32-1.27 4 .656 6a11.013 11.013 0 003.824 2.446m40.159-16.298a4.539 4.539 0 011.047-.119c5.541.662 11.073 1.393 16.621 2 4.068.447 8.147.87 12.233 1.065 4.567.218 9.149.14 13.722.249a2.435 2.435 0 002.265-1.136c1.875-2.741 3.772-5.47 5.618-8.23.923-1.382 1.741-2.828 2.63-4.232a30.277 30.277 0 003.43-7.611 7.051 7.051 0 01.244-.73c.034-.08.152-.126.311-.249a1.715 1.715 0 01.014 1.432 45.285 45.285 0 01-7.463 16.08c-.824 1.134-1.642 2.272-2.489 3.446l.581.861a2.638 2.638 0 01-.413.329c-2.25 1.089-4.707 1.171-7.138 1.3a164.11 164.11 0 01-19.9-.333 87.755 87.755 0 01-15.453-2.132c-1.991-.5-3.971-1.037-5.956-1.559l.091-.436m-27.789-24.865c0-.825-.012-1.521 0-2.218.057-2.822.136-5.644.174-8.465a1.9 1.9 0 00-1.22-1.788 41.2 41.2 0 00-9.445-3.252 85.983 85.983 0 00-21.959-2.506c-6.393 0-12.786.043-19.179.066h-1.708l-.064-.3c.194-.128.378-.349.584-.371 3.271-.347 6.548-.64 9.816-1a78.871 78.871 0 0111.65-.226c9.736.356 19.26 1.794 28.292 5.536.488.2.959.444 1.435.674a1.287 1.287 0 001.455.083 1.065 1.065 0 011.581.57 12.9 12.9 0 011.04 3.041 16.264 16.264 0 01-1.953 9.835c-.055.11-.236.16-.5.33m32.346 76.736a4.935 4.935 0 01-2.747 2.306 16.471 16.471 0 01-5.475 1.583 2.041 2.041 0 00-.474.061c-4.766 1.682-9.666 1.165-14.512.647s-9.671-1.397-14.517-2.024a13.802 13.802 0 01-5.58-2.146c-.801-.499-1.55-1.087-2.386-1.523a16.602 16.602 0 01-5.413-5.144 3.226 3.226 0 01-.302-.973c.898-.13 1.202.433 1.559.83a23.448 23.448 0 004.956 4.329 13.008 13.008 0 004.795 1.897c6.972 1.216 14.034 1.71 21.037 2.65a6.322 6.322 0 013.298 1.023 2.306 2.306 0 001.36.305 22.743 22.743 0 007.504-1.165c2.034-.743 4.012-1.63 6.021-2.44a6.328 6.328 0 01.875-.216m89.444-74.009l-1.155.523c-.1-.112-.153-.144-.17-.188-.167-.446.364-1.162-.351-1.338a2.726 2.726 0 00-1.814.13 20.94 20.94 0 00-3.632 2.489c-1.99 1.779-3.868 3.678-5.744 5.572-1.212 1.224-2.339 2.526-3.5 3.8-.105.115-.282.26-.266.371.16 1.161-.688 2.142-.627 3.258a3.91 3.91 0 00.53 1.572c.858 1.575 1.591 3.194 1.131 5a38.911 38.911 0 01-1.361 3.932c-.19.511-.47.991-.709 1.485l.245.219 2.483-1.672a1.383 1.383 0 01.781 1.858c-.731 2.389-2.282 2.829-3.941 3.041a1.708 1.708 0 01-1.681-.665c-.456-.587-.972-1.13-1.583-1.831.4-.543.854-1.213 1.358-1.849a12.816 12.816 0 002.193-4.41 4.893 4.893 0 00-.555-4 4.9 4.9 0 01-.256-4.6 2.761 2.761 0 01.356-.679q3.795-4.552 7.611-9.088a25.762 25.762 0 015.651-4.73 5.8 5.8 0 012.093-.69 1.873 1.873 0 012.517 1.447c.1.29.217.576.394 1.042M128.168 187.31c-1.273.053-2.716-.225-4.062.507a.787.787 0 01-1.2-.367 2.177 2.177 0 01.165-1.1c.035-.129.2-.237.326-.328 3.574-2.575 7.347-4.688 11.98-4.807a3.71 3.71 0 012.981 1.768 2.312 2.312 0 01-.846 2.609 6.965 6.965 0 01-2.258 1.075 30.309 30.309 0 01-4.081.628c-.946.093-1.91.018-3.008.018m-19.305-45.039a3.478 3.478 0 01.012 2.431 22.423 22.423 0 01-4.014 7.316 14.409 14.409 0 00-1.182 1.67c1.283-.569 2.525-1.182 3.946-.353a1.555 1.555 0 01-1.054 1.716 10.393 10.393 0 00-4.821 4.755c-.955 1.662-1.887 3.336-2.854 4.991a5.336 5.336 0 01-.73.8c-.515-1.248-.362-2.339 1.011-7.49-2.05.959-3.441 2.782-5.767 3.173.307-.3.607-.6.924-.891 2.709-2.469 5.487-4.871 8.113-7.42a26.421 26.421 0 005.322-7.463 27.511 27.511 0 001.1-3.238"/><path d="M182.504 162.525c.311-.8.618-1.592.934-2.387a94.5 94.5 0 015.587-10.893c.954-1.717 1.841-3.47 2.7-5.236 1.467-3.033.84-5.894-.883-8.635a1.983 1.983 0 01-.439-1.42c.877-.292 1.264.359 1.61.879 2.166 3.252 2.955 6.7 1.259 10.373a95.567 95.567 0 01-8.168 14.959c-.534.763-1.141 1.479-1.735 2.2a2.1 2.1 0 01-.5.336l-.356-.177m-48.373 26.453a9.832 9.832 0 011.212-.637c2.137-.778 4.274-1.558 6.436-2.265a3.6 3.6 0 001.679-1.089 7.117 7.117 0 001.748-6.316 21.542 21.542 0 00-1.14-3.833 4.1 4.1 0 00-2.25-2.633 1.577 1.577 0 01-.707-.788c-.4-.847.106-1.514 1.031-1.29a4.029 4.029 0 011.6.9 10.575 10.575 0 012.709 4.309c1.072 2.733 1.593 5.542.575 8.418a5.7 5.7 0 01-1.78 2.868 3.68 3.68 0 01-1.777.938c-1.661.04-3.022.949-4.579 1.233-1.2.22-2.393.454-3.6.636a4.458 4.458 0 01-1.059-.093l-.1-.357M117.243 21.05c.693-.338 1.363-.732 2.083-1 4.41-1.667 8.807-3.389 13.549-4.009 6.2-.811 12.013.125 17.107 3.838a20.9 20.9 0 016.611 7.811 9.305 9.305 0 01.463 1.673l-.333.146a3.793 3.793 0 01-.583-.762 17.043 17.043 0 00-3.164-4.613 20.378 20.378 0 00-12.91-6.728 33.666 33.666 0 00-13.856 1.317c-2.751.784-5.472 1.668-8.21 2.5a3.173 3.173 0 01-.689.054l-.069-.221m66.788 16.54a24.179 24.179 0 00-3.13-5.709 48.631 48.631 0 00-5.887-7.088 62.265 62.265 0 00-21.014-14 91.97 91.97 0 00-11.219-3.554 3.733 3.733 0 01-1.459-.661 2.017 2.017 0 01.534-.045 73.236 73.236 0 0111.12 2.751 58.6 58.6 0 0115.242 8.3 56.448 56.448 0 019.922 9.333 74.057 74.057 0 014.755 6.747 12.913 12.913 0 011.212 2.846 2.788 2.788 0 01-.077 1.073"/><path d="M185.43 32.949a12.1 12.1 0 01-.685-1.138 33.266 33.266 0 00-4.966-7.7 42.531 42.531 0 00-10.607-8.818 88.144 88.144 0 00-18.259-8.058c-.992-.317-1.952-.727-2.926-1.094l.1-.31c.968.239 1.955.422 2.9.726 3.534 1.134 7.128 2.134 10.563 3.5a49.333 49.333 0 0115.15 9.316 44.887 44.887 0 015.373 6.092 46.258 46.258 0 013.165 5.35 2.764 2.764 0 01.543 1.992l-.35.141M140.77 160.966c1.149.147 2.305.253 3.445.45 3.453.594 6.886 1.3 10.351 1.813 2.937.433 5.9.7 8.863.952a42.439 42.439 0 005.079.13c2.648-.095 5.292-.314 7.937-.487a9.062 9.062 0 012.7.082 8.735 8.735 0 01-1.4.5 72.459 72.459 0 01-17.143.906 73.787 73.787 0 01-18.417-3.374c-.4-.131-.806-.26-1.2-.419-.132-.054-.226-.2-.338-.3l.123-.253m-72.034-31.888c-.012-.988.665-1.32 1.177-1.677a20.5 20.5 0 016.18-2.79 30.022 30.022 0 018.292-1.38c2.431 0 4.861.305 7.291.495a3.557 3.557 0 01.826.31c-.319.548-.794.52-1.232.531-1.331.033-2.667-.017-3.991.087-4.129.323-8.277.562-12.269 1.767a17.571 17.571 0 00-5.23 2.229 5.544 5.544 0 01-1.047.431m39.356 11.508c.856.62.518 1.239.317 1.783a20.475 20.475 0 01-3.373 6.083c-1.928 2.316-4.019 4.506-6.054 6.739-.6.655-1.226 1.283-1.866 1.9a3.761 3.761 0 01-1 .751 1.024 1.024 0 01-.873-.038.856.856 0 01-.221-.815 7.1 7.1 0 011.209-1.772c1.75-1.722 3.573-3.375 5.351-5.071a24.955 24.955 0 006.13-8.916 5.826 5.826 0 01.379-.644m15.524-100.738c.608-.881.052-1.485-.606-1.944a28.3 28.3 0 00-3.348-2.075 26.242 26.242 0 00-12.42-2.862c-5.778.109-11.413 1.044-16.526 3.912-.688.386-1.419.7-2.136 1.036-.072.033-.188-.021-.434-.055a3.913 3.913 0 01.556-.533 32.717 32.717 0 0113.1-4.924 33.41 33.41 0 0112.914.7 23.419 23.419 0 018.932 4.593c1.015.83 1.009 1.135.154 2.3l-.187-.158m73.524-19.481c2.242-.277 4.221 1.987 6.044 6.763a19.935 19.935 0 0112.064 2.65 7.1 7.1 0 01-1.1-.1c-1.081-.264-2.151-.568-3.225-.854-.205-.054-.55-.192-.6-.126-.88 1.133-1.921.254-2.873.219a27.723 27.723 0 00-7.758.593c-.446.11-.906.168-1.716.316.411-.371.531-.572.691-.608 1.132-.252 1.6-1.482 2.791-1.7.577-.1.556-.69.407-1.163a9.448 9.448 0 00-4.161-5.611c-.165-.1-.318-.216-.565-.385m-92.991 204.443a1.6 1.6 0 01.53-.235 42.723 42.723 0 0113.215 1.333 59.795 59.795 0 015.795 2.145c.516.21 1.266.378 1.268 1.255-.462.435-.968.253-1.45.06a58.824 58.824 0 00-12.29-3.159c-1.88-.313-3.781-.518-5.67-.789-.463-.066-.914-.203-1.37-.306a15.6 15.6 0 01-.028-.304m29.224-68.053l.276.6c.417.825.83 1.652 1.252 2.475a3.436 3.436 0 01.5 1.525 4 4 0 01-.814-.509 34.527 34.527 0 01-5.86-7.847 42.833 42.833 0 01-3.347-6.981c-.186-.588-.348-1.1.632-1.345a8.394 8.394 0 01.6 1 82.083 82.083 0 005.954 10.36 3.854 3.854 0 00.807.722m-8.445-15.431c-.53-.556-.83-.823-1.072-1.133-.924-1.185-1.815-2.395-2.751-3.571a5.987 5.987 0 00-1.118-1.087 2.459 2.459 0 00-3.835.529c-.188.235-.386.462-.587.7a1.05 1.05 0 01-.712-1.517 3.293 3.293 0 012.27-2.2 4.369 4.369 0 014.318.848 8.212 8.212 0 012.628 3.79 8.624 8.624 0 01.858 3.642m89.549-44.937a2.447 2.447 0 01.766 1.977c.036 1.8-.01 3.593-.021 5.389-.018 3.123-.092 6.246-.032 9.368.041 2.093.24 4.186.435 6.273a16.082 16.082 0 00.513 2.388 2.249 2.249 0 01-.226 2.107c-.8-.137-.993-.681-1.062-1.315-.24-2.193-.5-4.385-.705-6.582a88.748 88.748 0 01.314-14.876c.116-1.515.018-3.046.018-4.728m3.732 27.65a10.709 10.709 0 01-.527-1.853 80.194 80.194 0 01.879-22.231c.31-1.739.546-3.49.826-5.3a1.549 1.549 0 01.4 1.493 45.652 45.652 0 01-.4 3.669 90.851 90.851 0 00-1.14 15.945c.048 1.995.33 3.984.471 5.977.053.747.009 1.5.009 2.249l-.514.052M93.441 296.223c1.347 1.912 2.683 3.831 4.043 5.734a126.522 126.522 0 009.176 11.459 63.921 63.921 0 006.878 6.645 3.335 3.335 0 011.012.982 3.552 3.552 0 01-2.12-1.153 68.63 68.63 0 01-7.16-7.025 124.89 124.89 0 01-9.6-12.489c-.861-1.293-1.64-2.637-2.456-3.957l.229-.2m52.293-149.996c2.7.738 5.388 1.552 8.115 2.2a50.039 50.039 0 0011.487 1.725c2 0 4-.222 6.145-.352a4 4 0 01-1.11.642 23.281 23.281 0 01-3.306.443 46.949 46.949 0 01-17.057-2.775c-1.5-.5-2.97-1.061-4.454-1.595l.18-.284m-5.769-7.651l-1.886 1.8c-.367.05-.7-.031-.581-.46a10.523 10.523 0 013.134-5.6c.87-.739 2.021-.672 3.113-.738l-3.78 4.991m-43.68 4.407c-2.342 1.7-12.472.5-16.3-1.846 5.307.883 10.531 2.4 16.3 1.846m12.048 130.296c.65.627 1.2 1.147 1.736 1.674a23.691 23.691 0 005.47 4.217 9.63 9.63 0 002.82 1c1.908.319 2.578-.133 3.3-1.977a1.435 1.435 0 01-.137 1.618 3.156 3.156 0 01-2.192 1.131 6.852 6.852 0 01-3.533-.813 20.686 20.686 0 01-7.487-6.342c-.044-.058 0-.18.021-.5m4.304-70.321c4.276.527 8.417 1.625 12.752 1.362l.037.34a2.454 2.454 0 01-.687.306 25.986 25.986 0 01-11.534-1.596 2.44 2.44 0 01-.568-.412m-43.636-96.925a2.147 2.147 0 01-.645 1.777l-2.376-1.318-1.382 1.945a8.662 8.662 0 01-.831-.76c-.895-1.11-.61-1.671.766-2.034a7.69 7.69 0 014.485.409zm46.982 10.839a26.356 26.356 0 002.07-6.889c.281-2.35.456-4.712.683-7.119.212.109.371.149.373.2a33.375 33.375 0 01-.851 10.164 13.709 13.709 0 01-1.491 3.02c-.149.267-.517.421-.784.627m35.801 59.621c1.964 5.119 5.457 8.945 8.355 13.119l-.237.2a2.894 2.894 0 01-.691-.478c-2.691-3.428-5.451-6.815-7.293-10.779a1.928 1.928 0 01-.133-2.059m-31.1 3.99c-2.1 1.828-10.22.726-14.125-1.841.406.1.823.179 1.218.314a28.875 28.875 0 009.323 1.817c1.2 0 2.4-.188 3.584-.289"/><path d="M199.261 27.499c-.857-3.806-3.619-6.01-6.827-7.894 1.849-.1 3.135.918 4.338 2.02 1.652 1.513 2.765 4.088 2.489 5.873M177.62 142.26l7.3-.286c-.191.719-.841.938-1.484 1.087a8.371 8.371 0 01-5.819-.8M58.922 130.514c2.2-.037 4.4-.081 6.593-.1a2.775 2.775 0 01.758.251c-1.634 1.072-5.3 1.114-7.351-.151m34.287 165.905a3.919 3.919 0 01-.647-.663q-2.049-3.461-4.052-6.948a9.99 9.99 0 01-.549-1.383l.287-.132 5.19 8.93-.229.2m91.022-146.701a18.275 18.275 0 01-6.989-4.777 18.541 18.541 0 013.6 2.212 16.943 16.943 0 013.384 2.565M70.708 211.621a12.985 12.985 0 01-2.877-8.747 47.382 47.382 0 002.877 8.747m42.827-73.831a23.06 23.06 0 01-2.956 6.865l-.357-.143 2.944-6.893.37.171m65.125 6.257a37.781 37.781 0 016.131.328 6.426 6.426 0 01-6.131-.328M63.595 133.022a3.942 3.942 0 01-4.47-.787l4.47.787m70.12 177.805l3.771-3.406a12.514 12.514 0 01-3.519 3.647l-.251-.241"/></g></svg>