<svg version="1.1" id="Layer_1" xmlns="http://www.w3.org/2000/svg" x="0" y="0" viewBox="0 0 304.5 205.3" xml:space="preserve"><g id="Group_121"><g transform="rotate(4.01 -2518.854 156.7)"><g id="Group_40" transform="translate(0 -177.134)"><g id="Group_38" transform="translate(35.086 84.089)"><path id="Path_37" d="M221-38.8c-1.8-.5-3.6-.9-5.4-1.4-5-1.2-10.1-1.9-15.2-2.2-6.7-.6-13.4-.8-20-.9-5.3-.1-10.5.1-15.8.2-6.8.1-13.6.6-20.4 1.3-18.3 1.9-36.3 5.3-54 10.3-32.4 9-63.6 21.9-93 38.3-8.6 4.8-16.8 10.2-24.6 16.3-.4.3-.7.6-1.2.9 0 .5.1 1.1.2 1.6.9 3.8 1.4 7.7 1.8 11.6.5 6 1 11.9 1.4 17.9.3 4.4.4 8.9.5 13.3.2 7 .3 14 .3 21 0 4-.1 8-.4 11.9-.3 3.5.2 6.9.1 10.4 0 .1.1.2.2.4.2-.1.4-.2.6-.4C-17.5 106-10.5 101.1-3 97c12.1-6.6 25-11.8 38.3-15.5 9-2.6 18.2-4.5 27.5-5.8 5.3-.7 10.7-1.4 16.1-1.9 10.8-1 21.7-1.5 32.6-1.3 7.1 0 14.1.3 21.2.8 6.9.4 13.7 1.1 20.5 1.9 8.7 1 17.3 2.5 25.9 4 7.8 1.4 15.5 2.8 23.2 4.8 3.9 1 7.8 2.2 11.7 3.3.5.1 1 .2 1.6.4 0-.7.1-1.2.1-1.8-.1-9.4-.3-18.8-.2-28.2.1-12.7.4-25.5.8-38.2.2-6 .6-11.9.9-17.9.3-6.4.6-12.8 1-19.3.3-6 .7-12.1 1.1-18.1.1-.7.2-1.4.5-2 .1-.4.6-.7 1-.6.1 0 .1 0 .2.1 0 .2.1.5.1.7-.5 4.9-.7 9.9-.5 14.8.1 4.9.3 9.9.9 14.8.1.8.1 1.7.1 2.5-.3 3.8-.6 7.6-.8 11.3-.3 4-.5 8-.6 11.9-.2 6.2-.3 12.3-.4 18.5 0 3.5.2 7.1.3 10.6 0 2.1 0 4.1-.1 6.2-.2 4-.4 8.1-.6 12.1-.4 7.6-.9 15.1-1.3 22.7 0 .2 0 .4.1.5l2.3 1.3c0 .1-.1.2-.1.2-.4 0-.8-.1-1.3-.1-.3 0-.7-.3-.9-.1-.8.6-2 .4-2.6-.4l-.1-.1c-.2-.2-.7-.2-1.1-.3-6.5-1.2-13-2.3-19.5-3.5-4.9-.9-9.9-1.7-14.8-2.5-4.7-.8-9.4-1.5-14.1-2.1-4.5-.6-9-1.2-13.6-1.8-2.9-.3-5.7-.6-8.6-.9-4.9-.4-9.7-.8-14.6-1.2-3.3-.3-6.6-.8-10-1.2-4.2-.4-8.3-.8-12.5-1-6.7-.4-13.5-.3-20.2.1-4.3.4-8.6.8-12.8 1.3-2.1.2-4.2.8-6.3 1.1-3.4.5-6.7 1-10.1 1.5-7.8 1.1-15.4 2.9-22.9 5.1-7.6 2.3-15.2 4.9-22.5 8-8.9 3.7-17.3 8.6-25 14.4-3.8 2.9-7.7 5.8-11.5 8.8-.1.1-.3.1-.5.2-.7-.7-1.2-1.6-1.3-2.6-.2-1.7-.3-3.3-.4-5-.2-1.8-.1-3.7-.8-5.5-.2-.7-.3-1.4-.2-2.1l-.3-16.6c-.1-6-.6-12.1-1.1-18.1-.1-.9-.1-1.8-.2-2.7-.3-7.2-.5-14.4-.9-21.6-.3-4.6-.8-9.3-1.2-14.2l-1.6.2c1-.8 1.6-1.9 1.6-3.2.1-1.6.9-1.9 2.4-1.2.1 0 .3.1.4.1 1.8-1.5 3.5-3.1 5.4-4.6 9.1-7.4 18.8-14 29-19.7 17-9.4 34.6-17.5 52.8-24.3 16.2-6.2 32.9-11 49.9-14.5 7.1-1.5 14.3-2.7 21.5-3.7 6.1-.8 12.3-1.5 18.4-1.9 10.9-.8 21.8-1.2 32.8-1 6.7.1 13.4.4 20 1.1 5.6.6 11.2 1.5 16.5 3.8 1 .4 2 .9 3 1.4.8.5.8.6.4 2"/></g></g></g><g transform="rotate(4.01 -2518.854 156.7)"><g id="Group_84" transform="translate(0 -177.135)"><g id="Group_41" transform="translate(93.56 104.059)"><path id="Path_40" d="M48.1 2.4c.8-.7.4-1.7.7-2.6.2-.5 0-1.1-.5-1.4-.2.4-.5.8-.4.9.7 1 .4 2.1.2 3.1m43.3-18.5c-1.6 1.1-2.8 2.7-3.2 4.6 2.1-.4 2.3-.2 2.8 1.6.1.4.2.7.5 1.4.6-1.4 1-2.9 1.2-4.4.3-1.1-.3-2.5-1.3-3.2M60.7 40.3c.4-.7.7-1.5.9-2.3.5-1.5.4-3.2-.3-4.7-.4-.9-1-1.7-2.2-1.5-.5.5-.7 1.3-.6 2V37c0 .8-.2 1.6-.3 2.5.7.8 1.7 1.1 2.5.8m-15.8-6.4h-.4c-1.9 1.5-3.9 2.9-5.8 4.4-.2.2-.3.4-.5.6-.9 1.2-1.7 2.4-2.6 3.6-.2.2-.3.5-.5.9 2.1-.1 4-.2 5.9-.4s3.9-.1 5.8-.5c-2.3-4.5-2.3-3.4-1.9-8.6m5.4-5.1c2.4 1.2 4.4 2.7 6.8 3.6.2-.2.3-.3.4-.5 1.1-1.7 2.2-1.9 3.8-.8.5.4 1 1 1.4 1.5.3.4.5.8.7 1.2.4-.2.7-.3.9-.4.8-.4 1.6-.9 2.3-1.4.8-.6 1.4-1.2 2.1-1.9 3.1-2.7 6.2-5.4 9.2-8.2 2.6-2.5 4.9-5.3 6.8-8.3.8-1.2 1.4-2.5 1.8-3.9-.5-.7-1.1-1.2-1.9-1.5-.4.8-.5 1.4.4 2-.8.7-1.5 1.5-2.2 2.2-.6.6-1.3 1.2-1.9 1.9-2 2.3-4.4 4.4-7 6-3.4 2.2-7.1 3.6-11.3 3.1-.1 0-.2.1-.4.1.3 1.8 1.6 3.3 1.7 5.4-1.3-.8-1.5-2-2-3-.5-1.1-1-2.2-1.5-3.2-.9-.5-2-.2-2.4.7-.1.1-.1.3-.2.4-.7 1.6-1.5 3.3-2.2 4.9-.2.3-.3.6-.5.9-.1-.9-.6-1.8-1.4-2.3-.6-.5-1.1-1.1-1.5-1.7-.2-.3-.5-.5-.8-.8-.3 1.4-.7 2.6-1.1 4m2.8-13.6l1.4.3c.4 1 .6 1.8 1 2.6.9 2.3 3.5 3.6 5.9 2.8 1.5-.4 2.9-1 4.4-1.5l1.5-.6c.1.1.1.2.2.3l-1.7 1.2c.5.1 1.1.1 1.6-.1 5.5-2.6 10.7-5.7 15.6-9.1.5-.4.8-1 .7-1.6-.1-2.2-.2-4.4-.3-6.5 0-.8-.1-1.7-.1-2.5l1.5-.6c.4.7.8 1.3 1.2 2 1.9-1.7 3.3-4 3.8-6.6-.5.2-.9.4-1.4.5-.4 0-.9-.1-1.2-.4-.4-.3-.6-.8-.4-1.3 1.4.6 1.8.6 2.5-.4.9-1.2 1-2.8.2-4.1-1.1.1-1.6 1.5-2.7 1.4-.1-1.1.1-2.2.5-3.2.5-1.5 1.4-2.9 2.6-4 1-.8 1.4-.8 2.6-.1.1.1.3.1.5.2-.2-.8-.3-1.5-.4-2.2-.7-.2-1.5-.1-2.1.2-1 .6-1.8 1.4-2.4 2.4-.2.5-.5 1-.8 1.5-.9 1.4-1.7 2.9-2.2 4.5-.1.3-.3.6-.5 1-.6-3.6 2.3-7.9 6.1-10.8.5-1.3.9-2.5 1.3-3.7 0-.3 0-.7-.1-1-.5.8-.7 1.2-.9 1.7-1.4 2.4-3.2 4.5-5.4 6.3-.4.3-.8.7-1.5.3.4-.5.8-.9 1.2-1.2 1.8-1.6 3.4-3.5 4.8-5.5 1-1.3 1.5-2.9 1.7-4.5L90-28.3c-.2.6-.4 1.1-.5 1.5-.7 2.3-1.9 4.5-3.4 6.4-.5.6-1.1 1.1-1.7 1.6-.2.1-.5.1-.8.1v-.4c2.7-3.1 4.8-6.7 5.9-10.7.1-.2.2-.4.4-.6 1-1.1 1-1.3.3-2.4-.6-1-1.2-2-1.9-3.1l-2.5-.5c-.5-.7-.6-1.5-.4-2.3.1-.6 0-1.1-.3-1.6-.7-.7-1.5-1.3-2.4-1.7-2.3-1-4.8-2-7.1-2.9-1.9-.7-3.9-1.1-5.9-.9-2.4.1-4.7.1-7.1.4-1.3.1-2.7.5-3.9.9-.5.2-.8 1-1.3 1.5-1.9 2.3-3.7 4.6-5.6 6.9-1.8 2.1-2.9 4.7-4.4 7.1.3.3.6.5 1 .8.3-.7.5-1.3.7-1.9.7-1.8 1.7-3.5 3-4.9.4-.4.8-.8 1.3-1.1.4-.3.7-.2.9.5-2 2.4-3.5 5.1-4.4 8.1-1.4 4.8-1.7 7.7-1 9.3l3.2-2c1.6.3 2.6 1.5 4.2 1.8 0-.5 0-1 .1-1.5.1-.6.3-1.1.6-1.6.2-.2.4-.3.6-.2.2.1.3.3.4.6v.4c-.6 1.9 0 3.8.1 5.7.1.4.3.7.5 1l1.3-.9.1.2c-2.4 3.5-4.1 7.4-5.2 11.5-.5 2 .2 3.2 2.2 4 2.6-2.1 2.6-2.1 5-1.2.3-1 1.1-1.8.4-3-.2-.3-.1-.7.2-1 .1-.1.2-.1.3-.1.7 1.7 1.8 3.2 3.1 4.5l-2.4-1.4c-.1.3-.2.5-.3.6-.8 1.6-1.1 1.7-2.8 1-.4-.1-.8-.1-1.2 0 .7 1.4 1.7 2.5 3 3.4-1.2.1-2.4-.4-3.1-1.4-.1-.1-.3-.2-.5-.2l-.4.7c-.3-.1-.6-.3-.8-.4-.4.8-1 1.5-1.8 1.9.1-.5.1-.9.1-1.4 0-.2-.1-.4-.1-.5L54.3 2c-.6 1.2-1.1 2.3-1.6 3.5-.2-.9-.2-1.8.1-2.7.5-1 .6-2.2.5-3.3 0-.5 0-1 .3-1.5.7-1.9 1.4-3.9 2.1-5.8.1-.4.3-.8.6-1.6-1.1.9-1.9 1.6-2.7 2.1-1.5 1.1-2.3 1-3.5-.4-.6-.6-1-1.5-1.1-2.3.5.4.9.8 1.3 1.3 1.1 1.1 1.4 1.2 2.6.3s2.4-1.9 3.6-2.9c.4-.4.7-.8 1-1.2l-1.8-.8c-1 1.9-1.9 2.5-3.7 2.2-.6-.1-1.3 0-1.8.2-.7.4-1.6.3-2-.4.2-.8.4-1.5.7-2.2.3-.8.7-1.5 1.1-2.2.8-1.1 2.2-1.2 3.3-.2-2.5-.2-3.1.3-3.1 2.4.8-.4 1.5-.7 2.3-1.1.9-.5 1.9-.5 2.8 0 .6.4 1.3.5 2 .3-.1-1.1-.7-2-1.6-2.5-.7-.4-1.4-.9-2-1.5-.3-.2-.7-.5-1-.5-1.5.3-2.9 1-4 2.1-.2.1-.2.5-.2.7-.4 2.7-.8 5.3-1.2 8 1.4 1 2.3 2.6 2.4 4.3.1.3.1.5.3.7.7 1.9.8 3.9.3 5.9C50 4 49.7 5 49.4 6c-.4 1.1-.3 2.3.3 3.3.9 1.5 1.8 2.9 2.8 4.4-.1.6.3 1.1.6 1.5l-1.8-.8c-.7 4.1 1.1 10.2 3.6 12.6.7-1.6 1.4-3.3 2.1-4.9-.1-.1-.1-.3-.2-.3-1.7-1.2-2.8-3.1-3.1-5.2-.1-.5-.3-.9-.6-1.4m9 25.6c-.4.2-.9.5-1.4.6-1.3.5-2.8.2-3.7-.8-.5-.4-.7-1.1-.5-1.7.3-1.4.4-2.9.3-4.4-2.9-.9-5.1-2.7-7.5-4.6-1.8 2.6-3.2 5.1-2.7 8.3.2 1.4.6 2.7 1 4.2.8-.2 1.6-.4 2.4-.7.8-.3 1.5-.6 2.3-1 .7-.3 1.4-.7 2.3-1.1-.6 1.3-2 1.5-2.6 2.5 3.5.2 7 .2 10.5-.3-.5-.2-.7-.7-.6-1.1.1.2.1.1.2.1 1.3 0 2.8 0 4.1.2 2.1.1 4.1.1 6.2-.3 2.1-3.8 2.3-7.4-.9-9.9-2.6 1.4-5.2 2.9-8 4.4.3 2-.3 4-1.4 5.6M44.3-10.1c.6 0 1-.1 1.1-.8.7-4.2 1.8-8.3 2.1-12.5.2-1.5.4-3 .7-4.4-.9.9-1.4 2.3-1.2 3.6.1.8-.1 1.5-.5 2.2-.3.5-.3 1.1-.2 1.7 0 1.9-.4 3.8-1.1 5.6-.6-.4-.8-.7-.7-1.2l.3-2.1c.1-.7.6-1.4 0-2.2-.2-.3 0-1.1.3-1.4.7-1.2 1-2.5 1-3.8 0-.3-.1-.7.1-.9.4-.7-.1-1.2-.5-1.7 0-.2.1-.4.1-.6 1.8-2.9 3.2-6 5.5-8.5 1.4-1.5 2.8-3.2 4.3-5-.3 0-.5-.1-.8-.1-.9-.3-1.1-.9-.5-1.6.1-.1.3-.3.5-.4 2.2-1.4 4.6-2.3 7.2-2.5h1.5c1-.1 1.9 0 2.9.3 1.1.4 1.6-.6 2.5-.6 2.2-.2 4.4 0 6.5.5 2.2.8 4.5 1.6 6.7 2.4.9.3 1.7.5 2.6.6.2.1.5.1.8.1 1.5.2 2.6 1.4 2.5 2.9.1.9 0 1.8 0 2.8.4.1.8.2 1.2.4.4.2.8.5 1 .8.6 1.3 1 2.6 1.6 3.9.4.8.4 1.6.1 2.4v.7l.3.3c1.7 1 1.7 1.1 1.4 2.9-.1.4-.1.9 0 1.3.2.7.2 1.4-.2 2-.4.9-.8 1.9-1.2 2.9 1.3.6 1.4 1.6 1.5 2.9C94-11 92.4-4.8 89.1.4c-.2.3-.4.7-.6 1-1.2 1.6-1.7 1.7-3.7 1.2v3.8l3 3.2h3.7c1.3 0 2.6-.1 3.9-.1 3.8 0 7.6-.1 11.4 0 3 .1 5.9.2 8.9.5 3.8.3 7.7.7 11.5 1.3 5.5.9 11 2 16.5 3 .2 0 .4.2.5.4h-.6c-5.6-.8-11.3-1.7-16.9-2.5-4.1-.6-8.3-1.1-12.4-1.4-7-.6-14-.7-21-.3-1 .1-2.1.1-3.1.1-.6 0-1.3.1-2 .1.1.9.3 1.8.6 2.7.3.8.8 1.5 1.6 1.9 1.3.8 2.4 2 2.9 3.4.2.3.3.7.5 1 1.6 3.4 4.8 5.7 8.5 6.1 2 .3 4 .7 6.1 1 .4.1.9 0 1.3-.1.9-.4 1.9 0 2.4.7.5.6 1 1.3 1.4 2.1 1 2 2.3 3.7 3.9 5.2 1.4 1.3 2.5 3 3.1 4.8 1 2.7 1.9 5.5 3 8.7-.7-.4-1.1-.5-1.2-.7-.5-.7-1-1.5-1.4-2.3-.6-1.3-1.1-2.6-1.6-3.9-1-2.6-2.6-4.9-4.7-6.7-1.1-1-2-2.2-2.6-3.6-.1-.2-.2-.5-.3-.7-.7-1.9-2.1-2.3-3.9-2.3-2.1 0-4.1-.2-6.1-.4-3.7-.4-7-2.6-8.7-6-.3-.5-.6-1.1-1-1.9-.3.7-.5 1-.6 1.4-1.3 3.6-3 7.1-5.2 10.3-.6.8-1.2 1.5-1.8 2.2-.3.2-.6.4-1 .5 0-1 .3-2 .8-2.9.8-1.4 1.5-2.8 2.3-4.2 1.5-2.4 2.7-5 3.7-7.6.3-.8.5-1.6.8-2.5-1.8-.5-3.3-1.9-3.9-3.6-1.3 2-2.5 3.9-3.9 5.6-1.5 1.8-3.1 3.5-4.8 5.1-1.6 1.5-3.4 2.9-5.1 4.5l.8.6c-.2.3-.3.6-.5.9 0 .1.1.2.1.3 2.1 2.7 2.2 6.4.2 9.1-.1.1-.2.2-.2.3.1 1.2-.8 1.7-2 2.3.4.1.7.2 1.1.3 3.8.2 7.6.4 11.4.7 4.5.4 9 .8 13.4 1.4 4.7.6 9.4 1.2 14.1 2.1 9.1 1.4 18.2 3.5 27 6.1.8.2 1.6.6 2.3 1-.4-.1-.8-.1-1.2-.2-9.1-2.2-18.2-4.2-27.5-5.6-6.2-.9-12.3-1.8-18.5-2.5-3.4-.4-6.8-.6-10.2-.9-11.1-.9-22.2-1.1-33.3-.7-5.3.1-10.5.6-15.8 1-4.1.3-8.2.8-12.3 1.3-4.3.6-8.7 1.2-12.9 2-6.4 1.2-12.9 2.4-19.3 3.8-7.6 1.6-15.1 3.7-22.4 6.4h-.6c.1-.7.6-.8 1.1-1 2.1-.7 4.1-1.5 6.2-2.1 11.1-3.4 22.3-6 33.7-7.9 5.2-.9 10.4-1.7 15.6-2.5 2.6-.4 5.2-.6 7.8-.9.9 0 1.7-.5 2.3-1.2 1.2-1.7 2.6-3.2 3.8-4.8 1.7-2.4 4-4.4 6.5-5.9 2.6-1.5 4.7-3.8 6-6.6.4-.6.8-1.2 1.3-1.8-1.3-3.1-2-6.6-.7-10.1-.8-1.3-1.5-2.6-2.3-3.8s-1-2.7-.6-4.1c.1-.3.1-.6.2-1-1.1.9-1.2 1.2-1.3 3.5-.7 0-.9-.4-.9-1-.1-1 .2-2 .8-2.7.8-1 .6-2.2.9-3.3V.6c-.6-.5-.7-1.3-.5-2l-1.2-.5 2.2-.7c0-2.4-.7-2.8-2.7-4.5 0 1 0 2 .2 2.9.4.6.3 1.5-.3 2-.6-.6-.9-1.6-.7-2.5.2-1.3 0-2.7.8-3.9.3-.6-.2-1.1-.9-1.5z"/></g><g id="Group_42" transform="translate(90.768 94.635)"><path id="Path_41" d="M-31.6-8c0 1-.1 1.7 0 2.4.3 3.6.7 7.2 1 10.7s.6 6.9.9 10.4c.3 3.8.6 7.7.9 11.5.3 3.6.5 7.2.7 10.8.5 8.2.5 16.3.2 24.5 0 .9-.2 1.8-.4 2.7-.1.2-.3.4-.5.4-.2-.1-.4-.2-.5-.5-.2-1-.3-2-.3-3.1v-9.6c0-5.2 0-10.4-.2-15.6-.1-4.1-.6-8.2-.9-12.3-.3-3.5-.6-7-.8-10.6-.4-4.3-.8-8.6-1.1-12.9-.2-2.2-.2-4.4-.3-6.5 0-.6-.2-1.2-.3-1.9 4.4-3 9.1-5.6 14-7.8 12.8-5.8 26-10.7 39.5-14.7 12.3-3.6 24.8-6.6 37.4-8.9 8.4-1.6 16.8-3.1 25.3-4.2 5.7-.8 11.5-1.5 17.2-2.2 3.6-.4 7.2-.6 10.8-.9 3.4-.3 6.8-.5 10.2-.7 3.3-.2 6.7-.3 10-.3 2.6 0 5.3.2 7.9.4-.4 0-.7.1-1.1.1h-1c-5 .3-10.1.3-15.2.6-5.7.3-11.4.8-17.1 1.4-7.7.8-15.4 1.7-23.1 2.9C69-40.1 56.4-37.8 43.9-35 21.4-30.2-.6-22.9-21.6-13.2c-3.4 1.6-6.6 3.4-10 5.2"/></g><g id="Group_43" transform="translate(108.606 120.413)"><path id="Path_42" d="M15.5-4.9c-2.6-.1-4.9-.2-7.3-.4-1-.1-2-.4-3-.7-.2-.1-.4-.4-.8-.8 1.9-.3 3.5.4 5.5.4-1.3-.9-2.5-1.5-3.5-2.3-1.1-.9-2.1-1.9-3-2.9S1.7-13.7 1-14.8c-.8-1.1-1.4-2.3-2.1-3.4 1.5-1.7 3.5-1.8 5.7-2-.4-.3-.9-.5-1.3-.8-4.2-1.8-7.8-4.6-10.5-8.2-.4-.5-.7-.9-1-1.4-.1-.2-.1-.4-.1-.7l10.1-.9c-.3-.3-.6-.7-1-.9s-.8-.3-1.3-.4c-2.3-.7-4.6-1.7-6.7-2.9-3.4-1.9-6.2-4.6-8.2-8-.2-.4-.5-.7-.9-1.3-.1.8-.3 1.6-.6 2.4-.7 1.9-1.4 3.7-2.3 5.5-1.9 3.6-4.1 7-6.6 10.2-.6.7-1.1 1.5-1.5 2.3.3-.1.6-.3.9-.4.9-.6 1.7-1.2 2.6-1.7.3-.2.7-.3 1.1-.4.3-.1.8.4.6.8-.2.3-.4.7-.7.9-2.4 1.7-4.7 3.6-7.6 4.6-.5.3-1 .6-1.4 1-.3.3-.7.3-1.1 0-.4-.4-.3-.8 0-1.2.2-.2.3-.4.5-.6 4.7-5 8.8-10.6 12.3-16.5 1.3-2 2.2-4.2 2.8-6.5.2-.6.5-1.2.9-1.8 1 .2 1.2.9 1.7 1.4 1 1.3 1.9 2.6 3 3.8 2.6 2.7 5.7 4.9 9.1 6.3 1 .4 2 .8 3 1.3.7.3 1.4.7 2 1 0 2-.1 2.2-1.7 2.5s-3.3.5-5 .6c-.7.1-1.4 0-2.3 0 .2.4.4.7.7 1.1 3.1 3.6 7.1 6.4 11.6 8 .5.2 1.2.1 1.4.9-1.9 1.7-4.6 1.1-6.9 2 3 4.6 6.2 8.7 11.4 10.8.8.3 1.6.7 2.4 1.1.8.1 1.3.7 1.5 1.4"/></g><g id="Group_44" transform="translate(52.966 149.254)"><path id="Path_43" d="M-25.2-40.3c0-1.5-.4-3-1.1-4.4-.4-.6-1-1-1.6-1.2-.5-.3-1 0-1.4.5 2.3.9 3 3.2 4.1 5.1m-1.4 11.1c.1-.1.2-.3.3-.5 1.2-4.8.3-9.3-2-13.6-.2-.6-.9-1.1-1.7-1.1-.8.7-1.2 1.9-1 3 .5 3.4 1.4 6.8 2.9 10 .2.8.8 1.6 1.5 2.2m2.8 1.3l-.8-.5c-.1.1-.3.2-.4.3-1 1-2.2 1.2-3.2.2-1.5-1.4-2.7-3.1-3.5-5-1.1-3-1.6-6.2-1.4-9.4 1.2-.3 2-.9 2-2.2 0-.3.1-.5.3-.7 1.2-2.5 4-2.7 5.6-.5 1.2 1.6 2 3.5 2.4 5.4.5 3.2.5 6.5-.1 9.8-.3.9-.5 1.8-.9 2.6"/></g><g id="Group_45" transform="translate(104.958 141.475)"><path id="Path_44" d="M-26.8-31.2c3.3-1.4 5.8-3.7 8.6-5.7.5.6.7 1.4.4 2.1-.8 2.8-2 5.4-3.6 7.8-1.8 2.7-3.9 5.3-6.2 7.7-.8.9-1.5 1.7-2.4 2.6.7.2 1.1-.2 1.4-.4 3-2.1 5.9-4.3 8.9-6.4.2-.1.4-.3.9-.7-.2.6-.2.8-.3 1.1-.1.2-.2.3-.3.5-2.7 3.1-5.9 5.7-9.6 7.6-.7.4-1.5.5-2.2.4-.6.1-1.2.2-1.8.5.1-.4.2-.9.4-1.3.8-1.1 1.6-2.1 2.5-3.2 2-2.4 4-4.7 6-7.1 1.6-2 3-4.2 4.1-6.5.3-.6.5-1.3.5-1.9-.4.2-.8.5-1.1.8-1.4 1-2.8 2.1-4.2 3.1-.9.7-2 1.1-3.2 1.2-.6.1-1.1.3-1.6.5 0-.3.1-.6.2-1 .5-.9 1-1.8 1.6-2.6 1.3-1.9 2.7-3.8 4.1-5.6 1.9-2.6 3.5-5.4 4.7-8.4.2-.4.4-.7.6-1.1.3.5.3 1.1.1 1.6-.9 2.7-2.1 5.3-3.6 7.6-1.2 1.8-2.5 3.6-3.7 5.4-.6.5-.9 1-1.2 1.4"/></g><g id="Group_46" transform="translate(277.141 96.362)"><path id="Path_45" d="M-31.6-47.2c-.1 2.9-.2 5.6-.3 8.4s-.1 5.5-.1 8.3V5c-.1 11.9-.3 23.9-.4 35.8 0 2.8-.2 5.7-.2 8.5 0 2.4.2 4.9.3 7.3 0 .4 0 .9-.3 1.3-.2-2.2-.5-4.5-.5-6.7 0-28.6.1-57.2.1-85.8 0-3.7.4-7.3.6-11 0-.6.3-1.2.8-1.6"/></g><g id="Group_47" transform="translate(43.387 155.655)"><path id="Path_46" d="M-31.3-39.7c2.1-2.2 2.2-2.3 1.6-4l-1.6 4m6.6 10.2c-.4-2.1-.9-4.2-1.3-6.3h-.2c.2 2.1.3 4.2.5 6.3.1.9.1 1.8.1 2.7-.1.5-.2 1-.4 1.4-.4-.3-.8-.5-.9-.8-.4-1-.6-1.9-.8-2.9-.5-3.3-.8-6.6-1.2-9.9 0-.4-.1-.7-.3-1.4-.2.3-.5.7-.6 1-.6 1.3-1.2 2.7-1.8 4-.1.3-.3.6-.5.8-.1.1-.3.2-.5.1s-.5-.3-.5-.5c0-.4.1-.7.3-1.1.3-.7.6-1.3 1-2.1l-1 .1c0-.4 0-.9.2-1.3.6-1.4 1.3-2.8 1.9-4.2.4-.9.9-1.9 1.3-2.8.1-.3.3-.7.8-.6.3.1.6.4.8.7.2 1.1.3 2.1.6 3.3.6-1.4-.5-2.7.2-4.2.3.4.5.5.5.7.7 5.7 2 11.2 2.2 16.9l-.4.1"/></g><g id="Group_48" transform="translate(64.594 144.938)"><path id="Path_47" d="M-30.7-45.7l-1.3.6c0-.3 0-.5.1-.6.8-1.1 2-1.6 3.4-1.5.5.1 1 .4 1.4.8.5.5.9 1.1 1.1 1.8.9 2 1.5 4.1 1.6 6.3.2 2.5.1 5-.4 7.5-.1.3-.2.6-.3 1-.5-.3-.4-.7-.4-1 0-1.5-.1-3 0-4.4.2-3-.3-6.1-1.6-8.8-.2-.8-.6-1.4-1.1-1.9-.2-.2-.6-.2-1.3-.4.4.6.6.8.7 1.1.5.8 1 1.7 1.3 2.6 1.4 3.6 2 7.6 1.7 11.5-.1.8-.2 1.5-.5 2.3-.7 1.8-2.1 2-3.4.6-.4-.4-.7-.9-1-1.4-1.7-3.4-2.6-7.2-2.5-11 0-.7.3-1.2.7-1.6.3.6.4 1.3.4 2 .3 3 1 6 2.3 8.7.3.8.8 1.5 1.4 2 .8-1.5 1-5.1.5-8.3-.4-2.8-.7-5.6-2.8-7.9"/></g><g id="Group_49" transform="translate(74.697 140.753)"><path id="Path_48" d="M-29-46.3c.4.7.7 1.3 1.1 2 .4.6.4 1.4 1.3 2-.5-1.8-.8-3.2-2.4-4m1.1 15.6c.8-1.1 1.3-2.5 1.2-3.9-.1-3.7-1-7.3-2.7-10.6-.2-.3-.4-.7-.6-1-.3-.2-.5-.5-.8-.7.7-.1 1.3-.2 1.9-.3.7-.1 1.4.1 1.9.7.2.3.5.6.7.9 2.2 3.6 2.9 7.9 1.9 12-.3 1.3-1 2.5-1.9 3.5-.6.9-1.8 1.2-2.7.6-.1-.1-.2-.1-.3-.2-.6-.5-1.1-1-1.5-1.7-.6-1-1.1-2.2-1.5-3.3-.8-2.9-1-5.9-.5-8.8.1-.6.2-1.1.5-1.7.4-.7 1.1-.6 1.4.1.1.3.2.7.3 1-.7.2-1.2.9-1.1 1.6-.1 2.8.4 5.5 1.2 8.1.4.9.8 1.8 1.4 2.6.3.4.7.8 1.2 1.1"/></g><g id="Group_50" transform="translate(105.78 166.391)"><path id="Path_49" d="M-17.9-47.1c0 1.1-.1 2.3-.4 3.3-.6 2.4-1.5 4.8-2.8 7-2.4 4.4-5.2 8.6-8.4 12.6-.3.4-.6.8-1.1 1.4.4.1.8.1 1.2.1 1.7-.2 3.3-.7 4.8-1.4 2.7-1.4 5.2-3.1 7.6-4.9.2-.2.6-.3.9-.3-.4.5-.9 1-1.4 1.4-1.7 1.3-3.5 2.6-5.3 3.8-2.4 1.7-5.4 2.4-8.4 2l-1.7 1.2-.2-.1c.2-.3.4-.6.6-.8 1.7-2.3 3.5-4.6 5.1-7 2-3 3.8-6.1 5.6-9.2 1.4-2.4 2.5-5 3.1-7.6.1-.5.3-1 .4-1.4l.4-.1"/></g><g id="Group_51" transform="translate(257.95 154.024)"><path id="Path_50" d="M-31.2-43.8c1.3 1.2 1.8 1.6 3 1.8 1.9.2 3.8.4 5.7.5.9 0 1.8-.4 2.4-1.1.8-.6.8-1.6.2-2.3-3.9-.7-7.7-.9-11.3 1.1m10-2.4l-.6-1c.9.2 1.7.6 2.4 1.3 1.1 1.1 1.2 2.9.1 4l-.4.4c-.9.7-2 1.2-3.2 1.3-2.8.6-5.7 0-8.2-1.5-.5-.3-1-.6-1.4-1-.7-.6-.8-1.6-.2-2.3.2-.2.3-.3.6-.4.5-.4 1.1-.7 1.7-.8 2.7-.5 5.5-.6 8.2-.2.3.1.5.1 1 .2"/></g><g id="Group_52" transform="translate(221.558 129.552)"><path id="Path_51" d="M-33.1-46.3c1.5-.1 3-.3 4.6-.4 6.6-.3 13.2-.6 19.8-.5 3.8.1 7.6 0 11.4.2 5 .3 10 .4 14.9 1.4.4.1.8.3 1 .6-.5-.1-1.1-.2-1.6-.3-.6-.1-1.2-.1-1.7-.1-3.4-.3-6.8-.6-10.2-.8-7.1-.5-14.1-.4-21.2-.3-3.9.1-7.8.4-11.7.6-1.6.1-3.1.1-4.6.2-.3 0-.5-.1-.7-.2v-.4"/></g><g id="Group_53" transform="translate(260.203 141.47)"><path id="Path_52" d="M-31.3-45.3c.5 1.1 1.5 1.8 2.7 2 1.5.3 3.1.4 4.7.5.7 0 1.4-.2 2-.6.4-.2.6-.7.5-1.1-.1-.2-.2-.3-.4-.4-.7-.3-1.4-.6-2.2-.7-1.2-.2-2.5-.3-3.7-.3-1.2-.1-2.5.1-3.6.6m4.3 3.8c-1.7 0-3.4-.5-4.9-1.5-.7-.3-1.2-1-1.2-1.8 0-1.4.6-2.2 2-2.3 1.3-.1 2.5-.1 3.8 0 1.6.2 3.3.5 4.9.8.5.1 1 .4 1.3.8 1 1.3.8 2.4-.7 3.1-1.7.7-3.5 1-5.2.9"/></g><g id="Group_54" transform="translate(259.966 148.362)"><path id="Path_53" d="M-22.3-45.6c-2.6-.2-5.3-.2-7.9 0-.5.2-.9.4-1.3.6 1.4 2.5 3.6 1.9 5.6 1.9 1.6.1 3.1-.9 3.6-2.5m-5.4-1.6c1.5.2 2.9.3 4.4.6.7.1 1.4.3 1.6 1.1s-.2 1.7-1 2.1c-1.5 1.1-3.4 1.6-5.3 1.5-1.4 0-2.7-.4-3.8-1.2-.2-.2-.5-.4-.7-.6-.6-.4-.8-1.3-.3-1.9.1-.2.3-.3.5-.5.7-.4 1.4-.7 2.1-.8.8-.1 1.7-.2 2.5-.3 0 .1 0 0 0 0z"/></g><g id="Group_55" transform="translate(258.852 134.265)"><path id="Path_54" d="M-33.1-42.9c4.6-.2 9.1 0 14 .2-1.4-1.6-3.2-2.6-4.2-4.5.4 0 .7.1 1.1.2.5.3 1 .7 1.6 1.1 1.3.9 2.4 2.1 4 2.7.2.1.4.3.6.5.2.3.2.7-.1 1-.1.1-.1.1-.2.1-.4.1-.8.1-1.1.1-4.3-.2-8.7-.5-13-.7-1.1-.1-1.9-.2-2.7-.2v-.5"/></g><g id="Group_56" transform="translate(142.163 162.686)"><path id="Path_55" d="M-33.1-47.2c1.2 1.5 1.7 3.1 2.7 4.4 1 1.4 2.1 2.8 3.2 4.1 1.1 1.2 2.4 2.3 3.7 3.3 1.4 1 2.9 2 4.4 2.8 1.4.8 2.9 1.5 4.6 2.3-.7.2-1.4.1-2-.2-6.9-2.4-12.4-6.5-15.7-13.2-.3-.7-.6-1.4-.8-2.2-.1-.4-.1-.9-.1-1.3"/></g><g id="Group_57" transform="translate(130.112 152.927)"><path id="Path_56" d="M-32.7-41.6c-.1-1.9-.3-3.7-.4-5.5.1-.1.2-.1.2-.1l.1.1c2 13.4 5.2 26.5 8.4 39.6-.2-.4-.3-.8-.5-1.2-2.7-9.5-5.1-19.1-7-28.7-.1-.7.1-1.4-.5-2l.1.1c-.1-.8.2-1.7-.4-2.3z"/></g><g id="Group_58" transform="translate(129.895 156.808)"><path id="Path_57" d="M-32.1-43.2c.1 1.6.2 3.2.4 4.8.5 4.8 1.2 9.5 1.2 14.4.1 4.7.2 9.4 0 14.1 0-.2-.1-.5-.1-.7v-1c-.1-4.6-.1-9.1-.5-13.7-.4-5.7-1.1-11.3-1.7-17-.2-1.7-.3-3.3-.3-4.9.2.6.4 1.1.6 1.7v-.1c.2.8-.3 1.7.4 2.4z"/></g><g id="Group_59" transform="translate(153.038 180.777)"><path id="Path_58" d="M-33.1-46.2c2.1-1.1 4.6-1.3 6.9-.5-.2.2-.4.4-.6.4-2.1 0-4.3.1-6.3.1"/></g><g id="Group_60" transform="translate(170.675 137.846)"><path id="Path_59" d="M-32.7-43.9c-.1-.1-.3-.2-.3-.2-.2-1.1 0-2.2.5-3.1.2 1.1.1 2.2-.2 3.3z"/></g><g id="Group_65" transform="translate(190.16 133.826)"><path id="Path_64" d="M-33.1-46.2c1.3-.2 2.2-.5 3.2-.6 1.1-.2 2.2-.3 3.2-.4.6 0 1.3 0 1.9.1 1.7.4 3.4.8 5 1.3.2.1.5.2.7.3v1.1c-.1.1-.2.1-.3.2-1.8.1-3.5 0-5.2-.5-.7-.3-1.6-.1-2 .6-.4.5-1 .8-1.6.7h-1.6c.9 1.4 2 1.9 4.5 2.1-.8.7-2 .7-2.9.2-1-.4-1.9-1-2.9-1.5.4 1.8.9 2.2 4 3.2-.8.4-1.7.5-2.6.1-1-.4-1.8-1.2-2.3-2.2 0-.1 0-.1-.1-.2-.3-1.4-.2-2.9-1-4.5"/></g><g id="Group_66" transform="translate(188.019 127.791)"><path id="Path_65" d="M-16.3-44.3l-1.5.2c-1.1.1-2.3.3-3.4.5-2.5.8-5.2 1.4-7.9 1.6-.3 0-.7.1-1 .3-1 .5-2.2.2-2.7-.7-.1-.2-.1-.4-.2-.6-.2-1 0-2.1.5-2.9.4 1-.1 2.2.9 2.8 2.9-.5 5.7-1.5 8.2-3 .5-.3 1-.6 1.5-.8.3-.1.7-.4.9-.3 1.7.5 3.8.5 4.7 2.9"/></g><g id="Group_67" transform="translate(190.881 109.558)"><path id="Path_66" d="M-20.7-43.5c1.6 0 3-.6 4.5-.1-1.5 1.3-3.4 1.8-5.3 1.6-.5-.1-.9-.5-.9-1.1v-1.5c-2.1.3-3.8 1.9-5.9 1.8-.3-.9.5-1.1.6-1.6-.2 0-.4-.1-.5 0-1.1.4-2.2 1-3.3 1.5-.5.2-1 .5-1.6-.1 0-.7.6-1 1-1.5.4-.6 1.5-.7.9-1.8.4-.6 1.1-.9 1.8-.9 0 .4-.1.7-.2 1.1-.4.6-.8 1.1-1.4 1.9 2.2-.5 3.7-1.8 5.7-2.2 0 .3.2.6.1.8-.3.5-.7 1-1 1.4.7-.2 1-.3 1.3-.5.6-.2 1.2-.5 1.8-.7 2-.8 2.5-.5 2.4 1.9"/></g><g id="Group_68" transform="translate(206.172 136.962)"><path id="Path_67" d="M-30.4-23.4c-.7.4-1.5.4-2.2 0-.4-.2-.6-.7-.4-1.1.2-.5.4-1 .6-1.4-.1-1.9-.6-3.6-.3-5.4 0-.2.2-.4.1-.6-.5-1.1 0-2.3-.2-3.3-.2-1.1.1-2.2.7-3 .1-.2.2-.3.3-.6-.2-.8-.2-1.6 0-2.2.2-1.1.4-2.2.4-3.2.1-.7.3-1.4.4-2.1.1-.2.4-.4.8-.9.1.4.1.8.1 1.2 0 .5-.4 1-.1 1.7 0 .3 0 .6-.2.9-.8 1.3-1 2.9-.4 4.4.2.4-.1 1.1-.3 1.6-.3.6-.4 1.2-.2 1.8.1.4.1.8 0 1.1 0 .3-.2.6-.2.7 1.1 1.7-.1 3.5.2 5.3.1.5-.2 1.1.2 1.6.1.2.2.5.1.7-.1 1 .1 2 .6 2.8"/></g><g id="Group_69" transform="translate(181.248 107.223)"><path id="Path_68" d="M-24.4-46.9c-.7 1.2-2.1 1.3-3 2.1-1 .7-1.8 1.6-2.6 2.6 2.2-.4 3.7-2.1 6-1.9-.3.4-.4.8-.7.9-2 1.1-4.1 2.2-6.1 3.2-.4.2-.8.3-1.3.3s-1-.4-1-.9c0-.1 0-.3.1-.4.2-.4.4-.8.7-1.2 1.5-2 3.5-3.6 5.8-4.7.6-.4 1.4-.4 2.1 0"/></g><g id="Group_70" transform="translate(179.864 152.525)"><path id="Path_69" d="M-17.9-47.2c1.2.5 2.2 1.2 3 2.3.1.2.1.5-.1.7-.2.2-.6.4-.8.3l-1.5-.9c-3 1.5-6.2 2.6-9.6 3.2-.9.2-1.9.2-2.8.5-1.6.4-2.5-.4-3.4-1.5.3-.7.8-.6 1.1-.3.4.3.7.7 1 1.1 3.4-.2 6.6-1 9.8-2.1.5-.2 1-.5 1.5-.8 1-.5 2-.9 1.8-2.5"/></g><g id="Group_71" transform="translate(181.41 159.7)"><path id="Path_70" d="M-27-45.2c.1.3.2.6.2.9 0 .1-.2.2-.2.2-1-.3-2-.2-2.8.3-1.2.7-1.2.6-1.9-.6-.1-.3-.4-.5-.6-.6-.7-.4-1-1.3-.6-2 0-.1 0-.2.1-.2.2.1.5.1.5.2.3 1.2 1.2 1.2 2.1 1.1 2.1-.3 4.2-.7 6.4-1-.3.2-.4.5-.7.7-.8.3-1.6.7-2.5 1"/></g><g id="Group_72" transform="translate(208.887 116.272)"><path id="Path_71" d="M-32.9-37.5l-.2-.4s3.1-9 3.2-9.3c.2 2.2-.1 4.4-1 6.4-.4 1.2-.7 2.5-2 3.3"/></g><g id="Group_73" transform="translate(209.699 118.955)"><path id="Path_72" d="M-27.8-47.2c.3 2.4-.8 4.4-1.9 6.3-.8 1.3-1.4 2.7-3.4 3.5 1.2-1.9 2.2-3.3 3-4.8.8-1.6 1.5-3.3 2.3-5"/></g><g id="Group_74" transform="translate(207.317 114.205)"><path id="Path_73" d="M-29.8-47.2c.8 1.6.3 2.9-.1 4.2-.4 2-1.5 3.7-3.2 4.9.2-.5.3-.7.4-1 .6-1 1.2-2 1.7-3 .3-.8.7-1.7.9-2.5.1-.9.3-1.7.3-2.6"/></g><g id="Group_75" transform="translate(182.148 165.102)"><path id="Path_74" d="M-28.1-46.8l-5 1.3c.4-.9.5-1.1 1.5-1.3 1.2-.3 2.4-.7 3.5 0"/></g><g id="Group_76" transform="translate(42.241 71.128)"><path id="Path_75" d="M-31 32.2l3.6-2.1c-.2-1.5-.5-3.1-.9-4.6-.1-.5-.2-1.1-.2-1.6.5-.4.8-.7 1.2-.9 7.8-6 16-11.5 24.6-16.3 29.4-16.4 60.6-29.2 93-38.3 17.6-5 35.6-8.4 53.9-10.3 6.8-.7 13.6-1.2 20.4-1.3 5.3-.1 10.5-.2 15.8-.2 6.7.1 13.4.3 20 .9 5.1.3 10.2 1.1 15.2 2.3 1.8.4 3.6.9 5.4 1.4.5-1.5.5-1.5-.5-2s-2-1-3-1.4c-5.2-2.3-10.8-3.2-16.5-3.8-6.7-.7-13.3-1-20-1.1-10.9-.2-21.9.2-32.8 1-6.2.5-12.3 1.1-18.4 1.9-7.2 1-14.4 2.2-21.5 3.7-17 3.5-33.7 8.4-49.9 14.6C40.3-19.2 22.7-11.1 5.7-1.7c-10.2 5.7-20 12.2-29 19.6-1.8 1.5-3.6 3.1-5.4 4.6-.1 0-.3-.1-.4-.1-1.5-.7-2.3-.3-2.3 1.2-.1 1.4-.7 2.5-1.7 3.3l1.6-.1c.2 1.8.4 3.6.5 5.4"/></g><g id="Group_77" transform="translate(286.86 79.946)"><path id="Path_76" d="M-23.1-16.8c-.6-4.9-.8-9.9-.9-14.8-.1-5 0-9.9.5-14.8 0-.2 0-.5-.1-.7-.3-.2-.8-.1-1 .3 0 .1-.1.1-.1.2-.3.6-.4 1.3-.5 2-.4 6-.8 12.1-1.1 18.1-.3 6.4-.6 12.8-1 19.3-.3 6-.8 11.9-.9 17.9-.3 12.7-.6 25.4-.8 38.2-.1 9.4.1 18.8.2 28.2 0 .6 0 1.1-.1 1.8-.6-.2-1.1-.3-1.6-.4-.9-.2-1.8-.5-2.6-.8v1.9c1 .2 1.9.3 2.9.5.4.1.9.1 1.1.3.5.9 1.6 1.2 2.5.6l.1-.1c.2-.1.6.1.9.1.4.1.8.1 1.3.1 0-.1.1-.2.1-.2l-2.3-1.3c0-.2-.1-.4-.1-.5.4-7.6.9-15.1 1.3-22.7.2-4 .4-8.1.6-12.1.1-2.1.1-4.1.1-6.2-.1-3.5-.3-7.1-.3-10.6 0-6.2.2-12.3.4-18.5.1-4 .4-8 .6-11.9.2-3.8.6-7.6.8-11.3.1-.9.1-1.7 0-2.6"/></g><g id="Group_78" transform="translate(50.025 61.798)"><path id="Path_77" d="M-31.1 27.5l3.6-2c-.2-1.5-.5-3-.8-4.5-.1-.5-.2-1.1-.2-1.6.5-.4.8-.6 1.2-.9 7.8-5.8 16.1-11 24.8-15.5 29.6-15.6 60.9-27.7 93.3-36 17.7-4.6 35.7-7.7 53.9-9.3 6.8-.6 13.6-1 20.4-1 5.3 0 10.5-.1 15.8 0 6.7.2 13.3.5 20 1.1 5.1.4 10.2 1.2 15.2 2.4 1.8.5 3.6.9 5.4 1.4.5-1.4.5-1.5-.5-2s-1.9-1-2.9-1.4c-5.2-2.3-10.8-3.2-16.4-3.9-6.6-.8-13.3-1.2-20-1.4-11-.3-21.9-.1-32.8.6-6.1.4-12.3.9-18.4 1.6-7.2.8-14.4 1.9-21.5 3.3-17 3.2-33.7 7.7-50 13.5-18.2 6.3-35.9 14-53 23C-4.3.3-14 6.6-23.2 13.7c-1.8 1.5-3.6 3-5.4 4.4-.1 0-.3-.1-.4-.1-1.5-.7-2.3-.4-2.4 1.2-.1 1.2-.7 2.3-1.7 3l1.6-.1c.2 1.8.3 3.6.4 5.4"/></g><g id="Group_79" transform="translate(293.493 71.002)"><path id="Path_78" d="M-21.9-17.6c-.5-4.8-.7-9.6-.7-14.4-.1-4.8.2-9.6.7-14.4 0-.2 0-.5-.1-.7-.4-.2-.9-.1-1.1.3 0 0 0 .1-.1.1-.3.6-.4 1.3-.5 2-.4 5.9-.9 11.8-1.3 17.6-.4 6.2-.8 12.5-1.2 18.7-.3 5.9-.9 11.7-1.1 17.5-.5 12.4-1 24.7-1.3 37.1-.2 9.1-.1 18.3-.2 27.4 0 .5-.1 1.1-.1 1.7-.6-.2-1.1-.3-1.6-.4-.9-.3-1.8-.5-2.6-.8v1.8c1 .2 1.9.4 2.9.5.4.1.9.1 1.1.3.5.9 1.7 1.2 2.6.6h.1c.2-.1.6.1.9.1.4.1.8.1 1.3.1 0-.1.1-.1.1-.2l-2.3-1.3c0-.2 0-.3-.1-.5.5-7.4 1.1-14.7 1.6-22.1.2-3.7.4-7.6.7-11.6.1-2 .1-4 .1-6 0-3.4-.2-6.9-.1-10.3.1-6 .3-12 .6-18 .2-3.9.5-7.7.8-11.6.3-3.7.7-7.4 1-11 0-.9 0-1.7-.1-2.5"/></g><g id="Group_80" transform="translate(57.718 48.205)"><path id="Path_79" d="M-31.1 27.5l3.6-2c-.2-1.5-.5-3-.8-4.5-.1-.5-.2-1.1-.2-1.6.5-.4.8-.6 1.2-.9 7.8-5.8 16.1-11 24.8-15.5 29.6-15.6 60.9-27.7 93.3-36 17.7-4.6 35.7-7.7 53.9-9.3 6.8-.6 13.6-1 20.4-1 5.3 0 10.5-.1 15.8 0 6.7.2 13.3.5 20 1.1 5.1.4 10.2 1.2 15.2 2.4 1.8.5 3.6.9 5.4 1.4.5-1.4.5-1.5-.5-2s-1.9-1-2.9-1.4c-5.2-2.3-10.8-3.2-16.4-3.9-6.6-.8-13.3-1.2-20-1.4-11-.3-21.9-.1-32.8.6-6.1.4-12.3.9-18.4 1.6-7.2.8-14.4 1.9-21.5 3.3-17 3.2-33.7 7.7-50 13.5-18.2 6.3-35.9 14-53 23C-4.3.3-14 6.6-23.2 13.7c-1.8 1.5-3.6 3-5.4 4.4-.1 0-.3-.1-.4-.1-1.5-.7-2.3-.4-2.4 1.2-.1 1.2-.7 2.3-1.7 3l1.6-.1c.2 1.8.3 3.6.4 5.4"/></g><g id="Group_81" transform="translate(301.186 57.408)"><path id="Path_80" d="M-21.9-17.6c-.5-4.8-.7-9.6-.7-14.4-.1-4.8.2-9.6.7-14.4 0-.2 0-.5-.1-.7-.4-.2-.9-.1-1.1.3 0 0 0 .1-.1.1-.3.6-.4 1.3-.5 2-.4 5.9-.9 11.8-1.3 17.6-.4 6.2-.8 12.5-1.2 18.7-.3 5.9-.9 11.7-1.1 17.5-.5 12.4-1 24.7-1.3 37.1-.2 9.1-.1 18.3-.2 27.4 0 .5-.1 1.1-.1 1.7-.6-.2-1.1-.3-1.6-.4-.9-.3-1.8-.5-2.6-.8v1.8c1 .2 1.9.4 2.9.5.4.1.9.1 1.1.3.5.9 1.7 1.2 2.6.6h.1c.2-.1.6.1.9.1.4.1.8.1 1.3.1l.1-.2-2.3-1.3c0-.2 0-.3-.1-.5.5-7.4 1.1-14.7 1.6-22.1.2-3.7.4-7.6.7-11.6.1-2 .1-4 .1-6 0-3.4-.2-6.9-.1-10.3.1-6 .3-12 .6-18 .2-3.9.5-7.7.8-11.6.3-3.7.7-7.4 1-11 0-.9 0-1.7-.1-2.5"/></g><g id="Group_82" transform="translate(63.131 36.426)"><path id="Path_81" d="M-31.1 27.5l3.6-2c-.2-1.5-.5-3-.8-4.5-.1-.5-.2-1.1-.2-1.6.5-.4.8-.6 1.2-.9 7.8-5.8 16.1-11 24.8-15.5 29.6-15.6 60.9-27.7 93.3-36 17.7-4.6 35.7-7.7 53.9-9.3 6.8-.6 13.6-1 20.4-1 5.3 0 10.5-.1 15.8 0 6.7.2 13.3.5 20 1.1 5.1.4 10.2 1.2 15.2 2.4 1.8.5 3.6.9 5.4 1.4.5-1.4.5-1.5-.5-2s-1.9-1-2.9-1.4c-5.2-2.3-10.8-3.2-16.4-3.9-6.6-.8-13.3-1.2-20-1.4-11-.3-21.9-.1-32.8.6-6.1.4-12.3.9-18.4 1.6-7.2.8-14.4 1.9-21.5 3.3-17 3.2-33.7 7.7-50 13.5-18.2 6.3-35.9 14-53 23C-4.3.3-14 6.6-23.2 13.7c-1.8 1.5-3.6 3-5.4 4.4-.1 0-.3-.1-.4-.1-1.5-.7-2.3-.4-2.4 1.2-.1 1.2-.7 2.3-1.7 3l1.6-.1c.2 1.8.3 3.6.4 5.4"/></g><g id="Group_83" transform="translate(306.599 45.629)"><path id="Path_82" d="M-21.9-17.6c-.5-4.8-.7-9.6-.7-14.4-.1-4.8.2-9.6.7-14.4 0-.2 0-.5-.1-.7-.4-.2-.9-.1-1.1.3v.2c-.3.6-.5 1.3-.5 2-.5 5.8-1 11.7-1.4 17.5-.4 6.2-.8 12.5-1.2 18.7-.3 5.9-.9 11.7-1.1 17.5-.5 12.4-1 24.7-1.3 37.1-.2 9.1-.1 18.3-.2 27.4 0 .5-.1 1.1-.1 1.7-.6-.2-1.1-.3-1.6-.4-.9-.3-1.8-.5-2.6-.8v1.8c1 .2 1.9.4 2.9.5.4.1.9.1 1.1.3.5.9 1.7 1.2 2.6.6h.1c.2-.1.6.1.9.1.4.1.8.1 1.3.1l.1-.2-2.3-1.3c0-.2 0-.3-.1-.5.5-7.4 1.1-14.7 1.6-22.1.2-3.7.4-7.6.7-11.6.1-2 .1-4 .1-6 0-3.4-.2-6.9-.1-10.3.1-6 .3-12 .6-18 .2-3.9.5-7.7.8-11.6.3-3.7.7-7.4 1-11 0-.9 0-1.7-.1-2.5"/></g></g></g></g></svg>