<?xml version="1.0" encoding="utf-8"?>
<!-- Generator: Adobe Illustrator 27.2.0, SVG Export Plug-In . SVG Version: 6.00 Build 0)  -->
<svg version="1.1" id="Layer_2_00000042721851750460776230000005840106475343174823_"
	 xmlns="http://www.w3.org/2000/svg" xmlns:xlink="http://www.w3.org/1999/xlink" x="0px" y="0px" viewBox="0 0 269.3 79.4"
	 style="enable-background:new 0 0 269.3 79.4;" xml:space="preserve">
<g id="Layer_1-2">
	<path d="M8.6,44.7c8.8,0.5,17.2-2.5,25.9-3.1C53.8,40.2,73,38.5,92.3,37c14.2-1.1,28.4-2.2,42.5-3.2c15.5-1.1,30.9-2.1,46.4-3.3
		c2-0.1,3.9-0.7,5.8-1.5c-11.1-1.7-22.2-3.3-33.3-5c-3.9-0.6-7.9-1.4-11.8-2.3c-4.9-1.1-8.9-5.6-9-10.1c-0.1-1.9,1.1-3.3,3.1-3.7
		c2.8-0.5,5.8-1.1,8.6-0.8c6,0.6,11.9,1.5,17.8,2.6c19.3,3.5,38.6,7.1,57.8,10.8c3.9,0.8,7.5,2.3,11.2,3.7c2.2,0.8,3,2.6,3.1,4.8
		c0.2,5.5-1.8,10.1-6.8,13.5c-10.1,6.9-21.2,11.7-32.7,16.2c-10.6,4.1-21.5,5.1-32.7,4.5c-0.8,0-1.6-0.5-3.6-1.1l0,0
		c18.7-8.1,38.4-11.4,55.7-22.1c-1.8-0.2-3-0.6-4.1-0.5c-25.4,1.1-50.8,2.2-76.1,3.3c-2.6,0.1-5.1,0.2-7.7,0.3
		c-23.9,1.2-47.8,2.4-71.7,3.8c-11.3,0.7-22.5,1.9-33.8,2.8"/>
</g>
</svg>
