<?xml version="1.0" encoding="utf-8"?>
<!-- Generator: Adobe Illustrator 27.2.0, SVG Export Plug-In . SVG Version: 6.00 Build 0)  -->
<svg version="1.1" id="Layer_2_00000070812676359937761010000004127814340124409512_"
	 xmlns="http://www.w3.org/2000/svg" xmlns:xlink="http://www.w3.org/1999/xlink" x="0px" y="0px" viewBox="0 0 243.7 70.6"
	 style="enable-background:new 0 0 243.7 70.6;" xml:space="preserve">
<g id="Layer_1-2">
	<path d="M239.9,40c-12.2-0.7-24.4-1.6-36.6-2.1c-22-0.9-44.1-2-66.1-2.1c-22.7-0.1-45.5,0.9-68.2,1.4c-0.1,0.4-0.2,0.8-0.2,1.1
		c3.4,1,6.8,2,10.3,2.9c3.7,1,7.4,1.8,11.1,2.7c3.7,1,7.4,1.9,11,3.1c3.6,1.1,7.2,2.4,10.8,3.7c3.4,1.3,7.4,1.6,11.1,5.2
		c-5.9,0.1-10.8,0-15.6,0.2c-15.2,0.6-29.1-4.4-43.2-8.5c-7.6-2.2-15-5.3-22.4-8.1c-3.1-1.2-4.8-3.6-5.5-6.5
		c-0.9-3.4-0.2-4.9,3.2-6.5c2.7-1.3,5.6-2.3,8.5-3.3C62.3,18.4,76.7,13.7,91,9c1.6-0.5,3.4-0.7,5.2-1.1c1.3,3.3-0.2,4.5-2.7,5.3
		C87.2,15.5,81,17.7,74.8,20c-5.2,1.9-10.3,3.8-15.5,5.7c0.1,0.3,0.1,0.7,0.2,1c3.8,0,7.7-0.1,11.5-0.1c17.3-0.3,34.6-0.8,51.9-0.8
		c12.4,0,24.8,0.5,37.2,1.4c19.9,1.4,39.7,3.2,59.5,5c5.4,0.5,10,0.3,16.3,1.1"/>
</g>
</svg>
