<svg xmlns="http://www.w3.org/2000/svg" width="51.757" height="47.09"><defs><clipPath id="a"><path fill="none" d="M0 0h51.757v47.09H0z"/></clipPath></defs><g clip-path="url(#a)"><path d="M40.089 15.184c-7.335-4.2-21.091-10.849-30.623-5.238s-11.867 16.976-6.282 24.6 30.784 12.869 35.927 3.736 8.316-18.9.98-23.1m-15.767 14c-2.016 1.021-4.057 1.045-4.559.054s.725-2.622 2.741-3.643 4.057-1.045 4.559-.054-.725 2.622-2.741 3.643m8.431 7.255c-2.016 1.021-4.057 1.045-4.559.054s.725-2.622 2.741-3.643 4.057-1.045 4.559-.054-.725 2.623-2.741 3.643" fill="#f2d853"/><path d="M22 47.089a24.989 24.989 0 01-8.539-1.214 19.033 19.033 0 01-10.988-9.5A22.652 22.652 0 01.067 24.036 25.466 25.466 0 013.2 13.512 25.826 25.826 0 0115.533 1.937 21.728 21.728 0 0125.892.044 17.052 17.052 0 0134.4 2.738a10.949 10.949 0 012.586 2.3 1.746 1.746 0 00.942.61 26.635 26.635 0 015.562 2.208c3.91 2.129 6.775 5.164 7.859 9.61a15.36 15.36 0 01-.422 8.423 26.724 26.724 0 01-6.2 10.317 35.558 35.558 0 01-9.186 7.1 30.968 30.968 0 01-10.943 3.535c-.934.11-1.873.179-2.606.248m14.05-42.08a12.244 12.244 0 00-3.644-2.535 16.523 16.523 0 00-5.565-1.451 21.919 21.919 0 00-10.859 1.833A24.339 24.339 0 004.205 13.973a24.376 24.376 0 00-2.845 9.346 21.177 21.177 0 001.824 11.225A17.931 17.931 0 0014.7 44.478a23.1 23.1 0 0010.687.41 31.992 31.992 0 0015.885-7.67 26.416 26.416 0 007.705-10.949 14.046 14.046 0 00.739-7.816 10.835 10.835 0 00-2.316-4.925 24.1 24.1 0 00-5.992-5.2c-1.892-1.1-3.836-2.114-5.756-3.167-.074-.04-.141-.094-.3-.2l.7.047" fill="#152c4c"/><path d="M26.907 39.974c.55-.715 1.337-1.209 1.927-1.878a13.733 13.733 0 01-2.276-1.341 14.592 14.592 0 01-1.693-2.13 20.126 20.126 0 01-8.5-.264v-.595c.563 0 1.092-.012 1.619 0a27.15 27.15 0 009.055-1.3 36.756 36.756 0 009.748-4.844c.794-.55 1.563-1.135 2.344-1.7.273-.2.552-.391.824-.592a2.349 2.349 0 012.24-.356c.793.253 1.087.82.62 1.508a57.774 57.774 0 01-2.4 3.261 52.557 52.557 0 01-6.194 6.594 15.253 15.253 0 01-5.513 3.242c-.563.183-1.118.394-1.676.593l-.127-.2m2.656-2.445c1.378-.559 3.616-2.625 3.839-3.554a5.037 5.037 0 00-4.755 1.127 3.5 3.5 0 00-.577.64c-.238.351-.135.6.248.788a7.319 7.319 0 01.931.528c.129.089.189.277.314.471m-10.783-9.748a1.859 1.859 0 01.554-1.4 6.464 6.464 0 012.407-1.687 14.751 14.751 0 012.346-.69 3.52 3.52 0 012.378.372 3.577 3.577 0 00.809.227 7.835 7.835 0 011.26.277.975.975 0 01.525 1.465 3.91 3.91 0 01-1.4 1.523 11.185 11.185 0 01-6.054 2.1 5.534 5.534 0 01-1.7-.258c-.757-.209-1.114-.851-1.119-1.928m8.965-1.825c-.972-.573-1.789-1.173-2.889-1a9.363 9.363 0 00-3.87 1.531 3.726 3.726 0 00-.832.8.658.658 0 00.422 1.136 3.367 3.367 0 00.932.1 10.944 10.944 0 005.472-1.9 9.306 9.306 0 00.764-.666M9.055 15.015a5.946 5.946 0 013.549-.637c-.266.2-.4.322-.543.414-1.533.962-3.1 1.87-4.592 2.9a29.543 29.543 0 00-2.714 2.275 11.128 11.128 0 00-.734.89c-.217.238-.472.442-.837.777a3.07 3.07 0 01.347-1.717 38.745 38.745 0 016.1-7.6c.483-.472.955-.956 1.429-1.437a1.458 1.458 0 011.411-.115c.366.188.449.44.4.965a4.255 4.255 0 01-.553 1.78c-.117.2-.267.38-.467.66l-.619-.968a11.02 11.02 0 00-2.17 1.815m15.516-4.278c.068-.662.113-1.156.173-1.649.049-.405.13-.807.169-1.213.028-.3.164-.405.461-.421a12.574 12.574 0 015.33.686 34.159 34.159 0 004.848 1.013c1.046.248 2.055.655 3.081.987.387.125.52.391.45.863h-.679a32.461 32.461 0 01-5.43-.759 21.235 21.235 0 00-6.622-.232 1.622 1.622 0 00-1.166.477c-.09.109-.293.124-.616.249m1.531-2.252l-.172.751 2.468-.443.006-.12-2.3-.188M7.511 22.511a20.146 20.146 0 012.924-2.19 14.284 14.284 0 014.789-1.255c.2-.019.425.193.784.371a5.434 5.434 0 01-.807.555c-1 .418-2 .813-3.008 1.2-1.256.487-2.519.956-3.774 1.443a.749.749 0 01-.908-.128m21.099-6.269c1.416-.836 6.65-1.244 8.035-.613a6.284 6.284 0 01-2.2.721c-1 .138-2.007.2-3.011.294-.837.075-1.675.139-2.5.207l-.317-.609" fill="#152c4c"/></g></svg>