<svg xmlns="http://www.w3.org/2000/svg" width="45.964" height="38.218"><defs><clipPath id="a"><path fill="none" d="M0 0h45.964v38.218H0z"/></clipPath></defs><g clip-path="url(#a)"><path d="M13.677 12.92c-1.926-.2-9.367.278-8.909 10.354s23.719 14.329 23.9 14.365S54.476 20.08 42.746 6.663c-11.1-12.7-22.6 9.9-22.6 9.9a9.137 9.137 0 00-6.469-3.646" fill="#e75256"/><path d="M19.412 12.158c.077-.322.121-.526.174-.726a15.793 15.793 0 014.288-7.417A14.153 14.153 0 0131.322.251a13.875 13.875 0 017.066.469 10.372 10.372 0 017.139 8.18 21.532 21.532 0 01-.963 11.852 28.826 28.826 0 01-5.9 9.83 32.147 32.147 0 01-7.724 6.45 7.364 7.364 0 01-3.133.936c-.777.068-1.549.2-2.326.24-.625.028-1.255-.058-1.883-.077a33.171 33.171 0 01-7.327-1.014 22.537 22.537 0 01-9.056-4.843 21.2 21.2 0 01-5.334-6.763 17.4 17.4 0 01-1.853-6.8 14.1 14.1 0 012.285-8.779 9.429 9.429 0 0113.04-2.912 8.758 8.758 0 013.855 4.68c.04.113.1.22.2.453m.105 2.04a.831.831 0 01-.092-.131c-.036-.147-.078-.293-.1-.442a7.872 7.872 0 00-2.492-4.68 8.893 8.893 0 00-8.861-2.177 9.092 9.092 0 00-5.589 4.876A12.96 12.96 0 00.966 18.5a15.774 15.774 0 00.869 4.388 19.943 19.943 0 006.5 8.877 26.918 26.918 0 007.321 4.053 18.71 18.71 0 006.431 1.454c.671.015 1.34.118 2.012.14 1.258.041 2.518.075 3.776.064a1.89 1.89 0 001.217-.391c1-.829 2.01-1.657 3.024-2.475a44.081 44.081 0 006.519-6.18 26.251 26.251 0 005.538-10.666 19.442 19.442 0 00.188-8.909 9.021 9.021 0 00-4.275-6.122A12.579 12.579 0 0031.669 1.2a13.424 13.424 0 00-8.645 4.884 13.823 13.823 0 00-3.245 7.14 7.268 7.268 0 01-.262.971" fill="#1a1818"/><path d="M6.484 10.457c-1.574 1.378-2.4 3.279-3.471 5.059.1-1.366 2.326-4.623 3.471-5.059m-.853 4.729c-.775 1.153-1.032 2.539-1.726 3.72a6.128 6.128 0 011.726-3.72m.111-2.266a22.006 22.006 0 00-2.51 4.194c.318-1.571 1.641-3.8 2.51-4.194" fill="#1a1818"/></g></svg>